<?xml version="1.0" standalone="no"?>
<!DOCTYPE svg PUBLIC "-//W3C//DTD SVG 1.1//EN" "http://www.w3.org/Graphics/SVG/1.1/DTD/svg11.dtd" >
<svg xmlns="http://www.w3.org/2000/svg">
<metadata></metadata>
<defs>
<font id="victoria_oneweb" horiz-adv-x="1542" >
<font-face units-per-em="2048" ascent="1536" descent="-512" />
<missing-glyph horiz-adv-x="573" />
<glyph unicode="&#xfb03;" horiz-adv-x="1888" d="M20 9q0 15 35 15q77 1 94 43.5t17 233.5v584h-135q-18 0 -15 14q6 30 25 31q76 0 100.5 24.5t29.5 98.5q5 75 33.5 162.5t114 194t283.5 106.5q108 0 142 -36t34 -63t-36.5 -48t-77.5 -26q-10 0 -13 9q-12 45 -50.5 74.5t-96.5 29.5t-97.5 -38t-60 -102.5t-20.5 -221.5 v-152h520v94q0 203 128 358.5t333 155.5q169 0 268.5 -59.5t99.5 -126.5q0 -33 -63.5 -71t-114.5 -42q-14 0 -14 9q-5 95 -57.5 162t-174.5 67q-211 0 -228 -168t-17 -227v-152h405q135 0 196.5 10.5t78.5 10.5q10 0 10 -15q-4 -172 -4 -210v-476q0 -157 14 -188t42 -41 t66 -10q38 -1 37 -15q0 -14 -24 -14l-213 6l-205 -6q-25 0 -25 14t35 15q76 0 95.5 38.5t19.5 183.5v267q0 268 -25.5 320.5t-99.5 52.5h-403v-584q0 -170 17 -210t46 -53t66 -13t36 -15q0 -16 -24 -16l-217 6l-205 -6q-25 0 -25 15t35 15q77 1 94 43.5t17 233.5v584h-520 v-584q0 -170 17 -210t46 -53t66 -13q37 1 37 -15t-25 -16l-217 6l-205 -6q-25 0 -25 15z" />
<glyph unicode="&#xfb04;" horiz-adv-x="1851" d="M1243 1489q-237 0 -237 -395v-152h249q23 0 19 -16l-6 -25q-4 -16 -29 -16h-233v-584q0 -170 17 -210t46 -53t66 -13t36 -15q0 -16 -24 -16l-217 6l-205 -6q-25 0 -25 15t35 15q77 1 94 43.5t17 233.5v584h-520v-584q0 -170 17 -210t46 -53t66 -13q37 1 37 -15t-25 -16 l-217 6l-205 -6q-25 0 -25 15t35 15q77 1 94 43.5t17 233.5v584h-135q-18 0 -15 14q6 30 25 31q76 0 100.5 24.5t29.5 98.5q5 75 33.5 162.5t114 194t283.5 106.5q108 0 142 -36t34 -63t-36.5 -48t-77.5 -26q-10 0 -13 9q-12 45 -50.5 74.5t-96.5 29.5t-97.5 -38t-60 -102.5 t-20.5 -221.5v-152h520v94q0 202 126.5 358t334.5 156q154 0 252 -55q43 17 64 35t31 18t9 -14l-1 -212l-3 -1060q0 -154 16.5 -186.5t44 -42.5t65.5 -10q38 -1 38 -15t-25 -14l-219 6l-207 -6q-25 0 -24 14q0 15 34 15q74 0 95.5 40t21.5 162v159l-4 876q0 160 -88 194.5 t-164 34.5z" />
<glyph horiz-adv-x="0" />
<glyph unicode="&#xd;" horiz-adv-x="573" />
<glyph horiz-adv-x="0" />
<glyph horiz-adv-x="0" />
<glyph horiz-adv-x="0" />
<glyph unicode="&#x9;" horiz-adv-x="0" />
<glyph unicode="&#xa;" horiz-adv-x="0" />
<glyph unicode=" "  horiz-adv-x="573" />
<glyph unicode="&#x09;" horiz-adv-x="573" />
<glyph unicode="&#xa0;" horiz-adv-x="573" />
<glyph unicode="!" horiz-adv-x="475" d="M229 354q0 102 -36.5 526.5t-36.5 598.5q0 54 67.5 68t89.5 14q17 1 17 -51t-5.5 -148t-15.5 -237t-30.5 -398t-20.5 -373q0 -25 -14 -24q-15 0 -15 24zM131 96q0 47 33 80t80 33t79.5 -33t32.5 -80t-32.5 -79.5t-79.5 -32.5t-80 32.5t-33 79.5z" />
<glyph unicode="&#x22;" horiz-adv-x="501" d="M478 1702q14 0 14 -16q0 -57 -32.5 -215t-37.5 -240q0 -25 -16 -25t-17 25q-11 119 -33 213t-30.5 131t-8.5 72q0 27 73.5 41t87.5 14zM194 1702q14 0 15 -16q0 -57 -32.5 -215t-37.5 -240q1 -25 -15 -25t-18 25q-12 133 -41.5 252.5t-29.5 163.5q0 28 72.5 41.5 t86.5 13.5z" />
<glyph unicode="#" horiz-adv-x="1306" d="M465 674h309l49 350h-309zM160 614q-6 0 -6 7l6 45q0 8 10 8h236l49 350h-238q-6 0 -6 6l6 45q0 8 10 8h236l37 260q0 8 8 9h47q4 0 4 -6l-37 -263h309l37 260q0 8 9 9h47q4 0 4 -6l-37 -263h237q6 0 7 -6l-7 -45q0 -8 -10 -8h-235l-49 -350h237q6 0 6 -6l-6 -45 q0 -8 -10 -9h-236l-37 -260q0 -8 -8 -8h-47q-4 0 -4 6l37 262h-309l-37 -260q0 -8 -8 -8h-47q-4 0 -5 6l37 262h-237z" />
<glyph unicode="$" horiz-adv-x="1001" d="M473 915v494q-153 -18 -186 -95t-33 -132t46 -108t173 -159zM698.5 524q-59.5 68 -166.5 154v-549q112 15 169 85.5t57 155.5q0 86 -59.5 154zM831 1186q0 -25 -15 -25t-16 39t-26.5 80t-84 85t-157.5 48v-543q66 -53 131.5 -103t151.5 -134.5t86 -206.5 q0 -123 -105 -228t-264 -120v-94q0 -10 -8 -11l-45 -6q-6 0 -6 6v103q-143 0 -229 35t-106 47t-21 28q0 102 -11 205q0 25 11.5 25t14.5 -7.5t5 -15.5q33 -141 126 -204.5t210 -63.5v598q-66 51 -213 156.5t-147 269.5q0 127 102 214t258 95v103q0 10 8 10l45 6q6 0 6 -6 v-113q141 -6 287 -61q19 -10 19 -23q-7 -61 -7 -188z" />
<glyph unicode="%" horiz-adv-x="1550" d="M335 21q3 15 56 119q133 263 327.5 625t418.5 779q4 8 12 4l35 -12q6 -2 2 -10q-597 -1162 -795 -1561q-6 -10 -12 -4l-31 29q-16 16 -13 31zM1318.5 612q-53.5 113 -158.5 113t-154.5 -99t-49.5 -285t76 -250t134 -64t97.5 28.5t74 97.5t34.5 207q0 139 -53.5 252z M1405 96q-98 -112 -243 -112t-241 106.5t-96 277.5t94.5 284.5t243 113.5t244.5 -114.5t96 -279t-98 -276.5zM520.5 1389q-52.5 114 -157.5 114q-106 0 -155.5 -97t-49.5 -285.5t76 -252t134 -63.5t97 28.5t73.5 97.5t34.5 207q0 137 -52.5 251zM606.5 874.5 q-98.5 -112.5 -244.5 -112.5q-145 0 -240 106.5t-95 277.5t93.5 284.5t242.5 113.5t245.5 -115t96.5 -278.5t-98.5 -276z" />
<glyph unicode="&#x26;" horiz-adv-x="1275" d="M924 1282q0 -25 -16 -25t-15 25q-4 111 -72.5 164t-162.5 53t-159 -71.5t-65 -162.5q0 -154 103.5 -228.5t232.5 -84.5q33 -2 33 -20t-33 -21q-216 4 -367 -114t-151 -348q0 -189 107.5 -304.5t271.5 -115.5t294 96.5t130 219t-40 197t-116 115.5q-70 -2 -135.5 -2 t-116.5 -9t-81.5 -31.5t-30.5 -69.5t34.5 -83t71.5 -48q12 -4 8 -18q-29 -106 -75 -107q-43 0 -69 51t-26 127q0 77 33 138t86 95.5t120.5 48t138.5 18.5t138.5 5t153.5 13t86 96q0 45 -40 73.5t-77 40.5q-26 9 7.5 67t59.5 58q43 0 69 -51t26 -122q0 -147 -85.5 -211.5 t-240.5 -76.5q90 -41 145.5 -113.5t55.5 -162.5t-41 -160.5t-111.5 -124t-167 -84t-268.5 -30.5t-329.5 126t-157.5 334t161.5 341t387.5 159q-120 15 -229 101.5t-109 211.5t104.5 206t266.5 81q89 0 170 -25.5t89.5 -31.5t8.5 -17q-6 -52 -6 -188z" />
<glyph unicode="'" horiz-adv-x="266" d="M204 1702q14 0 15 -16q0 -66 -31.5 -213.5t-37.5 -241.5q0 -25 -16 -25t-17 25q-12 126 -42 249t-30 167q0 28 72.5 41.5t86.5 13.5z" />
<glyph unicode="(" horiz-adv-x="684" d="M158 741.5q0 178.5 43 322.5t104.5 255t130 187t102.5 102t40 15t-5 -24q-274 -331 -274 -803.5t105.5 -654.5t168.5 -258q10 -12 4.5 -23.5t-39.5 15.5t-102.5 102.5t-130 186t-104.5 255t-43 323z" />
<glyph unicode=")" horiz-adv-x="684" d="M526 741.5q0 -178.5 -43 -323t-104.5 -255t-130 -186t-102.5 -101.5t-40 -15.5t5 22.5q274 331 274 804t-105.5 655t-168.5 257q-10 12 -4.5 23.5t39.5 -14.5t102.5 -102t130 -187t104.5 -255t43 -322.5z" />
<glyph unicode="*" horiz-adv-x="862" d="M451 1638q69 0 69 -43q0 -70 -28 -174.5t-70 -199.5q4 0 8 -4q243 80 259 131t17 68t11 14q41 -4 73 -44t46 -74q26 -67 -17 -85q-142 -44 -385 -21l-2 -10q149 -210 202.5 -207.5t70.5 4.5q4 4 10 3t6 -7q8 -39 -18.5 -84t-59.5 -71q-58 -37 -81 -6q-42 56 -83 166 t-57 194h-8q-177 -236 -113 -316q13 -17 0 -25q-31 -16 -78 -7.5t-80 30.5q-67 46 -41 80q94 123 299 244l-2 8q-249 82 -289 49.5t-51 -44.5t-16 -7q-29 29 -35 80t6 86q24 70 63 57q74 -23 165 -83t159 -126q6 6 9 7q0 263 -45 290t-59 34t-11 14q16 37 64.5 58t91.5 21z " />
<glyph unicode="+" horiz-adv-x="987" d="M535 750v-388q0 -10 -9 -10l-45 -6q-6 0 -6 6v398h-399q-6 0 -6 6l6 45q0 8 10 8h389v389q0 10 8 10l45 6q6 0 7 -6v-399h397q6 0 6 -6l-6 -45q0 -8 -10 -8h-387z" />
<glyph unicode="," horiz-adv-x="471" d="M125 102q0 40 31.5 73.5t77.5 33.5t80 -32t34 -78q0 -84 -45 -150t-93 -118t-54 -53t-15 4t15 34q55 68 59 134t-61 85q-29 27 -29 67z" />
<glyph unicode="-" horiz-adv-x="768" d="M717 844q0 -12 -25 -13q-221 -11 -398 -55.5t-204 -63t-36 -18.5t-3 25q21 47 39 110q3 13 23 13q350 20 579 14q25 0 25 -12z" />
<glyph unicode="." horiz-adv-x="532" d="M154 96q0 47 32.5 80t79.5 33t80 -33t33 -80t-33 -79.5t-80 -32.5t-79.5 32.5t-32.5 79.5z" />
<glyph unicode="/" horiz-adv-x="905" d="M776 1606q2 6 12 6l43 -15q4 -2 5 -8l-770 -1650q-4 -6 -13 -7l-43 15q-4 2 -4 8z" />
<glyph unicode="0" horiz-adv-x="1247" d="M987 696q0 144 -22.5 287t-69.5 257t-118 185.5t-161 71.5q-167 0 -261.5 -186.5t-94.5 -497.5t67.5 -476t139.5 -235.5t161 -70.5t153.5 49t110.5 137t70.5 211.5t24.5 267.5zM1159 764q0 -150 -37 -296t-149 -315t-374 -169q-263 0 -387 226.5t-124 555.5t147.5 553.5 t413.5 224.5t388 -227t122 -553z" />
<glyph unicode="1" horiz-adv-x="804" d="M539 221q0 -133 41 -165.5t178 -32.5q24 -1 24 -15t-24 -14l-303 6l-326 -6q-25 0 -25 14t25 15q80 0 128 4t74.5 24.5t35 59.5t8.5 127v39l1 132l1 566l-6 379q0 28 -18.5 28t-126.5 -56t-132 -66q-23 -10 -27 1t13 21q293 177 363 227q69 51 85 51t17 -34l-10 -531v-41 l1 -190z" />
<glyph unicode="2" horiz-adv-x="1046" d="M39 0q-23 0 -23 20q0 14 29 37q137 131 416.5 422.5t279.5 646.5q0 199 -82 285t-217 86t-225 -96.5t-90 -233.5q0 -25 -12 -24q-14 0 -15 20q-4 80 -6 138.5t-8 113.5q-2 14 20 31q165 98 380 98q214 0 325 -108.5t111 -294.5q0 -248 -196.5 -475t-327 -347t-201.5 -186 q-14 -10 2 -10h135q437 0 520 35q77 30 107 176q6 24 16 24t11 -7t1 -25t-7 -57.5t-16.5 -80.5t-17.5 -76.5t-15 -64.5t-27.5 -38t-80.5 -9h-786z" />
<glyph unicode="3" horiz-adv-x="1017" d="M338 842q0 16 36 24q119 26 227 105t108 227q0 184 -89.5 241.5t-201.5 57.5t-190 -73.5t-78 -209.5q0 -25 -13 -24q-14 0 -15 30t-2 58.5t-3 53t-4 46t-4 43.5t20 39q135 84 346 84t306.5 -95t95.5 -221t-101 -207.5t-268 -143.5q-4 -2 -4 -4.5t35 -4.5t110.5 -26.5 t183 -104.5t107.5 -282t-163 -336.5t-389 -134.5t-322 67q-18 12 -18 37q-2 119 11 246q4 39 15 39t15 -44q10 -121 84 -207.5t227 -86.5t260.5 104t107.5 291t-100.5 266.5t-170 102t-114.5 25.5q-45 2 -45 18z" />
<glyph unicode="4" horiz-adv-x="1198" d="M717 571l2 746h-4q-86 -111 -163 -208t-208.5 -265.5t-216.5 -272.5h590zM546 23q106 0 138.5 33t32.5 165v240h-686q-35 0 -35 19t16 39t47 61t83.5 105.5t118 146t135 170t138 174.5t125 158.5t96.5 123.5t60 77t41 26t21 -9v-28l-1 -72l-1 -161v-256l2 -464h145 q41 0 62.5 17.5t31.5 17.5t7 -20t-12 -45t-17 -64q-4 -16 -27 -16h-188v-240q0 -129 38 -163.5t144 -34.5q24 -1 24 -15t-24 -14l-67 2l-464 -2q-25 0 -24 14q0 15 40 15z" />
<glyph unicode="5" horiz-adv-x="974" d="M78 373q12 0 12 -25q4 -143 67.5 -228t212.5 -85t259 118.5t110 309.5q0 135 -55 228t-172.5 175.5t-321.5 87.5q-27 0 -26 19l49 557q0 6 10 6h494q86 0 126 5t46 5t6 -10l-27 -250q0 -25 -16 -24q-14 0 -14 24q4 66 -32 98.5t-124 34.5l-422 11l-31 -363 q272 -9 409.5 -107t198 -201t60.5 -223q0 -227 -155.5 -389.5t-395.5 -162.5q-178 0 -278 67q-18 12 -18 37t0.5 62.5t2.5 75.5t5 71l5 55q3 22 15 21z" />
<glyph unicode="6" horiz-adv-x="1118" d="M649 924q82 0 158 -35t154.5 -126.5t78.5 -285.5t-139 -343.5t-357 -149.5q-225 0 -356 154.5t-131 442.5t214.5 574.5t514.5 409.5q33 14 36.5 -0.5t-19.5 -28.5q-345 -203 -448 -440.5t-122 -393.5q153 222 416 222zM774 729q-100 115 -223 115q-90 0 -176 -58.5 t-146 -144.5q-8 -90 8.5 -196.5t57.5 -197.5t111 -152.5t150 -61.5t134.5 27.5t119 106t64.5 263.5q0 184 -100 299z" />
<glyph unicode="7" horiz-adv-x="950" d="M944 1536q30 0 12 -31q-56 -89 -256 -511t-260 -832q-4 -33 -2 -50.5t-6 -31.5q-15 -27 -111 -82.5t-98 -5.5q0 82 172.5 511t456.5 916l-516 -6q-145 0 -185 -23.5t-57.5 -61.5t-22.5 -83t-19.5 -45t-12.5 29q4 29 9 75t10 91t9.5 80.5t4.5 44.5q0 29 20 28q10 0 52 -6 t143 -6h657z" />
<glyph unicode="8" horiz-adv-x="1112" d="M829 1227q0 186 -103 228t-167 42q-124 0 -191 -85t-67 -193q0 -144 131 -221.5t195 -110.5q202 126 202 340zM879 376q0 75 -35 137t-90.5 112.5t-125 91.5t-139.5 82q-106 -57 -179.5 -163t-73.5 -253q0 -235 119.5 -291.5t196.5 -56.5t136.5 26.5t101 71.5t65.5 106.5 t24 136.5zM884 1023.5q-91 -86.5 -225 -153.5q182 -96 246 -162.5t96.5 -134t32.5 -203t-136.5 -261t-346.5 -125.5t-341.5 99.5t-131.5 266.5q0 166 112 283t269 184q-149 88 -226 170.5t-77 215.5t107 237t293 104t302.5 -83t116.5 -217t-91 -220.5z" />
<glyph unicode="9" horiz-adv-x="1085" d="M838 956q0 209 -77.5 374t-242.5 165q-127 0 -214 -99.5t-87 -264.5t85 -282.5t224 -117.5q90 0 174 48t138 147v30zM438 655q-72 0 -145.5 35t-154.5 124.5t-81 274.5t139 320t358 135q218 0 336 -153.5t118 -443.5t-147.5 -498.5t-276.5 -316t-279 -169.5 q-33 -14 -36 0t20 29q243 136 380 362.5t165 499.5q-99 -140 -211.5 -169.5t-184.5 -29.5z" />
<glyph unicode=":" horiz-adv-x="522" d="M150 842q0 47 32.5 79.5t79.5 32.5t80 -32.5t33 -79.5t-33 -80t-80 -33t-79.5 33t-32.5 80zM150 96q0 47 32.5 80t79.5 33t80 -33t33 -80t-33 -79.5t-80 -32.5t-79.5 32.5t-32.5 79.5z" />
<glyph unicode=";" horiz-adv-x="473" d="M121 102q0 40 31.5 73.5t77.5 33.5t80 -32t34 -78q0 -84 -45 -150t-93 -118t-54.5 -53t-10.5 1q-15 8 9 37q56 70 60.5 135t-60.5 84q-29 27 -29 67zM119 842q0 47 32.5 79.5t80 32.5t80 -32.5t32.5 -79.5t-32.5 -80t-80 -33t-80 33t-32.5 80z" />
<glyph unicode="&#x3c;" horiz-adv-x="1013" d="M80 782q0 10 10 17l823 448q8 4 9 -4v-33q0 -10 -7 -12l-657 -412q-6 -4 -6 -9t6 -7l657 -412q6 -4 7 -12v-33q0 -8 -9 -4l-823 449q-10 6 -10 16v8z" />
<glyph unicode="=" horiz-adv-x="972" d="M72 545q-6 0 -6 6l6 45q0 8 10 8h846q6 0 6 -6l-6 -45q0 -8 -10 -8h-846zM72 954q-6 0 -6 7l6 45q0 8 10 8h846q6 0 6 -6l-6 -45q0 -8 -10 -9h-846z" />
<glyph unicode="&#x3e;" horiz-adv-x="997" d="M936 774q0 -10 -10 -16l-824 -449q-8 -4 -8 4v33q0 8 6 12l658 412q6 2 6 7t-6 9l-658 412q-6 2 -6 12v33q0 8 8 4l824 -448q10 -6 10 -17v-8z" />
<glyph unicode="?" horiz-adv-x="886" d="M381 358q-129 133 -129 231t79 168t213 177t134 287t-94.5 225t-171.5 45q-139 0 -217 -82t-78 -235q1 -29 -13 -29q-14 1 -15 35t-2 65t-3 55.5t-4 47t-4 44.5t2 30t38 32t121 53t199 29q206 0 304 -100t98 -236q0 -210 -213 -353t-261.5 -198t-48.5 -98q0 -79 91 -170 q14 -14 2.5 -26.5t-27.5 3.5zM223 96q0 47 33 80t80 33t80 -33t33 -80t-33 -79.5t-80 -32.5t-80 32.5t-33 79.5z" />
<glyph unicode="@" horiz-adv-x="1841" d="M1110 823q-64 35 -128 27t-112.5 -45t-87.5 -103q-61 -103 -95.5 -217t-37.5 -166q-2 -53 5.5 -74.5t31.5 -25.5q43 -7 131.5 76.5t171.5 204.5q42 62 121 323zM102 483q0 150 55.5 295.5t165 261t271.5 186t358 70.5t331.5 -54t228 -143t140.5 -201t48 -248 t-56.5 -242.5t-139.5 -171t-179 -88t-176 -12.5t-130 56.5t-44 108.5t16 101t17 67l-2 2q-123 -176 -233.5 -254t-178.5 -78q-76 0 -76 107t53 248.5t131 227.5q77 87 177.5 129t170.5 45t95.5 -2t48.5 -9l41 26q32 19 20 -10q-160 -399 -174 -635q0 -53 38 -77.5 t135.5 -19.5t221 133t123.5 365t-170.5 411.5t-472.5 174.5q-170 0 -301 -66.5t-219 -174t-133 -240t-45 -284.5t54.5 -284t196 -272.5t425.5 -140.5q90 0 194.5 25.5t190.5 74.5q20 12 30.5 2t-12.5 -26q-214 -127 -476 -127q-134 0 -274.5 51t-312.5 205.5t-172 486.5z " />
<glyph unicode="A" d="M940 659q14 0 8 15l-223 616q-6 20 -14 -2l-203 -614q-6 -14 8 -15h424zM16 8q0 14 36 14t68 15.5t55.5 41t38.5 61.5t32 79l467 1278q20 63 43 64q14 0 23 -15.5t22 -48.5l477 -1235q53 -135 99.5 -187t131.5 -52q27 0 27 -14.5t-25 -14.5l-243 6l-201 -6q-25 0 -25 14 t37 14t58.5 27t-7.5 111l-155 436q-4 10 -19 10h-458q-12 0 -17 -12l-123 -375q-31 -89 -24.5 -125.5t28 -53.5t58.5 -17q37 -1 37 -15t-27 -14l-197 6l-192 -6q-25 0 -25 14z" />
<glyph unicode="B" horiz-adv-x="1173" d="M762 1167q0 133 -70.5 231.5t-212.5 98.5q-72 0 -108 -12q-16 -6 -17 -25v-559q1 -16 10 -20t47.5 -7.5t56.5 -3.5h95q199 70 199 297zM457 823h-51q-50 0 -52 -18v-516q0 -177 24 -204q24 -28 60 -37t100 -9q150 0 250.5 90.5t100.5 283.5q0 194 -115 302t-317 108z M913 1210q0 -129 -72.5 -213t-185.5 -131q281 -30 350.5 -169t69.5 -239q0 -205 -134 -335.5t-409 -130.5l-251 8l-209 -6q-25 0 -25 14t34 15q68 0 90 53t22 145l1 143l-1 979q0 91 -23 127t-129 43q-25 0 -25 14.5t25 14.5l60 -2l397 4q169 0 292 -79.5t123 -254.5z" />
<glyph unicode="C" horiz-adv-x="1470" d="M1352.5 1500q7.5 5 14 17.5t17.5 12.5q10 0 -3 -141.5t-13 -251.5q0 -25 -14.5 -25t-14.5 25q0 175 -124.5 267.5t-303.5 92.5q-180 0 -294.5 -55.5t-189.5 -148.5t-109.5 -217t-34.5 -270t44 -283.5t177 -298.5t430 -161q139 0 246.5 57.5t199.5 182.5q10 16 24.5 15 t4.5 -29q-175 -305 -565 -305q-327 0 -536.5 211.5t-209.5 556.5q0 180 60.5 327.5t226.5 306t512 158.5q95 0 228 -24.5t176 -24.5q44 0 51.5 5z" />
<glyph unicode="D" horiz-adv-x="1648" d="M1393 731q0 379 -221 571.5t-619 192.5q-101 0 -170 -12q-25 -7 -25 -33v-55l-2 -559l2 -564q0 -123 24 -160q47 -71 254 -71q393 0 575 179.5t182 510.5zM47 8q0 14 34 15q68 0 90 53t22 145l1 143l-1 979q0 91 -23 127t-129 43q-25 0 -25 14.5t25 14.5l240 -6l331 8 q432 0 695.5 -174.5t263.5 -578.5q0 -370 -229 -584.5t-646 -214.5l-415 8l-209 -6q-25 0 -25 14z" />
<glyph unicode="E" horiz-adv-x="1103" d="M997 254q6 25 18 25q11 1 11 -15q0 -36 -10 -115.5t-17 -109.5q-8 -29 -28.5 -38t-79.5 -9l-610 8l-209 -6q-25 0 -25 14t34 15q68 0 90 53t22 145l1 143l-1 979q0 91 -23 127t-129 43q-25 0 -25 14.5t25 14.5l240 -6h285q285 0 372 12q10 2 17.5 14.5t18.5 9.5t-3 -64 q-15 -62 -23 -201q0 -25 -15 -25t-15 26t-13 87q-10 39 -75.5 57t-172.5 25l-288 6q-12 0 -13 -21v-604q0 -16 9 -16h221q221 0 264.5 17.5t58.5 38.5q14 21 23 22q12 0 10 -17q-24 -142 -24 -264q0 -25 -14 -25t-15 25q0 70 -24.5 103.5t-87.5 39.5t-105 6h-179 q-137 0 -137 -10v-334q0 -334 18 -358t64 -29.5t115 -5.5l139 -1q139 0 189 20q93 36 116 184z" />
<glyph unicode="F" horiz-adv-x="1005" d="M47 8q0 14 34 15q68 0 90 53t22 145l1 143l-1 979q0 91 -23 127t-129 43q-25 0 -25 14.5t25 14.5l240 -6h261q260 0 347 12q10 2 17 14.5t19 10.5t-3 -65q-15 -62 -23 -201q0 -25 -15 -25t-16 29t-12 84q-18 69 -174 79q-66 4 -137.5 5.5t-111.5 2.5t-64 1q-12 0 -13 -21 v-604q0 -16 9 -16q70 0 225 6t193.5 19.5t52.5 32.5t22 20q12 0 10 -17q-24 -142 -24 -264q0 -25 -14 -25t-15 25q0 130 -137 143q-60 6 -90 6h-131q-101 0 -101 -10v-330q0 -331 16 -360q16 -28 36 -39.5t44.5 -17.5t50 -7t50.5 -1q25 -1 25 -15t-25 -14l-272 6l-209 -6 q-25 0 -25 14z" />
<glyph unicode="G" horiz-adv-x="1660" d="M1457 1525q1 5 12 5t-2 -131.5t-13 -239.5q0 -25 -14.5 -24.5t-14.5 24.5q0 159 -136.5 248.5t-354.5 89.5q-458 0 -558 -254t-100 -442q0 -361 190.5 -556.5t481.5 -195.5q199 0 346 84q18 8 19 31v338q0 55 -2 91t-23.5 67.5t-136.5 31.5q-25 0 -25 14t25 15l246 -6 l202 6q25 -1 25 -15t-34 -14q-72 0 -92.5 -38t-20.5 -152v-346q0 -16 -19 -27q-106 -70 -247.5 -103.5t-284.5 -33.5t-291 39t-267.5 130t-194.5 240.5t-75 367.5q0 401 243.5 588t600.5 187q119 0 278 -24.5t184 -24.5q26 0 35 5t13 12.5t5 12.5z" />
<glyph unicode="H" horiz-adv-x="1642" d="M1436 1318v-1097q0 -114 24 -156t131 -42q25 -1 25 -15t-25 -14l-59 2l-402 -2q-25 0 -24 14q0 15 36 15q77 0 101.5 45t24.5 139v41v151l2 379q0 12 -10 13h-891q-10 0 -11 -13v-34v-135l2 -388q0 -113 29.5 -155.5t142.5 -42.5q25 -1 25 -15t-25 -14l-256 6 q-33 0 -57 -1l-48 -2t-47.5 -2t-49.5 -1t-27 14q0 14 34 15q68 0 90 53t22 145l1 143l-1 979q0 91 -23 127t-129 43q-25 0 -25 14.5t25 14.5l59 -2l387 2q25 0 25 -14.5t-36 -15.5q-73 -2 -94.5 -40.5t-22.5 -143.5q-1 -106 -1 -138v-332q0 -10 11 -10h891q10 0 10 10v250 q0 251 -4 292.5t-26.5 75t-115.5 37.5q-25 0 -24.5 14.5t24.5 14.5l57 -2l390 2q25 0 24 -14.5t-39 -15.5q-82 -2 -101 -38t-19 -156z" />
<glyph unicode="I" horiz-adv-x="552" d="M512 1527.5q0 -14.5 -36 -15.5q-71 -2 -95.5 -41t-24.5 -156v-1094q0 -121 16.5 -149.5t47 -38.5t68.5 -10q38 -1 38 -15t-24 -14l-58 2l-389 -2q-25 0 -24 14q1 15 37 15q75 0 97.5 44.5t22.5 177.5v1098q0 100 -16 124t-46 33t-70 11t-40 16.5t25 14.5l57 -2l389 2 q25 0 25 -14.5z" />
<glyph unicode="J" horiz-adv-x="583" d="M541 1527.5q0 -14.5 -36 -15.5q-71 -2 -95.5 -41t-24.5 -156v-1094q0 -405 -157.5 -543.5t-307.5 -171.5q-23 -4 -24 7q-4 14 16 20q259 65 282 295.5t23 390.5v1124q0 100 -16.5 124t-46 33t-69.5 11t-40 16.5t25 14.5l58 -2l388 2q25 0 25 -14.5z" />
<glyph unicode="K" horiz-adv-x="1325" d="M903 1477q0 36 -76 36q-31 0 -30.5 14.5t24.5 14.5l232 -6l170 6q25 0 25 -14.5t-34 -14.5q-76 0 -164.5 -55.5t-160.5 -136.5l-408 -449q20 -23 61.5 -68.5t93.5 -105t109.5 -124t128 -145.5t123.5 -137q52 -56 136.5 -150t148.5 -106.5t86 -12.5q22 -1 23 -15 q0 -14 -25 -14l-217 6l-236 -6q-25 0 -24 14q0 15 48 15t45.5 22.5t-40.5 66.5t-119.5 136t-164.5 187t-158.5 180t-124.5 141l-17 -19v-31v-125l2 -360q0 -113 29.5 -155.5t142.5 -42.5q25 -1 25 -15t-25 -14l-256 6q-33 0 -57 -1l-48 -2t-47.5 -2t-49.5 -1t-27 14 q0 14 34 15q68 0 90 53t22 145l1 143l-1 979q0 91 -23 127t-129 43q-25 0 -25 14.5t25 14.5l59 -2l387 2q25 0 25 -14.5t-36 -15.5q-73 -2 -94.5 -40.5t-22.5 -143.5q-1 -106 -1 -141v-372l451 506q94 108 94 156z" />
<glyph unicode="L" horiz-adv-x="1091" d="M16 1527.5q0 14.5 25 14.5l235 -6l250 6q25 0 25 -14.5t-43 -16.5q-93 -4 -120.5 -41t-27.5 -127q-4 -410 -4 -449v-410q0 -370 18 -394t64 -29.5t115 -5.5l153 -1q154 0 204 20q93 36 116 180q6 25 18 25q11 1 11 -15t-2 -42.5t-6.5 -58.5t-8.5 -63.5t-11 -60.5 t-27.5 -38t-79.5 -9l-639 8l-209 -6q-25 0 -25 14t34 15q68 0 90 53t22 145l1 143l-1 979q0 91 -23 127t-129 43q-25 0 -25 14.5z" />
<glyph unicode="M" horiz-adv-x="2031" d="M1963 23q42 -1 42 -15t-25 -14l-245 6l-217 -6q-25 0 -25 14.5t33 14.5q69 0 90.5 35t21.5 118q4 324 4 410l-2 751q0 4 -2 4t-4 -4l-606 -1247q-16 -35 -25.5 -53.5t-15.5 -30.5t-17 -12t-21.5 20.5t-100.5 198.5t-238.5 486.5t-229.5 476.5t-84 170t-3 -480t10 -648 t48 -180.5t76 -14.5q38 -1 38 -15t-25 -14l-198 6l-201 -6q-25 0 -25 14t35 15q76 0 102.5 41.5t26.5 134.5q23 900 23 1185q0 66 -35 97.5t-115 31.5q-24 1 -24 15t24 14q86 0 171 -6t173 -2q23 -51 68 -143.5t100.5 -208t119 -244.5t146 -299.5t185.5 -376.5l626 1272 q94 -4 169 2t147 6q25 0 24.5 -14.5t-24.5 -14.5q-80 0 -113 -25.5t-33 -91.5v-278q0 -279 4 -596t7.5 -361t19 -75t47 -47t73.5 -16z" />
<glyph unicode="N" horiz-adv-x="1720" d="M1694 1528q0 -14 -36 -14q-79 -1 -106.5 -37t-27.5 -152l-4 -1229q0 -76 -5.5 -96t-21.5 -20t-94 88t-150.5 174t-203.5 239.5t-223 259.5q-93 107 -180 204t-160.5 180t-130 144.5t-81.5 90.5l29 -1073q2 -66 5 -115t26.5 -99t142.5 -50q25 -1 25 -15t-25 -14l-227 6 l-203 -6q-25 0 -25 14t40 15q90 0 109 49t19 215l4 1097q0 78 -41 103.5t-87 25.5q-46 1 -46 15t25 14q82 0 161 -6t167 -2q218 -288 425 -527q208 -239 282.5 -323t141 -157.5t123 -135t95.5 -104.5l-25 1022q-4 126 -24.5 155t-54.5 39t-76 10q-42 1 -42 15t25 14l229 -6 l201 6q25 0 25 -14z" />
<glyph unicode="O" horiz-adv-x="1796" d="M1507 754q0 166 -50 310t-180.5 288.5t-394.5 144.5q-265 0 -430 -173.5t-165 -509.5q0 -337 139 -496.5t256 -215t246 -55.5q208 0 393.5 147.5t185.5 559.5zM1698 778q0 -170 -57.5 -313t-164 -249.5t-259.5 -169t-349 -62.5t-343.5 71.5t-242 184t-139.5 250 t-45 268.5t46 270t142.5 254t248 188.5t341.5 73.5t337 -54t254.5 -155.5t169 -244t61.5 -312.5z" />
<glyph unicode="P" horiz-adv-x="1116" d="M901 1102q0 194 -108.5 295.5t-282.5 101.5q-14 0 -34.5 -1t-51 -2.5t-48.5 -7.5q-19 -7 -20 -40v-735q222 -23 335.5 45.5t161.5 152t48 191.5zM74 -6q-26 0 -27 14q0 14 34 15q68 0 90 53t22 145l1 143l-1 979q0 91 -23 127t-129 43q-25 0 -25 14.5t25 14.5l240 -6 l286 6q342 0 417 -142t75 -270t-63.5 -226.5t-164 -156t-226.5 -76t-249 -1.5v-276q0 -277 16 -306q16 -28 36 -39.5t44.5 -17.5t50 -7t50.5 -1q25 -1 25 -15t-25 -14l-277 6q-33 0 -57 -1l-48 -2t-47.5 -2t-49.5 -1z" />
<glyph unicode="Q" horiz-adv-x="1785" d="M928 47q87 0 170 23q-60 118 -106.5 171.5t-117.5 53.5q-126 0 -223 -180q125 -68 277 -68zM1507 733q0 364 -180.5 564t-444.5 200q-265 0 -430 -173.5t-165 -496.5q0 -248 94 -427t244 -269q54 93 126 160t181 67q143 0 204.5 -96t86.5 -141q284 170 284 612zM98 758 q0 131 46 270t142.5 254t248 188.5t341.5 73.5q369 0 595.5 -213.5t226.5 -560.5q0 -236 -116 -423t-327 -286q72 -141 134.5 -212.5t158.5 -71.5t152 55q16 16 29 10t-3 -24q-25 -43 -86 -79t-140 -36q-135 0 -216 82.5t-156 230.5q-118 -32 -251 -32q-205 0 -352.5 71.5 t-242 184t-139.5 250t-45 268.5z" />
<glyph unicode="R" horiz-adv-x="1325" d="M1038 1200q0 -158 -97 -290.5t-275 -178.5q84 -33 140 -99.5t102 -146t90 -162.5t113 -158q131 -142 255 -142q25 1 25 -13t-28 -17t-56.5 -4t-90.5 -4q-131 -6 -232 89t-206.5 298.5t-173.5 268t-108 70.5q-79 12 -131 12q-10 0 -11 -12v-31v-119l2 -340q0 -49 3 -86 t30 -74.5t139 -37.5q25 -1 25 -15t-25 -14l-252 6q-33 0 -57 -1l-48 -2t-47.5 -2t-49.5 -1t-27 14q0 14 34 15q68 0 90 53t22 145l1 143l-1 979q0 91 -23 127t-129 43q-25 0 -25 14.5t25 14.5l240 -6l249 8q336 0 422 -131t86 -213zM354 799q0 -35 163 -29.5t215 43.5 q52 39 94 115.5t42 187.5q0 188 -95 284.5t-261 96.5q-93 0 -141 -12q-16 -6 -17 -25v-661z" />
<glyph unicode="S" horiz-adv-x="1038" d="M854 1257q0 125 -86.5 181.5t-188.5 56.5q-173 0 -249 -77t-76 -165t52 -150.5t131 -119.5t170 -114.5t222.5 -171.5t131.5 -313t-137.5 -299.5t-323.5 -100.5q-120 0 -198.5 23.5t-109 33.5t-44.5 10t-20.5 -5t-9.5 -12t-6.5 -12.5t-13.5 -5.5t-10 16q0 21 8 144t8 199 q0 25 14.5 25t14.5 -25q0 -150 90 -244t254 -94q165 0 251.5 88.5t86.5 194.5t-51 175.5t-129 128t-167 113t-218 157t-129 273.5t121.5 274t312.5 103q98 0 169 -19.5t105 -19.5t37.5 12.5t15.5 12.5t11 -21l-10 -252q0 -25 -14.5 -24.5t-14.5 24.5z" />
<glyph unicode="T" horiz-adv-x="1380" d="M49 1561.5q0 7.5 9 8.5t15.5 -8.5t26.5 -14.5t87 -8t153 -4t178 0t172 1t307 -2.5t293 16.5q10 2 16.5 11.5t15.5 8.5t9 -8.5t-9 -63.5t-1 -189q2 -25 -12 -25q-13 -2 -17 16q-15 77 -22 97q-14 39 -79 56t-171 24l-246 6v-1262q0 -119 19.5 -148.5t50 -39.5t69.5 -10 q39 -1 39 -15t-24 -14l-60 2l-399 -2q-25 0 -25 14t37 15q76 0 100.5 46t24.5 177v1237l-246 -6q-106 -6 -170.5 -23.5t-76.5 -51.5t-20 -77q-7 -43 -21 -41q-16 0 -13 25q7 130 -2 187q-8 58 -8 65.5z" />
<glyph unicode="U" horiz-adv-x="1576" d="M1550 1528q0 -14 -36 -14q-80 -1 -107 -38t-27 -151v-643q0 -482 -207.5 -590t-367.5 -108q-302 0 -447 180.5t-145 503.5v675q0 93 -23.5 128t-128.5 42q-25 0 -24.5 14.5t24.5 14.5l59 -2l388 2q25 0 24.5 -14.5t-36.5 -15.5q-72 -2 -93.5 -39.5t-21.5 -95.5v-19 l-1 -81l-1 -597q0 -466 169 -554.5t301 -88.5q249 0 347 173.5t98 461.5l-2 637q0 124 -22.5 154t-56 40t-75.5 10t-42 15q0 14 24 14l217 -6l189 6q24 0 24 -14z" />
<glyph unicode="V" horiz-adv-x="1624" d="M541 1528q0 -14 -73.5 -15.5t-27.5 -136.5l426 -1134q6 -20 15 2l372 1073q30 88 22.5 125t-30 54t-59.5 17q-37 1 -37 15t27 14l202 -6l197 6q24 0 24 -14q1 -14 -35 -14q-76 -1 -118.5 -49.5t-79.5 -147.5l-487 -1278q-23 -64 -43 -64q-14 0 -23.5 15.5t-21.5 48.5 l-498 1235q-47 121 -98.5 180t-143.5 59q-27 0 -26.5 14.5t24.5 14.5l254 -6l213 6q25 0 25 -14z" />
<glyph unicode="W" horiz-adv-x="2383" d="M537 1528q0 -14 -41.5 -15t-63.5 -31.5t4 -105.5l309 -1089q6 -20 15 2l446 1222q14 47 31 48q18 0 31 -48l370 -1224q6 -20 15 2l360 1028q30 88 22.5 125t-30.5 54t-59 17q-36 1 -37 15q0 14 26 14l203 -6l197 6q24 0 24 -14q1 -14 -35 -14q-76 -1 -118.5 -49.5 t-79.5 -147.5l-475 -1278q-23 -64 -43 -64q-25 0 -45 64l-371 1186l-428 -1186q-23 -64 -43 -64q-25 0 -45 64l-387 1235q-39 132 -74 171.5t-73 53.5t-80 14t-42 14.5t25 14.5l254 -6l213 6q25 0 25 -14z" />
<glyph unicode="X" horiz-adv-x="1503" d="M435 23q34 -1 34 -15t-27 -14l-194 6l-197 -6q-24 0 -24 14q-1 14 35 14q75 1 147 61.5t477 684.5q-72 119 -149 246t-137 222q-107 167 -162 222t-144 55q-27 0 -26.5 14.5t24.5 14.5l254 -6l219 6q25 0 25 -14t-42 -15t-60.5 -30.5t22.5 -106.5q105 -199 264 -471 q120 183 169.5 265.5t66 109t29.5 50.5q45 81 49.5 132t-82.5 51q-27 1 -27 15t27 14l178 -6l196 6q25 0 25 -14t-36 -14q-73 -1 -120.5 -45t-113.5 -152l-314 -494q407 -667 474.5 -733.5t154.5 -66.5q27 0 27 -14.5t-25 -14.5l-244 6l-215 -6q-25 0 -24 12q0 16 24 17 q59 0 72.5 26.5t-31.5 110.5q-159 284 -301 526l-295 -467q-122 -196 -3 -196z" />
<glyph unicode="Y" horiz-adv-x="1546" d="M1100 1528q0 14 26 14l164 -6l197 6q24 0 24 -14q1 -14 -35 -14q-75 -1 -135.5 -55.5t-214.5 -313t-272 -469.5v-455q0 -119 19.5 -148.5t50 -39.5t69.5 -10q39 -1 39 -15t-24 -14l-60 2l-399 -2q-25 0 -25 14t37 15q76 0 100.5 46t24.5 149v439q-88 153 -174 295 t-131 217.5t-74 119.5q-85 129 -132 176.5t-132 47.5q-27 0 -27 14.5t25 14.5l217 -6l205 6q25 0 24 -12q-1 -16 -37 -16t-52.5 -29t28.5 -105t86 -148.5t85 -149t92 -160.5t106 -181q8 -16 16 0q93 166 164.5 289.5t159.5 284.5q51 104 59 151t-68 47q-26 1 -26 15z" />
<glyph unicode="Z" horiz-adv-x="1388" d="M137 0q-33 0 -26.5 17t61.5 95q155 219 413.5 620.5t467.5 744.5q-340 4 -522.5 -10.5t-212.5 -26.5q-48 -19 -86.5 -76.5t-47.5 -99.5q-8 -41 -11 -45.5t-12 -4.5t-9 16t4 50.5t11 98t19 141.5q3 26 14 26l99 -6q234 -4 291 -4h657q39 0 19 -31q-666 -999 -942 -1450 h538q77 0 166.5 16.5t119.5 28.5t67.5 69.5t46.5 98.5q8 41 11 45t12 4t9 -15q0 -33 -12 -129.5t-20 -129.5t-29 -42t-80 -9l-850 8h-166z" />
<glyph unicode="[" horiz-adv-x="665" d="M231 1408q0 67 -4 259h320q6 0 6 -6l-4 -25q0 -8 -10 -8h-172q-2 -100 -2 -136v-302q0 -266 -1.5 -439t0 -336t1.5 -308.5t2 -251.5h180q6 0 6 -7l-4 -24q0 -8 -10 -8h-312l1 234z" />
<glyph unicode="\" horiz-adv-x="837" d="M854 -45q0 -6 -4 -8l-43 -15q-10 0 -12 7l-770 1650q0 6 4 8l43 15q8 0 12 -6z" />
<glyph unicode="]" horiz-adv-x="665" d="M424 1408v-248l1 -710q1 -530 3 -634h-319q-6 0 -7 6l4 24q0 8 11 9h170l1 224l2 787q1 562 -3 762h-178q-6 0 -7 6l4 25q0 8 11 8h311q-4 -192 -4 -259z" />
<glyph unicode="^" horiz-adv-x="905" d="M485 1694q10 0 17 -11l354 -710q4 -8 -4 -8h-33q-10 0 -12 6l-346 575q-4 6 -9 6t-8 -6l-346 -575q-4 -6 -12 -6h-33q-8 0 -4 8l354 710q6 10 17 11h65z" />
<glyph unicode="_" horiz-adv-x="784" d="M-43 -264q-6 0 -6 6l6 45q0 8 10 8h846q6 0 6 -6l-6 -45q0 -8 -10 -8h-846z" />
<glyph unicode="`" horiz-adv-x="550" d="M63 1423q-9 9 7 17q77 25 155 -21q10 -6 17 -14l145 -328q2 -6 -17.5 -7t-25.5 7z" />
<glyph unicode="a" horiz-adv-x="935" d="M326 57q51 0 116.5 24.5t116.5 70.5q23 17 23 53v268q-43 -16 -105.5 -39.5t-161 -85t-98.5 -176.5t109 -115zM104 708q0 101 106.5 173.5t249.5 72.5q142 0 211.5 -61.5t69.5 -153.5v-389q0 -164 10.5 -206t29 -62.5t50.5 -20.5t58 15t26 -8q0 -12 -18 -25 q-92 -59 -186 -59q-113 0 -119 137q0 8 -8 4q-29 -20 -115.5 -80.5t-220.5 -60.5q-94 0 -146.5 44t-52.5 125t50.5 134t122 91t151.5 63.5t131 42.5t65.5 26.5t14.5 30.5q0 227 -17.5 279t-46 70.5t-72.5 18.5q-79 0 -137.5 -44t-58.5 -122q0 -27 5 -37t-7 -18 q-57 -33 -101 -33q-45 1 -45 53z" />
<glyph unicode="b" horiz-adv-x="1077" d="M734 772.5q-87 108.5 -205 108.5q-117 0 -189 -51.5t-74 -81.5v-539q0 -94 65 -139t143 -45q79 0 140.5 32.5t134 126.5t72.5 287t-87 301.5zM620 954q74 0 145 -34.5t146.5 -126t75.5 -275.5q0 -227 -112.5 -339.5t-209 -152.5t-202.5 -40q-164 0 -297 88q-3 -6 -27 -31 t-36.5 -35t-18.5 -10t-6 8t14 87t14 272v429q0 428 -4 493t-26.5 94.5t-67.5 31.5t-45 16q-1 14 47 21q48 6 119 30t97 46t35 22t9 -10v-16l-1 -181l-3 -524q74 82 177 109.5t177 27.5z" />
<glyph unicode="c" horiz-adv-x="942" d="M848 754q0 -82 -45.5 -88.5t-108.5 26.5q-6 4 1 24t7 66t-43 86.5t-123 40.5q-150 0 -236.5 -121t-86.5 -313q0 -191 98.5 -300t242.5 -109t261 94q25 18 36 7.5t-15 -36.5q-147 -147 -342 -147t-320 122.5t-125 338.5t145.5 362.5t348.5 146.5q202 0 253.5 -75.5 t51.5 -124.5z" />
<glyph unicode="d" horiz-adv-x="1110" d="M529 907q-318 0 -318 -422q0 -302 104.5 -367t181.5 -65q136 0 251 105q16 14 19 23t3 28v588q-27 47 -96.5 78.5t-144.5 31.5zM920 1548q10 0 10 -14v-1309q0 -39 2 -64.5t20.5 -47t114.5 -21.5q10 0 17.5 -1t7.5 -11t-7.5 -12t-83.5 -15t-198 -65q-31 -14 -31 18l8 115 q0 14 -12 2q-82 -78 -154 -108.5t-169 -30.5q-183 0 -291.5 127t-108.5 345t140 358t339 140q133 0 246 -63v149l-2 207q-4 94 -29 129t-71 37t-46 16q0 15 48 21q47 6 117.5 30t96.5 46t36 22z" />
<glyph unicode="e" horiz-adv-x="937" d="M292.5 817.5q-66.5 -91.5 -83.5 -221.5l426 16q29 2 34 10t9 36t-7.5 76t-53 111.5t-149.5 63.5q-109 0 -175.5 -91.5zM205 520q0 -184 95 -324.5t271 -140.5q137 0 254 88q16 12 29 0t-6 -24q-146 -135 -345 -135t-325.5 120t-126.5 340t127.5 365t321.5 145 q159 0 248 -97.5t98 -240.5q3 -43 -31 -43q-203 0 -610 -22v-31z" />
<glyph unicode="f" horiz-adv-x="651" d="M176 301v584h-135q-18 0 -14 14q6 30 24 31q76 0 100.5 24.5t29.5 98.5q5 75 34 168.5t114.5 214t282.5 120.5q61 0 108.5 -23.5t47.5 -61.5t-37 -59t-78 -26q-10 0 -12 9q-27 104 -127 104q-58 0 -97.5 -44t-60 -118.5t-20.5 -242.5v-152h282q23 0 19 -16l-6 -25 q-4 -16 -29 -16h-266v-584q0 -170 17.5 -210t46 -53t65.5 -13q37 1 37 -15t-25 -16l-217 6l-205 -6q-25 0 -24 14q1 16 35 16q78 1 94 43.5t16 233.5z" />
<glyph unicode="g" horiz-adv-x="1046" d="M312 361.5q56 -115.5 168 -115.5q113 0 165.5 89t52.5 224q0 232 -83 293t-144 61t-101 -27.5t-77 -90t-37 -190.5t56 -243.5zM556 -115q-87 0 -214 17q-85 -63 -134.5 -121t-49.5 -119q0 -113 116 -164t256 -51q242 0 298.5 91t56.5 170t-49 125t-168 50q-25 2 -112 2z M729 868q127 -110 127 -276q0 -165 -113 -276t-266 -111q-70 0 -117 14q-37 -16 -70.5 -48t-33.5 -66t25.5 -48t77 -24t153.5 -10q103 0 287 -13t184 -264q0 -144 -163.5 -257.5t-367.5 -113.5q-203 0 -317.5 82.5t-114.5 181.5q0 98 121 171t164 98q-190 38 -190 133 q0 76 88 126t119 69q-96 39 -159 124.5t-63 195.5q0 194 110.5 296t253.5 102t230 -59q82 70 172 70q49 0 84 -26t35 -74t-33.5 -69.5t-74.5 -11.5q-12 0 -9 9q18 59 -2 81.5t-58 22.5t-79 -29z" />
<glyph unicode="h" horiz-adv-x="1140" d="M674 954q276 0 276 -366v-326q0 -158 14.5 -188.5t42 -40.5t65.5 -10q38 -1 38 -15t-25 -14l-215 6l-182 -6q-25 0 -24 14q0 15 30 15q65 0 81 38.5t17 159.5t-3 274q-3 154 -19.5 265.5t-169.5 111.5q-141 0 -228 -88.5t-87 -115.5v-406q0 -157 14 -188t41.5 -41 t65.5 -10q38 -1 38 -15t-24 -14l-215 6l-199 -6q-25 0 -24 14q0 15 34 15q73 0 91 39t18 162v162l-4 894q-4 72 -26.5 101.5t-68.5 31.5t-44 16q0 15 47 21t118 30t97 46t36 22t9 -10v-17l-1 -198l-5 -582q174 213 391 213z" />
<glyph unicode="i" horiz-adv-x="548" d="M342 738v-476q0 -158 14.5 -188.5t42 -40.5t65.5 -10q38 -1 38 -15t-25 -14l-213 6l-205 -6q-25 0 -24 14q1 15 35 15q77 0 95.5 38.5t18.5 184.5v202q0 203 -4 268t-26.5 94.5t-67.5 31.5t-45 16q-1 14 47 20q121 17 234 78q4 2 7 4t10 2t7 -14q-4 -172 -4 -210z M342 1235q0 -43 -35 -76t-77 -33t-75.5 33t-33.5 76t33.5 77t76.5 34t77 -34t34 -77z" />
<glyph unicode="j" horiz-adv-x="548" d="M344 31q0 -562 -457 -641q-23 -4 -25 8t17 18q209 44 255 194t49 246t3 200v298q0 297 -4 362t-26.5 94.5t-67.5 31.5t-45 16q-1 14 47 20q121 17 234 78q4 2 7 4.5t10 2.5t6 -36t-1 -57v-131zM344 1235q0 -43 -35 -76t-77 -33t-75.5 33t-33.5 76t33.5 77t76.5 34t77 -34 t34 -77z" />
<glyph unicode="k" horiz-adv-x="1128" d="M651 8q0 14 46 14.5t46.5 23t-23.5 48.5q-70 76 -208 213.5t-211 204.5l-2 -2v-248q0 -158 14.5 -188.5t42 -40.5t65.5 -10q38 -1 38 -15t-25 -14l-215 6l-199 -6q-25 0 -24 14q0 15 34 15q74 0 91.5 39t17.5 163v163l-4 892q-4 72 -26.5 101.5t-68.5 31.5t-44 16 q0 15 47 21t117.5 30t97.5 46t36 22t9 -14l-1 -170l-3 -799q118 87 185 138t111 84.5t81 65.5t12.5 49.5t-62.5 17.5t-38 14t24 14l183 -6l192 6q27 0 27 -15t-31 -15t-88 -17t-99 -41t-83 -52t-104.5 -70.5t-192.5 -137.5q151 -164 290.5 -299t178.5 -174t61 -57t64 -32.5 t72 -14.5q30 -1 30 -15t-24.5 -14t-44 1l-58.5 3t-74 2l-235 -6q-25 0 -25 14z" />
<glyph unicode="l" horiz-adv-x="512" d="M51 1413q-45 2 -45 16t48 21q48 6 118 30t96 46t36 22q9 0 9 -14l-1 -212l-3 -1060q0 -154 16.5 -186.5t44 -42.5t65.5 -10q38 -1 38 -15t-24 -14l-220 6l-206 -6q-25 0 -25 14t34 15q75 0 96.5 41t21.5 162v162l-5 892q-4 72 -26.5 101.5t-67.5 31.5z" />
<glyph unicode="m" horiz-adv-x="1783" d="M4 8q0 14 34 15q74 0 91.5 39t17.5 184v262q0 263 -25.5 295.5t-70.5 34.5t-45 16t48 20q121 17 233 78q4 2 7 4t10 2t7 -12t-1 -37.5t-2 -56.5l-2 -62t-1 -49q63 90 147 151.5t210 61.5q157 0 209.5 -81.5t66.5 -149.5q86 153 194 192t168 39q294 0 293 -366v-326 q0 -158 14.5 -188.5t42 -40.5t65.5 -10q38 -1 38 -15t-24 -14l-216 6l-182 -6q-25 0 -24 14q1 15 31 15q65 0 80.5 37t16.5 171t-2 278t-25 253.5t-177 109.5q-96 0 -173 -64.5t-110 -150.5q2 -16 2 -21v-294q0 -290 37 -304.5t75 -14.5q38 -1 38 -15t-25 -14l-205 6 l-192 -6q-25 0 -25 14t31 15q66 0 86.5 41.5t21.5 160.5t-3 273q-3 155 -23.5 264.5t-177.5 109.5q-139 0 -198.5 -78t-71.5 -94t-11 -32v-406q0 -158 14.5 -188.5t42 -40.5t65.5 -10q38 -1 38 -15t-25 -14l-215 6l-198 -6q-25 0 -25 14z" />
<glyph unicode="n" horiz-adv-x="1177" d="M306 956q3 2 11 2q9 0 4.5 -89t-4.5 -128q174 213 392 213q276 0 276 -366v-326q0 -158 14.5 -188.5t42 -40.5t65.5 -10q38 -1 38 -15t-25 -14l-215 6l-182 -6q-25 0 -25 14t31 15q65 0 80.5 37.5t15.5 214.5t-2 277t-18 210t-165 110q-148 0 -233.5 -88.5t-87.5 -115.5 v-406q0 -155 14.5 -187t42 -42t65.5 -10q38 -1 38 -15t-24 -14l-215 6l-199 -6q-25 0 -25 14t34 15q73 0 91.5 39t18.5 184v262q0 263 -25 295.5t-71 34.5t-46 15t48 20q124 17 233 79q4 2 7 4z" />
<glyph unicode="o" horiz-adv-x="1130" d="M789.5 765.5q-80.5 145.5 -243.5 145.5t-243 -129t-80 -300t83.5 -312t244.5 -141t240 121.5t79 295.5t-80.5 319.5zM896 120.5q-144 -136.5 -353 -136.5t-348.5 129t-139.5 346q0 216 137.5 355.5t351.5 139.5t355 -136.5t141 -348.5t-144 -348.5z" />
<glyph unicode="p" horiz-adv-x="1124" d="M291 668v-535q80 -104 239 -104t240.5 119.5t81.5 318.5t-71.5 304.5t-196.5 105.5q-78 0 -159 -50.5t-126 -130.5q-8 -12 -8 -28zM22 -586q76 0 93.5 43t17.5 161v50l1 192v416q1 273 -5 429q-4 74 -26.5 102.5t-68.5 30.5t-44 16q0 14 47 20q127 18 185.5 51t65.5 33 t7 -12t-1 -37.5t-2 -56.5t-2 -61.5t-1 -49.5q55 102 153.5 157.5t199.5 55.5q187 0 285.5 -122t98.5 -312q0 -235 -147 -385.5t-357 -150.5q-133 0 -231 57v-27l1 -94l1 -229q0 -172 17.5 -211t46 -52.5t65.5 -13.5t37 -15t-25 -15l-217 6l-205 -6q-25 0 -24 14q0 16 34 16z " />
<glyph unicode="q" horiz-adv-x="1081" d="M552 913q-56 0 -117.5 -29.5t-137.5 -122.5t-76 -284t89 -305.5t212 -114.5q171 0 264 119v641q-39 58 -108.5 77t-125.5 19zM55 436q0 225 157 371.5t376 146.5q160 0 299 -92q13 25 44.5 50.5t37.5 25.5t6 -8t-15.5 -78t-15.5 -359v-419q0 -418 3 -501t13.5 -111.5 t35 -38t59.5 -9.5t35 -15t-25 -15l-205 6l-217 -6q-25 0 -25 15t37 15q83 0 106 53t23 224v29v108l2 297q-130 -141 -326 -141t-300.5 134.5t-104.5 317.5z" />
<glyph unicode="r" horiz-adv-x="765" d="M0 8q0 14 34 15q74 0 91.5 39t17.5 184v262q0 263 -25.5 295.5t-70.5 34.5t-45 16t48 20q121 17 233 78q4 2 7 4t10 2t7 -12t-1 -42t-2 -66.5t-2 -71.5t-1 -53q66 111 147.5 176t169.5 65q53 0 84 -29.5t34 -64.5t-27.5 -70.5t-71.5 -41.5q-6 -2 -10 6q-8 25 -37 52.5 t-101 36t-174 -160.5q-12 -24 -12 -51v-369q0 -158 14.5 -188.5t42 -40.5t65.5 -10q38 -1 38 -15t-25 -14l-215 6l-198 -6q-25 0 -25 14z" />
<glyph unicode="s" horiz-adv-x="837" d="M698 692q0 -24 -15 -24t-15 24q-4 111 -73 164t-159 53t-150.5 -46t-60.5 -107t39 -98t97.5 -67t126 -57.5t165 -87.5t97.5 -184t-110 -201t-288 -77q-104 0 -183 31.5t-91 39.5t-12 25q0 76 -11 205q0 24 11.5 24t14.5 -7t5 -15q58 -256 297 -256q92 0 154.5 48 t62.5 119t-39 112.5t-97 73.5t-126 57.5t-126 59.5t-97 80t-39 117q0 117 97 186.5t241 69.5t272 -51q19 -10 19 -22q-7 -61 -7 -189z" />
<glyph unicode="t" horiz-adv-x="675" d="M131 248v637h-106q-25 0 -25 14t38 18q74 9 131 73.5t95 154.5q2 8 13 8t12 -14v-197h325q23 0 19 -16l-6 -25q-4 -16 -29 -16h-309v-631q0 -86 38 -142.5t140 -56.5q83 1 155 49q32 22 40 24.5t14 -3.5t3 -14.5t-17 -20.5q-46 -38 -122.5 -72t-148.5 -34 q-141 0 -200.5 67.5t-59.5 196.5z" />
<glyph unicode="u" horiz-adv-x="1130" d="M948 225q0 -39 2 -64.5t20.5 -47t114.5 -21.5q10 0 17.5 -1t7.5 -11t-7 -12t-81 -14t-201 -66q-31 -14 -30 18l8 115q0 14 -13 2q-152 -139 -353 -139t-249.5 120.5t-48.5 245.5v150q0 149 -3 214t-25.5 93.5t-68.5 30.5t-44 16q0 14 47 20q127 18 185.5 51t65.5 33 t7 -14l-6 -203v-424q0 -118 31.5 -167.5t73.5 -73t119 -23.5q134 0 249 105q22 19 22 53v494q-4 74 -26.5 102.5t-67.5 30.5t-45 16q-1 14 47 20q121 17 234 78q4 2 7 4t10 2t7 -14l-6 -203v-516z" />
<glyph unicode="v" horiz-adv-x="1167" d="M1141 934q0 -14 -35 -14q-70 0 -102.5 -41.5t-109.5 -203.5q-77 -161 -145.5 -321.5t-146.5 -330.5q-30 -71 -54.5 -33t-164.5 358t-209 436t-108 126t-68 10t-29 14t25 14l209 -6l235 6q25 0 25 -14t-38 -14q-86 0 -93 -44t43 -152t119.5 -272t115.5 -268q8 -16 15 2 q20 49 46.5 114t121.5 294t93 277.5t-75 48.5q-33 0 -33 14t25 14l168 -6l145 6q25 0 25 -14z" />
<glyph unicode="w" horiz-adv-x="1662" d="M1602 920q-73 0 -110.5 -43.5t-101.5 -203.5q-65 -159 -127.5 -312.5t-136.5 -337.5q-18 -47 -39 -48q-17 0 -43 64q-96 232 -243 655q-6 20 -15 -2l-268 -669q-18 -47 -39 -48q-16 0 -43 64t-60.5 152t-65 175t-62 167.5t-58.5 155.5q-57 149 -95.5 190t-100.5 41 q-25 0 -25 14t25 14l201 -6l223 6q25 0 24 -14q0 -14 -34 -14q-76 0 -87.5 -46.5t59.5 -257t97.5 -285.5t44.5 -128q6 -20 15 2q20 49 58 147.5t113 292t97 249.5q21 56 37 56t28 -35l260 -712q6 -20 15 2q29 70 70.5 184.5t65 175.5t45.5 127t36 113t12 72.5t-21 34 t-49 8.5t-30 14t24 14t41 -1t52 -3t67 -2l154 6q25 0 24 -14q0 -14 -34 -14z" />
<glyph unicode="x" horiz-adv-x="1067" d="M466 920q-75 0 -75 -47t94 -195l66 -105l82 105q104 135 120.5 188.5t-67.5 53.5q-24 0 -24 14t24 14l174 -6l135 6q25 0 25 -14t-31 -14t-61.5 -13.5t-61 -42t-68.5 -75t-91 -109.5l-125 -152q250 -387 313.5 -446t124.5 -59q24 -1 24 -15t-24 -14l-191 6l-223 -6 q-25 0 -24 14q0 15 34 15q73 0 71 45.5t-95 197.5l-98 152q-29 -39 -57.5 -77t-90.5 -125t-80 -140t51 -53q25 -1 25 -15t-25 -14l-167 6l-140 -6q-25 0 -24 14q0 15 30 15q63 0 120 50t329 388l-148 219q-112 160 -145 191.5t-59.5 40t-54.5 8.5t-29 14q0 14 24 14l199 -6 l223 6q25 0 25 -14t-34 -14z" />
<glyph unicode="y" horiz-adv-x="1230" d="M176 -604q-59 0 -90 29.5t-31 68.5t19.5 79.5t34.5 23.5q33 -46 101 -46q190 0 355 408q-23 45 -199 444t-238 456t-110 59q-49 2 -49 16t9 14l227 -6l215 6q35 0 35 -14t-36 -16q-82 -5 -85 -45t59 -193q10 -29 37 -88.5t76.5 -172t132.5 -288.5q27 63 60.5 145 t79.5 192t80 201t44 137t1 69.5t-36.5 32t-61.5 10.5t-34 16t33 14l196 -6l173 6q31 0 30.5 -14t-32.5 -15q-75 -2 -121.5 -45.5t-167.5 -312.5t-200 -456q-167 -396 -273.5 -552.5t-233.5 -156.5z" />
<glyph unicode="z" horiz-adv-x="940" d="M72 0q-14 0 -14 10t48 73q114 145 280.5 379t295.5 433q-299 -6 -351 -19.5t-80 -24.5t-59.5 -53t-41.5 -82t-13.5 -44t-12.5 -4t-9 15t3 38.5t7 54.5t9 64.5t9 64.5t21.5 36t150.5 3t165 -2h390q12 0 12 -10t-4 -15.5t-41 -54.5q-380 -503 -569 -807h254q124 -1 184 27 t91 69t41 81t13 44.5t12 4.5q9 1 9 -15q0 -19 -9.5 -98t-19.5 -119q-9 -39 -29.5 -48t-80.5 -9l-514 8h-147z" />
<glyph unicode="{" horiz-adv-x="776" d="M420 258q0 -78 6.5 -239.5t204.5 -161.5q25 0 24 -17q0 -14 -24 -14q-208 0 -282.5 124t-68 382t-34.5 321.5t-105 73.5q-33 6 -32.5 14.5t32.5 14.5q63 10 92 54t40.5 109.5t9.5 145.5t1.5 222.5t71 256t275.5 113.5q25 0 24 -15q0 -16 -24 -16q-198 0 -204.5 -161.5 t-6.5 -239.5t-4.5 -253.5t-196.5 -228.5v-4q192 -51 196.5 -227t4.5 -254z" />
<glyph unicode="|" horiz-adv-x="413" d="M182 1821q0 10 8 10l46 6q6 0 6 -6v-2107q0 -10 -9 -11l-45 -6q-6 0 -6 6v2108z" />
<glyph unicode="}" horiz-adv-x="770" d="M334 1225q0 78 -6.5 239.5t-204.5 161.5q-25 0 -25 15t25 16q294 0 323.5 -197t26 -336t8 -204.5t40 -109.5t91.5 -54q33 -6 33 -14.5t-33 -14.5q-63 -10 -91.5 -54t-40 -109.5t-9.5 -145.5t-1.5 -222t-71 -256t-275.5 -114q-25 0 -25 15t25 16q198 0 204.5 161.5 t6.5 239.5t4.5 254t196.5 227v4q-192 51 -196.5 227.5t-4.5 254.5z" />
<glyph unicode="~" horiz-adv-x="1071" d="M513 616.5q-185 34.5 -236 34.5q-52 0 -93 -11t-88 -69q-6 -10 -17 -3.5t-4 20.5q31 60 90 121t135 61q97 0 283 -35t236 -35t90.5 11.5t87.5 68.5q6 8 17.5 1t4.5 -19t-27.5 -43t-71 -84t-136.5 -53t-271 34.5z" />
<glyph unicode="&#xa1;" horiz-adv-x="479" d="M248 584q0 -106 37 -469.5t37 -526.5q0 -58 -115 -190q-18 -21 -43 -21q-17 -1 -17 51t5.5 148t13.5 207t30.5 387t22.5 414q0 25 14 24q15 0 15 -24zM346 842q0 -47 -32.5 -80t-80 -33t-80 33t-32.5 80t32.5 79.5t80 32.5t80 -32.5t32.5 -79.5z" />
<glyph unicode="&#xa2;" horiz-adv-x="987" d="M913 1088q0 -83 -45.5 -89.5t-107.5 27.5q-6 4 1 24t7 65q0 46 -43 84t-123 38q-151 0 -237 -128.5t-86 -318.5t98 -307.5t247 -117.5t257 88q24 18 35 7.5t-15 -36.5q-132 -132 -321 -148v-245q0 -10 -9 -11l-45 -6q-6 0 -6 6v256q-174 12 -289.5 140.5t-115.5 329.5 t115 348t290 184v235q0 10 8 11l45 6q6 0 7 -6v-238l41 2q188 0 240 -75t52 -125z" />
<glyph unicode="&#xa3;" horiz-adv-x="1198" d="M430 782h-147q-15 0 -11 22t25 23q78 0 111.5 27.5t45.5 99.5t50.5 181.5t139 265t280.5 155.5q57 0 97 -23.5t36 -61.5t-40 -59t-75 -26q-8 0 -12 27t-28.5 53.5t-61.5 26.5q-121 0 -167.5 -150t-70.5 -352l-16 -151h420q25 0 18 -17l-10 -24q-6 -16 -29 -17h-405 q-16 -126 -29 -266q-21 -134 -82 -215.5t-119 -124.5q74 27 218.5 4.5t226.5 -37t149.5 -14.5t110.5 23t43 71t-32 76.5t-77 36.5q-8 0 -6 24t23.5 60.5t59.5 40.5t61.5 -37.5t23.5 -113.5q0 -154 -99.5 -240t-267.5 -86q-72 0 -186.5 54t-171.5 80.5t-98 31.5 q-93 -100 -193 -152q-29 12 -49 51t-14 84q41 25 97 33t138 12q83 148 99 324t20 213t4 67z" />
<glyph unicode="&#xa5;" horiz-adv-x="1257" d="M399 8q0 14 37 15q76 0 100.5 46t24.5 152v141h-346q-6 0 -6 7l6 45q0 8 10 8h336v207h-346q-6 0 -6 6l6 45q0 8 10 8h328l-293 588q-75 144 -123.5 190.5t-136.5 46.5q-27 0 -27 14.5t25 14.5l217 -6l205 6q25 0 24 -12q0 -16 -41 -17t-54.5 -30t24.5 -107l297 -635 q8 -16 16 0l260 574q45 104 46.5 151t-72.5 47q-27 1 -27 15t27 14l163 -6l197 6q25 0 25 -14t-25 -15q-94 0 -153.5 -51t-102.5 -145l-295 -629h342q6 0 6 -6l-6 -45q0 -8 -10 -8h-334v-207h344q6 0 6 -6l-6 -45q0 -8 -10 -9h-334v-6l1 -27l1 -108q0 -119 19.5 -148.5 t50 -39.5t69.5 -10q39 -1 39 -15t-24 -14l-59 2l-400 -2q-25 0 -25 14z" />
<glyph unicode="&#xa6;" horiz-adv-x="413" d="M178 596q0 10 8 10l45 6q6 0 7 -6v-882q0 -10 -9 -11l-45 -6q-6 0 -6 6v883zM178 1821q0 10 8 10l45 6q6 0 7 -6v-883q0 -10 -9 -10l-45 -6q-6 0 -6 6v883z" />
<glyph unicode="&#xa7;" horiz-adv-x="985" d="M293 184q0 -87 115 -149h32q86 0 146.5 43.5t60.5 101.5q0 59 -32.5 93t-84.5 63q-10 2 -42 2q-74 0 -134.5 -44t-60.5 -110zM123 -281q0 25 13 25t18 -23q56 -249 297 -249q92 0 154.5 45t62.5 116t-39 112.5t-97.5 73t-126 57.5t-126 59.5t-97.5 79.5t-39 133t76 154 t211 83q-148 62 -227.5 122.5t-79.5 176.5t110.5 193t286.5 77q104 0 183 -31.5t91 -39.5t13 -25q0 -88 10 -205q0 -24 -12.5 -24t-18.5 22q-56 250 -297 250q-92 0 -154.5 -45t-62.5 -116t39 -112.5t97.5 -73.5t126 -57.5t126 -59.5t97.5 -80t39 -117q0 -104 -77 -170 t-210 -82q53 -25 180 -83.5t127 -213.5q0 -118 -110 -195.5t-287 -77.5q-62 0 -154 26t-112 40t-21 31q0 86 -10 204z" />
<glyph unicode="&#xa8;" horiz-adv-x="735" d="M459 1216.5q0 40.5 27.5 69.5t68.5 29t69.5 -29t28.5 -69.5t-28.5 -68.5t-69.5 -28t-68.5 28t-27.5 68.5zM80 1216.5q0 40.5 27.5 69.5t68.5 29t69.5 -29t28.5 -69.5t-28.5 -68.5t-69.5 -28t-68.5 28t-27.5 68.5z" />
<glyph unicode="&#xa9;" horiz-adv-x="1787" d="M1188 969q-12 0 -12 14q0 109 -77 159t-183 50q-192 0 -281.5 -110t-89.5 -295t98 -307t279 -122q80 0 147.5 28t128.5 103q6 10 17.5 7.5t3.5 -19.5q-104 -184 -338 -184q-199 0 -327 129.5t-128 337.5q0 209 138 341t345 132q56 0 141.5 -15.5t111.5 -15.5 q25 0 29.5 10.5t13.5 10.5t9 -13l-14 -227q0 -14 -12 -14zM164 768q0 -147 56 -277.5t153.5 -227.5t227.5 -153.5t277.5 -56.5t277.5 56.5t227.5 153.5t153.5 227.5t56 277.5t-56 277.5t-153.5 227.5t-227.5 153.5t-277.5 56.5t-277.5 -56.5t-227.5 -153.5t-153.5 -227.5 t-56 -277.5zM102 768q0 160 61.5 301t167 246.5t247 167t301 61.5t301 -61.5t247 -167t167 -246.5t61.5 -301t-61.5 -301t-167 -246.5t-247 -167t-301 -61.5t-301 61.5t-247 167t-167 246.5t-61.5 301z" />
<glyph unicode="&#xaa;" horiz-adv-x="776" d="M473 952v197q-120 -41 -205.5 -93t-85.5 -141t86 -90q41 0 94.5 23.5t94.5 58.5q16 16 16 45zM90 1345q0 83 87.5 141t200.5 58t168.5 -49t55.5 -125v-313q0 -104 9.5 -168t64.5 -64q23 0 34 5.5t21 9.5t10 -6q1 -12 -25 -32q-50 -40 -139 -40t-96 110q0 10 -4 2 q-116 -81 -174.5 -96.5t-114.5 -15.5t-98.5 36t-42.5 101t40 108.5t97.5 74t122 50t106.5 32.5t53 21.5t11 24.5q0 178 -14 221.5t-38 56.5t-72 13t-96 -30.5t-48 -96.5q0 -20 3 -28t-5 -17q-46 -26 -82 -26q-35 0 -35 42z" />
<glyph unicode="&#xab;" horiz-adv-x="1130" d="M471 762q0 10 10 16l531 314q8 4 8 -5v-32q0 -10 -6 -13l-365 -276q-6 -4 -6 -9t6 -7l365 -277q6 -4 6 -12v-33q0 -8 -8 -4l-531 313q-10 6 -10 17v8zM90 762q0 10 10 16l531 314q8 4 8 -5v-32q0 -10 -6 -13l-365 -276q-6 -4 -6 -9t6 -7l365 -277q6 -4 6 -12v-33 q0 -8 -8 -4l-531 313q-10 6 -10 17v8z" />
<glyph unicode="&#xac;" horiz-adv-x="948" d="M846 750h-803q-6 0 -6 6l6 45q0 8 10 8h846q6 0 6 -6v-361q0 -10 -8 -10l-45 -6q-6 0 -6 6v318z" />
<glyph unicode="&#xad;" horiz-adv-x="768" d="M717 844q0 -12 -25 -13q-221 -11 -398 -55.5t-204 -63t-36 -18.5t-3 25q21 47 39 110q3 13 23 13q350 20 579 14q25 0 25 -12z" />
<glyph unicode="&#xae;" horiz-adv-x="645" d="M362 1380q0 61 -59 62l-22 -2q-4 0 -5 -4v-109q0 -2 3 -4l27 -1q28 -1 42 10t14 48zM242 1417q0 29 -18 29q-12 0 -11.5 4t4.5 4l41 -2l49 4q29 0 59.5 -14.5t30.5 -42.5t-16 -53t-51 -33q31 -10 45 -41.5t37 -55.5t33 -24t10 -5t-29 -5t-43.5 17.5t-28.5 38.5t-27.5 44 t-31.5 27l-16 2l-3 -2l3 -82q0 -16 3 -25.5t25 -9.5l4 -2q0 -4 -4 -4h-86q-2 0 -2 3q-1 3 11 3t12 35v190zM121 1320q0 -85 58.5 -143.5t143.5 -58.5t143 58.5t58 143.5t-58 143.5t-143 58.5t-143.5 -58.5t-58.5 -143.5zM164.5 1479q66.5 65 158.5 65q93 0 158.5 -65.5 t65.5 -158.5t-64.5 -158.5t-159.5 -65.5q-94 0 -159.5 65.5t-65.5 158.5q0 94 66.5 159z" />
<glyph unicode="&#xaf;" horiz-adv-x="968" d="M205 1126q-6 0 -6 7l6 45q0 8 10 8h516q6 0 6 -6l-6 -45q0 -8 -10 -9h-516z" />
<glyph unicode="&#xb0;" horiz-adv-x="593" d="M119 1243q0 -49 19.5 -93t51 -76t75.5 -51t93.5 -19t93.5 19t75.5 51t51 76t19.5 93t-19.5 93t-51 76t-75.5 51.5t-93.5 19.5t-93.5 -19.5t-75.5 -51.5t-51 -76t-19.5 -93zM57 1243.5q0 61.5 23.5 116.5t64.5 96t96.5 64.5t117 23.5t116.5 -23.5t96 -64.5t64.5 -96 t23.5 -116.5t-23.5 -117t-64.5 -96.5t-96 -64.5t-116.5 -23.5t-117 23.5t-96.5 64.5t-64.5 96.5t-23.5 117z" />
<glyph unicode="&#xb1;" horiz-adv-x="1001" d="M53 0q-6 0 -6 6l6 45q0 8 10 8h846q6 0 6 -6l-6 -45q0 -8 -10 -8h-846zM512 750v-388q0 -10 -8 -10l-45 -6q-6 0 -6 6v398h-400q-6 0 -6 6l6 45q0 8 10 8h390v389q0 10 8 10l45 6q6 0 6 -6v-399h397q6 0 6 -6l-6 -45q0 -8 -10 -8h-387z" />
<glyph unicode="&#xb2;" horiz-adv-x="729" d="M504 1251q0 252 -203 252q-92 0 -149.5 -64.5t-57.5 -158.5q0 -16 -11 -16t-11 14q-2 55 -3 96t-6 80q-5 25 89 57.5t170 32.5q154 0 228.5 -76t74.5 -190t-47.5 -209.5t-119 -184.5t-155.5 -171t-156 -152q-6 -8 3 -8h190q190 0 241 25q50 25 66 118q6 18 15 19 q10 1 10 -17t-5 -45.5t-11.5 -57.5t-12.5 -54.5t-10 -44.5t-18.5 -26.5t-55.5 -6.5h-526q-17 0 -17 10q0 11 56 67q189 189 310.5 364.5t121.5 346.5z" />
<glyph unicode="&#xb3;" horiz-adv-x="727" d="M47 522q0 201 15.5 201t15.5 -16q6 -90 53 -150.5t153 -60.5t178.5 67.5t72.5 198.5t-81 198t-186 78q-23 2 -22.5 14.5t24.5 18.5q83 21 153.5 74t70.5 167t-59.5 151.5t-134.5 37.5t-128 -47t-53 -141q0 -16 -10.5 -16.5t-12.5 34.5t-3 63.5t-5 67.5q-2 10 24 28t86 36 t139 18q141 0 205 -65t64 -154q0 -132 -99 -182.5t-128 -60.5t-14 -11q184 -17 234 -114t50 -207t-108 -204.5t-260 -94.5t-222 47q-12 8 -12 24z" />
<glyph unicode="&#xb4;" horiz-adv-x="483" d="M141.5 1071q-14.5 0 -19.5 1t-3 5l145 328q6 9 31 23t68 18t60 -2t21.5 -10t-2.5 -11l-280 -346q-6 -6 -20.5 -6z" />
<glyph unicode="&#xb5;" horiz-adv-x="1220" d="M350 -399q0 -10 -8 -11l-45 -6q-6 0 -6 6v530q0 529 -3 594t-25.5 93.5t-68.5 30.5t-44 16q0 14 47 20q124 17 233 78q4 2 7 4t10 2t8 -14l-6 -203v-424q0 -116 31.5 -165.5t73.5 -72t119 -22.5q134 0 249 105q22 19 22 53v490q-4 74 -26 102.5t-68 30.5t-46 16t48 20 q127 18 185.5 51t65.5 33t7 -14l-6 -203v-516q0 -39 2 -64.5t20.5 -47t114.5 -21.5q10 0 17.5 -1t7.5 -11t-7.5 -12t-83.5 -15t-198 -65q-31 -14 -31 18l8 115q0 14 -12 2q-152 -139 -331 -139t-261 112v-495z" />
<glyph unicode="&#xb6;" horiz-adv-x="1710" d="M301 530q0 -237 160.5 -332.5t384.5 -72.5v723q0 33 -17 39q-36 12 -137 12q-176 0 -283.5 -97.5t-107.5 -271.5zM1434 722v-910q0 -120 16 -149.5t46 -39.5t69 -10t39 -14t-25 -15l-229 6l-156 -6q-25 0 -25 14t25 15q51 2 61.5 56.5t10.5 177.5v903q0 103 -23 136.5 t-87 33.5q-105 0 -125.5 -39t-20.5 -131v-114v-824q0 -142 26 -170.5t52 -28.5t26 -14t-24 -15l-164 6l-277 -6q-25 0 -24 17q1 12 25 12q67 0 110.5 10.5t64.5 46.5q21 37 21 70v336q-278 -36 -427 49.5t-212.5 184t-63.5 226.5t75 270t417 142l287 -6h428l215 6 q25 0 25 -14t-36 -15q-72 -2 -96 -41t-24 -156z" />
<glyph unicode="&#xb7;" horiz-adv-x="495" d="M131 842q0 47 33 79.5t80 32.5t79.5 -32.5t32.5 -79.5t-32.5 -80t-79.5 -33t-80 33t-33 80z" />
<glyph unicode="&#xb8;" horiz-adv-x="444" d="M98 -305q156 0 156 82q0 41 -18.5 54t-41 21.5t-40 20.5t-15.5 51l4 76h43l-2 -55q0 -27 27 -36t59.5 -19.5t60 -29t27.5 -57.5q0 -70 -80.5 -107.5t-179.5 -33.5q-23 0 -22.5 16.5t22.5 16.5z" />
<glyph unicode="&#xb9;" horiz-adv-x="759" d="M450 1554q10 0 11 -14q0 -14 -1 -58t-2 -104.5l-2 -121t-1 -112.5v-45l1 -124l1 -359q0 -90 22.5 -108.5t51 -21.5t59.5 -3t31 -12t-17 -12l-203 4l-21 -1l-198 -3q-16 0 -16 12t16 12q53 0 86 2t55.5 19.5t22.5 101.5v33v104l2 402l-4 258q0 20 -12 20t-82 -36t-88 -45 t-20.5 0.5t8.5 17.5q185 115 237 154q53 40 63 40z" />
<glyph unicode="&#xba;" horiz-adv-x="796" d="M573 1388.5q-64 116.5 -196 116.5t-196 -100.5t-64 -239.5t65.5 -249.5t196.5 -110.5t194.5 95.5t63.5 233.5t-64 254.5zM658.5 873.5q-115.5 -111.5 -283.5 -111.5q-167 0 -280 103.5t-113 277.5t110 287.5t283 113.5t286 -111t113 -279.5t-115.5 -280z" />
<glyph unicode="&#xbb;" horiz-adv-x="1132" d="M639 754q0 -10 -10 -17l-531 -313q-8 -4 -8 4v33q0 8 6 12l365 277q6 2 6 7t-6 9l-365 276q-6 2 -6 13v32q0 8 8 5l531 -314q10 -6 10 -16v-8zM1020 754q0 -10 -10 -17l-531 -313q-8 -4 -8 4v33q0 8 6 12l365 277q6 2 6 7t-6 9l-365 276q-6 2 -6 13v32q0 8 8 5l531 -314 q10 -6 10 -16v-8z" />
<glyph unicode="&#xbc;" horiz-adv-x="1998" d="M1655 918h-4q-152 -208 -247 -331.5t-142 -185.5h389q4 262 4 517zM540 21q3 15 56 119t150.5 290t195.5 369.5t197.5 368t201.5 376.5q4 8 13 4l35 -12q6 -2 2 -10q-597 -1162 -795 -1561q-6 -10 -12 -4l-31 29q-16 16 -13 31zM450 1554q10 0 11 -14q0 -14 -1 -58 t-2 -104.5l-2 -121t-1 -112.5v-45l1 -124l1 -359q0 -90 22.5 -108.5t51 -21.5t59.5 -3t31 -12t-17 -12l-203 4l-21 -1l-198 -3q-16 0 -16 12t16 12q53 0 86 2t55.5 19.5t22.5 101.5v33v104l2 402l-4 258q0 20 -12 20t-82 -36t-88 -45t-20.5 0.5t8.5 17.5q185 115 237 154 q53 40 63 40zM1629 40.5q22 20.5 22 113.5v168h-461q-23 0 -23 12q1 12 11 28t47 63.5t91 119t118.5 156.5t122 161t100.5 133t57 77t28 20t15 -25v-113l2 -553h96q29 0 42.5 12.5t21.5 12.5t5 -14t-8 -33t-11 -45q0 -12 -21 -12h-125v-168q0 -89 24.5 -111.5t96.5 -22.5 q18 0 18 -12t-18 -12l-178 4h-16l-160 -4q-16 0 -17 12q0 12 49 12t71 20.5z" />
<glyph unicode="&#xbd;" horiz-adv-x="1900" d="M540 21q3 15 56 119t150.5 290t195.5 369.5t197.5 368t201.5 376.5q4 8 13 4l35 -12q6 -2 2 -10q-597 -1162 -795 -1561q-6 -10 -12 -4l-31 29q-16 16 -13 31zM450 1554q10 0 11 -14q0 -14 -1 -58t-2 -104.5l-2 -121t-1 -112.5v-45l1 -124l1 -359q0 -90 22.5 -108.5 t51 -21.5t59.5 -3t31 -12t-17 -12l-203 4l-21 -1l-198 -3q-16 0 -16 12t16 12q53 0 86 2t55.5 19.5t22.5 101.5v33v104l2 402l-4 258q0 20 -12 20t-82 -36t-88 -45t-20.5 0.5t8.5 17.5q185 115 237 154q53 40 63 40zM1204 0q-16 0 -16 10t56 67q188 188 309.5 364t121.5 330 t-55.5 211.5t-147.5 57.5q-91 0 -148.5 -64.5t-57.5 -158.5q0 -16 -12 -16t-11 14q-2 55 -3 96t-5 80q-5 25 88.5 57.5t169.5 32.5q154 0 228.5 -75.5t74.5 -189.5t-47 -210t-118.5 -185t-155.5 -171t-156 -152q-6 -8 2 -8h191q192 0 237 25q53 25 70 118q6 18 14 19 q10 0 10 -18t-5 -45t-11 -57t-12.5 -55t-10.5 -45t-18 -26t-55 -6h-527z" />
<glyph unicode="&#xbe;" horiz-adv-x="1966" d="M1622 918h-4q-152 -208 -247 -331.5t-142 -185.5h389q4 262 4 517zM507 21q3 15 56 119q133 263 327.5 625t418.5 779q4 8 12 4l35 -12q6 -2 2 -10q-597 -1162 -795 -1561q-6 -10 -12 -4l-31 29q-16 16 -13 31zM47 522q0 201 15.5 201t15.5 -16q6 -90 53 -150.5 t153 -60.5t178.5 67.5t72.5 198.5t-81 198t-186 78q-23 2 -22.5 14.5t24.5 18.5q83 21 153.5 74t70.5 167t-59.5 151.5t-134.5 37.5t-128 -47t-53 -141q0 -16 -10.5 -16.5t-12.5 34.5t-3 63.5t-5 67.5q-2 10 24 28t86 36t139 18q141 0 205 -65t64 -154q0 -132 -99 -182.5 t-128 -60.5t-14 -11q184 -17 234 -114t50 -207t-108 -204.5t-260 -94.5t-222 47q-12 8 -12 24zM1477 8q1 12 27 12q70 0 92 20t22 114v168h-461q-22 0 -22 12t10 28t47 63.5t91 119t118.5 156.5t122 161t99.5 133t57 77q16 20 30 20t14 -25v-113l2 -553h97q29 0 42 12.5 t21 12.5t5 -14t-8 -33t-11 -45q0 -12 -21 -12h-125v-168q0 -89 24.5 -111.5t96.5 -22.5q19 0 19 -12t-19 -12l-178 4h-17l-159 -4q-16 0 -16 12z" />
<glyph unicode="&#xbf;" horiz-adv-x="886" d="M506 580q129 -133 129 -230q0 -98 -79 -168.5t-134 -114.5t-134 -129.5t-79 -226.5q0 -174 94 -219t172 -45q139 0 217 82t78 235q0 29 13 29q13 1 15 -35t2.5 -66t2 -63.5t5.5 -68.5q5 -35 1.5 -43.5t-37.5 -32.5t-122 -53t-200 -29q-207 0 -304 100t-97 236 q0 210 213 353.5t261 198t48 97.5q0 80 -90 170q-14 14 -3 26.5t28 -3.5zM664 842q0 -47 -33 -80t-80 -33t-80 33t-33 80t33 79.5t80 32.5t80 -32.5t33 -79.5z" />
<glyph unicode="&#xc0;" d="M940 659q14 0 8 15l-223 616q-6 20 -14 -2l-203 -614q-6 -14 8 -15h424zM16 8q0 14 36 14t68 15.5t55.5 41t38.5 61.5t32 79l467 1278q20 63 43 64q14 0 23 -15.5t22 -48.5l477 -1235q53 -135 99.5 -187t131.5 -52q27 0 27 -14.5t-25 -14.5l-243 6l-201 -6q-25 0 -25 14 t37 14t58.5 27t-7.5 111l-155 436q-4 10 -19 10h-458q-12 0 -17 -12l-123 -375q-31 -89 -24.5 -125.5t28 -53.5t58.5 -17q37 -1 37 -15t-27 -14l-197 6l-192 -6q-25 0 -25 14zM487 1919q-9 9 7 16q76 25 155 -20q10 -6 17 -14l174 -261q2 -6 -17.5 -7t-25.5 7z" />
<glyph unicode="&#xc1;" d="M940 659q14 0 8 15l-223 616q-6 20 -14 -2l-203 -614q-6 -14 8 -15h424zM16 8q0 14 36 14t68 15.5t55.5 41t38.5 61.5t32 79l467 1278q20 63 43 64q14 0 23 -15.5t22 -48.5l477 -1235q53 -135 99.5 -187t131.5 -52q27 0 27 -14.5t-25 -14.5l-243 6l-201 -6q-25 0 -25 14 t37 14t58.5 27t-7.5 111l-155 436q-4 10 -19 10h-458q-12 0 -17 -12l-123 -375q-31 -89 -24.5 -125.5t28 -53.5t58.5 -17q37 -1 37 -15t-27 -14l-197 6l-192 -6q-25 0 -25 14zM690.5 1634q-14.5 0 -19.5 1t-3 5l174 261q6 9 30 23t67 18t61 -2t22 -10.5t-2 -10.5l-309 -279 q-6 -6 -20.5 -6z" />
<glyph unicode="&#xc2;" d="M940 659q14 0 8 15l-223 616q-6 20 -14 -2l-203 -614q-6 -14 8 -15h424zM16 8q0 14 36 14t68 15.5t55.5 41t38.5 61.5t32 79l467 1278q20 63 43 64q14 0 23 -15.5t22 -48.5l477 -1235q53 -135 99.5 -187t131.5 -52q27 0 27 -14.5t-25 -14.5l-243 6l-201 -6q-25 0 -25 14 t37 14t58.5 27t-7.5 111l-155 436q-4 10 -19 10h-458q-12 0 -17 -12l-123 -375q-31 -89 -24.5 -125.5t28 -53.5t58.5 -17q37 -1 37 -15t-27 -14l-197 6l-192 -6q-25 0 -25 14zM753.5 1931q48.5 0 55.5 -10l256 -281q4 -6 -15.5 -5t-25.5 5l-270 177l-267 -177 q-6 -4 -25.5 -5t-15.5 5l252 281q7 10 55.5 10z" />
<glyph unicode="&#xc3;" d="M940 659q14 0 8 15l-223 616q-6 20 -14 -2l-203 -614q-6 -14 8 -15h424zM16 8q0 14 36 14t68 15.5t55.5 41t38.5 61.5t32 79l467 1278q20 63 43 64q14 0 23 -15.5t22 -48.5l477 -1235q53 -135 99.5 -187t131.5 -52q27 0 27 -14.5t-25 -14.5l-243 6l-201 -6q-25 0 -25 14 t37 14t58.5 27t-7.5 111l-155 436q-4 10 -19 10h-458q-12 0 -17 -12l-123 -375q-31 -89 -24.5 -125.5t28 -53.5t58.5 -17q37 -1 37 -15t-27 -14l-197 6l-192 -6q-25 0 -25 14zM794 1791q111 -36 143 -36q33 0 63 10.5t65 57.5q4 4 14.5 -1.5t4.5 -15.5q-29 -50 -81 -98.5 t-105 -48.5q-69 0 -175.5 36t-140.5 36q-33 0 -63 -10.5t-64 -57.5q-4 -4 -15.5 1t-5.5 15t23.5 36t64 69t104.5 43q57 0 168 -36z" />
<glyph unicode="&#xc4;" d="M940 659q14 0 8 15l-223 616q-6 20 -14 -2l-203 -614q-6 -14 8 -15h424zM16 8q0 14 36 14t68 15.5t55.5 41t38.5 61.5t32 79l467 1278q20 63 43 64q14 0 23 -15.5t22 -48.5l477 -1235q53 -135 99.5 -187t131.5 -52q27 0 27 -14.5t-25 -14.5l-243 6l-201 -6q-25 0 -25 14 t37 14t58.5 27t-7.5 111l-155 436q-4 10 -19 10h-458q-12 0 -17 -12l-123 -375q-31 -89 -24.5 -125.5t28 -53.5t58.5 -17q37 -1 37 -15t-27 -14l-197 6l-192 -6q-25 0 -25 14zM848 1765q0 41 27.5 70t68.5 29t69.5 -29t28.5 -70t-28.5 -68.5t-69.5 -27.5t-68.5 27.5 t-27.5 68.5zM469 1765q0 41 27.5 70t68.5 29t70 -29t29 -70t-29 -68.5t-70 -27.5t-68.5 27.5t-27.5 68.5z" />
<glyph unicode="&#xc5;" d="M639 1679q0 -49 33 -81.5t82 -32.5t83.5 32.5t34.5 81.5t-34.5 84t-83.5 35t-82 -35t-33 -84zM940 659q14 0 8 15l-223 616q-6 20 -14 -2l-203 -614q-6 -14 8 -15h424zM16 8q0 14 36 14t68 15.5t55.5 41t38.5 61.5t32 79l467 1278l6 21q-57 12 -94 57t-37 111t48 114.5 t119.5 48.5t120 -48.5t48.5 -114.5t-37 -111t-94 -57q2 -4 3 -10.5t5 -10.5l477 -1235q53 -135 99.5 -187t131.5 -52q27 0 27 -14.5t-25 -14.5l-243 6l-201 -6q-25 0 -25 14t37 14t58.5 27t-7.5 111l-155 436q-4 10 -19 10h-458q-12 0 -17 -12l-123 -375 q-31 -89 -24.5 -125.5t28 -53.5t58.5 -17q37 -1 37 -15t-27 -14l-197 6l-192 -6q-25 0 -25 14z" />
<glyph unicode="&#xc6;" horiz-adv-x="2029" d="M449 8q0 -14 -25 -14l-193 6l-190 -6q-25 0 -25 14t35 15q71 0 124.5 45t125.5 151l866 1278q29 39 66 39h272q272 0 359 12q10 2 17 14.5t19 9.5t-4 -64q-15 -62 -22 -201q0 -25 -15 -25t-16 29t-12 84q-10 39 -75.5 55t-172.5 23l-289 6q-12 0 -12 -21v-598 q0 -16 8 -16h218q219 0 265.5 16.5t61.5 37.5q14 21 23 22q12 0 10 -17q-25 -148 -25 -264q0 -25 -14 -25t-14 25q0 70 -25 102.5t-87 38.5t-105 6h-179q-137 0 -137 -10v-332q0 -333 21 -356q15 -22 61 -27.5t115 -5.5l139 -1q139 0 189 20q93 36 116 180q6 25 18 25 q11 1 11 -15t-2 -42.5t-6.5 -58.5t-8.5 -63.5t-11 -60.5t-27.5 -38t-79.5 -9l-611 8l-209 -6q-25 0 -24 14q-1 15 33 15q69 0 90.5 52t21.5 146l2 383h-444q-16 0 -21 -12l-241 -373q-129 -196 -1 -196q36 -1 36 -15zM715 664h405l-2 626q0 10 -5 8t-9 -10l-395 -610 q-8 -14 6 -14z" />
<glyph unicode="&#xc7;" horiz-adv-x="1470" d="M1352.5 1500q7.5 5 14 17.5t17.5 12.5q10 0 -3 -141.5t-13 -251.5q0 -25 -14.5 -25t-14.5 25q0 175 -124.5 267.5t-303.5 92.5q-180 0 -294.5 -55.5t-224 -191.5t-109.5 -447q0 -312 177 -526t474 -214q139 0 246.5 57.5t199.5 182.5q10 16 24.5 15t4.5 -29 q-170 -297 -555 -305v-39q0 -27 26.5 -36t59.5 -19.5t60.5 -29t27.5 -57.5q0 -70 -81.5 -107.5t-178.5 -33.5q-23 0 -23 16.5t23 16.5q156 0 156 82q0 41 -18.5 54t-41 21.5t-40 20.5t-15.5 51l2 62q-315 12 -514 220.5t-199 545.5q0 180 60.5 327.5t226.5 306t512 158.5 q95 0 228 -24.5t176 -24.5q44 0 51.5 5z" />
<glyph unicode="&#xc8;" horiz-adv-x="1103" d="M997 254q6 25 18 25q11 1 11 -15q0 -36 -10 -115.5t-17 -109.5q-8 -29 -28.5 -38t-79.5 -9l-610 8l-209 -6q-25 0 -25 14t34 15q68 0 90 53t22 145l1 143l-1 979q0 91 -23 127t-129 43q-25 0 -25 14.5t25 14.5l240 -6h285q285 0 372 12q10 2 17.5 14.5t18.5 9.5t-3 -64 q-15 -62 -23 -201q0 -25 -15 -25t-15 26t-13 87q-10 39 -75.5 57t-172.5 25l-288 6q-12 0 -13 -21v-604q0 -16 9 -16h221q221 0 264.5 17.5t58.5 38.5q14 21 23 22q12 0 10 -17q-24 -142 -24 -264q0 -25 -14 -25t-15 25q0 70 -24.5 103.5t-87.5 39.5t-105 6h-179 q-137 0 -137 -10v-334q0 -334 18 -358t64 -29.5t115 -5.5l139 -1q139 0 189 20q93 36 116 184zM367 1919q-9 9 6 16q76 25 155 -20q10 -6 17 -14l174 -261q2 -6 -17.5 -7t-25.5 7z" />
<glyph unicode="&#xc9;" horiz-adv-x="1103" d="M997 254q6 25 18 25q11 1 11 -15q0 -36 -10 -115.5t-17 -109.5q-8 -29 -28.5 -38t-79.5 -9l-610 8l-209 -6q-25 0 -25 14t34 15q68 0 90 53t22 145l1 143l-1 979q0 91 -23 127t-129 43q-25 0 -25 14.5t25 14.5l240 -6h285q285 0 372 12q10 2 17.5 14.5t18.5 9.5t-3 -64 q-15 -62 -23 -201q0 -25 -15 -25t-15 26t-13 87q-10 39 -75.5 57t-172.5 25l-288 6q-12 0 -13 -21v-604q0 -16 9 -16h221q221 0 264.5 17.5t58.5 38.5q14 21 23 22q12 0 10 -17q-24 -142 -24 -264q0 -25 -14 -25t-15 25q0 70 -24.5 103.5t-87.5 39.5t-105 6h-179 q-137 0 -137 -10v-334q0 -334 18 -358t64 -29.5t115 -5.5l139 -1q139 0 189 20q93 36 116 184zM385.5 1634q-14.5 0 -20 1t-3.5 5l175 261q7 9 31 23t67 18t61 -2t21.5 -10.5t-2.5 -10.5l-309 -279q-6 -6 -20.5 -6z" />
<glyph unicode="&#xca;" horiz-adv-x="1103" d="M997 254q6 25 18 25q11 1 11 -15q0 -36 -10 -115.5t-17 -109.5q-8 -29 -28.5 -38t-79.5 -9l-610 8l-209 -6q-25 0 -25 14t34 15q68 0 90 53t22 145l1 143l-1 979q0 91 -23 127t-129 43q-25 0 -25 14.5t25 14.5l240 -6h285q285 0 372 12q10 2 17.5 14.5t18.5 9.5t-3 -64 q-15 -62 -23 -201q0 -25 -15 -25t-15 26t-13 87q-10 39 -75.5 57t-172.5 25l-288 6q-12 0 -13 -21v-604q0 -16 9 -16h221q221 0 264.5 17.5t58.5 38.5q14 21 23 22q12 0 10 -17q-24 -142 -24 -264q0 -25 -14 -25t-15 25q0 70 -24.5 103.5t-87.5 39.5t-105 6h-179 q-137 0 -137 -10v-334q0 -334 18 -358t64 -29.5t115 -5.5l139 -1q139 0 189 20q93 36 116 184zM538.5 1931q48.5 0 55.5 -10l256 -281q4 -6 -15.5 -5t-25.5 5l-270 177l-267 -177q-6 -4 -25.5 -5t-15.5 5l252 281q7 10 55.5 10z" />
<glyph unicode="&#xcb;" horiz-adv-x="1103" d="M997 254q6 25 18 25q11 1 11 -15q0 -36 -10 -115.5t-17 -109.5q-8 -29 -28.5 -38t-79.5 -9l-610 8l-209 -6q-25 0 -25 14t34 15q68 0 90 53t22 145l1 143l-1 979q0 91 -23 127t-129 43q-25 0 -25 14.5t25 14.5l240 -6h285q285 0 372 12q10 2 17.5 14.5t18.5 9.5t-3 -64 q-15 -62 -23 -201q0 -25 -15 -25t-15 26t-13 87q-10 39 -75.5 57t-172.5 25l-288 6q-12 0 -13 -21v-604q0 -16 9 -16h221q221 0 264.5 17.5t58.5 38.5q14 21 23 22q12 0 10 -17q-24 -142 -24 -264q0 -25 -14 -25t-15 25q0 70 -24.5 103.5t-87.5 39.5t-105 6h-179 q-137 0 -137 -10v-334q0 -334 18 -358t64 -29.5t115 -5.5l139 -1q139 0 189 20q93 36 116 184zM254 1765q0 41 27.5 70t68.5 29t70 -29t29 -70t-29 -68.5t-70 -27.5t-68.5 27.5t-27.5 68.5zM633 1765q0 41 27.5 70t68.5 29t69.5 -29t28.5 -70t-28.5 -68.5t-69.5 -27.5 t-68.5 27.5t-27.5 68.5z" />
<glyph unicode="&#xcc;" horiz-adv-x="552" d="M111 1919q-9 9 6 16q76 25 155 -20q10 -6 17 -14l174 -261q2 -6 -17.5 -7t-25.5 7zM512 1527.5q0 -14.5 -36 -15.5q-71 -2 -95.5 -41t-24.5 -156v-1094q0 -121 16.5 -149.5t47 -38.5t68.5 -10q38 -1 38 -15t-24 -14l-58 2l-389 -2q-25 0 -24 14q1 15 37 15 q75 0 97.5 44.5t22.5 177.5v1098q0 100 -16 124t-46 33t-70 11t-40 16.5t25 14.5l57 -2l389 2q25 0 25 -14.5z" />
<glyph unicode="&#xcd;" horiz-adv-x="552" d="M129.5 1634q-14.5 0 -20 1t-3.5 5l175 261q7 9 31 23t67 18t61 -2t21.5 -10.5t-2.5 -10.5l-309 -279q-6 -6 -20.5 -6zM512 1527.5q0 -14.5 -36 -15.5q-71 -2 -95.5 -41t-24.5 -156v-1094q0 -121 16.5 -149.5t47 -38.5t68.5 -10q38 -1 38 -15t-24 -14l-58 2l-389 -2 q-25 0 -24 14q1 15 37 15q75 0 97.5 44.5t22.5 177.5v1098q0 100 -16 124t-46 33t-70 11t-40 16.5t25 14.5l57 -2l389 2q25 0 25 -14.5z" />
<glyph unicode="&#xce;" horiz-adv-x="552" d="M282.5 1931q48.5 0 55.5 -10l256 -281q4 -6 -15.5 -5t-25.5 5l-270 177l-267 -177q-6 -4 -25.5 -5t-15.5 5l252 281q7 10 55.5 10zM512 1527.5q0 -14.5 -36 -15.5q-71 -2 -95.5 -41t-24.5 -156v-1094q0 -121 16.5 -149.5t47 -38.5t68.5 -10q38 -1 38 -15t-24 -14l-58 2 l-389 -2q-25 0 -24 14q1 15 37 15q75 0 97.5 44.5t22.5 177.5v1098q0 100 -16 124t-46 33t-70 11t-40 16.5t25 14.5l57 -2l389 2q25 0 25 -14.5z" />
<glyph unicode="&#xcf;" horiz-adv-x="552" d="M377 1765q0 41 27.5 70t68.5 29t69.5 -29t28.5 -70t-28.5 -68.5t-69.5 -27.5t-68.5 27.5t-27.5 68.5zM-2 1765q0 41 27.5 70t68.5 29t70 -29t29 -70t-29 -68.5t-70 -27.5t-68.5 27.5t-27.5 68.5zM512 1527.5q0 -14.5 -36 -15.5q-71 -2 -95.5 -41t-24.5 -156v-1094 q0 -121 16.5 -149.5t47 -38.5t68.5 -10q38 -1 38 -15t-24 -14l-58 2l-389 -2q-25 0 -24 14q1 15 37 15q75 0 97.5 44.5t22.5 177.5v1098q0 100 -16 124t-46 33t-70 11t-40 16.5t25 14.5l57 -2l389 2q25 0 25 -14.5z" />
<glyph unicode="&#xd0;" horiz-adv-x="1648" d="M356 809h236q6 0 6 -6l-6 -45q0 -8 -10 -8h-226l2 -480q0 -123 24 -160q47 -71 254 -71q393 0 575 179.5t182 512.5q0 378 -220.5 572t-619.5 194q-101 0 -170 -12q-25 -7 -25 -33v-55zM47 8q0 14 34 15q68 0 90 53t22 145l2 529h-193q-6 0 -6 6l6 45q0 8 10 8h183 l-2 534q0 91 -23 127t-129 43q-25 0 -25 14.5t25 14.5l240 -6l331 8q432 0 695.5 -174.5t263.5 -578.5q0 -370 -229 -584.5t-646 -214.5l-415 8l-209 -6q-25 0 -25 14z" />
<glyph unicode="&#xd1;" horiz-adv-x="1751" d="M1694 1528q0 -14 -36 -14q-79 -1 -106.5 -37t-27.5 -152l-4 -1229q0 -76 -5.5 -96t-21.5 -20t-94 88t-150.5 174t-203.5 239.5t-223 259.5q-93 107 -180 204t-160.5 180t-130 144.5t-81.5 90.5l29 -1073q2 -66 5 -115t26.5 -99t142.5 -50q25 -1 25 -15t-25 -14l-227 6 l-203 -6q-25 0 -25 14t40 15q90 0 109 49t19 215l4 1097q0 78 -41 103.5t-87 25.5q-46 1 -46 15t25 14q82 0 161 -6t167 -2q218 -288 425 -527q208 -239 282.5 -323t141 -157.5t123 -135t95.5 -104.5l-25 1022q-4 126 -24.5 155t-54.5 39t-76 10q-42 1 -42 15t25 14l229 -6 l201 6q25 0 25 -14zM910 1791q111 -36 144 -36t63 10.5t65 57.5q4 4 14 -1.5t5 -15.5q-24 -46 -78.5 -96.5t-107.5 -50.5q-69 0 -175.5 36t-140.5 36q-33 0 -63 -10.5t-65 -57.5q-4 -4 -15 1t-5 15t23.5 36t64 69t103.5 43t168 -36z" />
<glyph unicode="&#xd2;" horiz-adv-x="1796" d="M1507 754q0 166 -50 310t-180.5 288.5t-394.5 144.5q-265 0 -430 -173.5t-165 -509.5q0 -337 139 -496.5t256 -215t246 -55.5q208 0 393.5 147.5t185.5 559.5zM1698 778q0 -170 -57.5 -313t-164 -249.5t-259.5 -169t-349 -62.5t-343.5 71.5t-242 184t-139.5 250 t-45 268.5t46 270t142.5 254t248 188.5t341.5 73.5t337 -54t254.5 -155.5t169 -244t61.5 -312.5zM723 1919q-9 9 6 16q77 25 156 -20q10 -6 16 -14l174 -261q2 -6 -17.5 -7t-25.5 7z" />
<glyph unicode="&#xd3;" horiz-adv-x="1796" d="M1507 754q0 166 -50 310t-180.5 288.5t-394.5 144.5q-265 0 -430 -173.5t-165 -509.5q0 -337 139 -496.5t256 -215t246 -55.5q208 0 393.5 147.5t185.5 559.5zM1698 778q0 -170 -57.5 -313t-164 -249.5t-259.5 -169t-349 -62.5t-343.5 71.5t-242 184t-139.5 250 t-45 268.5t46 270t142.5 254t248 188.5t341.5 73.5t337 -54t254.5 -155.5t169 -244t61.5 -312.5zM741.5 1634q-14.5 0 -19.5 1t-3 5l174 261q7 9 31 23t67 18t61 -2t21.5 -10.5t-2.5 -10.5l-309 -279q-6 -6 -20.5 -6z" />
<glyph unicode="&#xd4;" horiz-adv-x="1796" d="M1507 754q0 166 -50 310t-180.5 288.5t-394.5 144.5q-265 0 -430 -173.5t-165 -509.5q0 -337 139 -496.5t256 -215t246 -55.5q208 0 393.5 147.5t185.5 559.5zM1698 778q0 -170 -57.5 -313t-164 -249.5t-259.5 -169t-349 -62.5t-343.5 71.5t-242 184t-139.5 250 t-45 268.5t46 270t142.5 254t248 188.5t341.5 73.5t337 -54t254.5 -155.5t169 -244t61.5 -312.5zM895 1931q48 0 55 -10l256 -281q4 -6 -15.5 -5t-25.5 5l-270 177l-266 -177q-6 -4 -25.5 -5t-15.5 5l252 281q7 10 55 10z" />
<glyph unicode="&#xd5;" horiz-adv-x="1796" d="M1507 754q0 166 -50 310t-180.5 288.5t-394.5 144.5q-265 0 -430 -173.5t-165 -509.5q0 -337 139 -496.5t256 -215t246 -55.5q208 0 393.5 147.5t185.5 559.5zM1698 778q0 -170 -57.5 -313t-164 -249.5t-259.5 -169t-349 -62.5t-343.5 71.5t-242 184t-139.5 250 t-45 268.5t46 270t142.5 254t248 188.5t341.5 73.5t337 -54t254.5 -155.5t169 -244t61.5 -312.5zM933 1791q111 -36 144 -36t62.5 10.5t64.5 57.5q4 4 14.5 -1.5t5.5 -15.5q-24 -46 -79.5 -96.5t-107.5 -50.5q-69 0 -175.5 36t-139.5 36t-63 -10.5t-65 -57.5q-4 -4 -15.5 1 t-5.5 15t23.5 36t65 69t104.5 43q56 0 167 -36z" />
<glyph unicode="&#xd6;" horiz-adv-x="1796" d="M1507 754q0 166 -50 310t-180.5 288.5t-394.5 144.5q-265 0 -430 -173.5t-165 -509.5q0 -337 139 -496.5t256 -215t246 -55.5q208 0 393.5 147.5t185.5 559.5zM1698 778q0 -170 -57.5 -313t-164 -249.5t-259.5 -169t-349 -62.5t-343.5 71.5t-242 184t-139.5 250 t-45 268.5t46 270t142.5 254t248 188.5t341.5 73.5t337 -54t254.5 -155.5t169 -244t61.5 -312.5zM989 1765q0 41 27.5 70t68.5 29t70 -29t29 -70t-29 -68.5t-70 -27.5t-68.5 27.5t-27.5 68.5zM610 1765q0 41 28 70t69 29t69.5 -29t28.5 -70t-28.5 -68.5t-69.5 -27.5 t-69 27.5t-28 68.5z" />
<glyph unicode="&#xd7;" horiz-adv-x="1222" d="M657 780l275 -274q6 -8 2 -12l-29 -37h-8l-283 280l-280 -280q-6 -6 -8 0l-29 35q-4 8 2 14l274 274l-274 275q-6 6 -2 14l29 35q2 6 8 0l280 -283l283 283h8l29 -37q4 -6 -2 -12z" />
<glyph unicode="&#xd8;" horiz-adv-x="1796" d="M287 802q0 -192 72.5 -354.5t193.5 -261.5l584 1250q-123 55 -255 55t-238.5 -41t-185.5 -123t-125 -207.5t-46 -317.5zM1507 733q0 254 -88 421t-229 253l-586 -1257q143 -96 338 -96t338.5 112t185 267t41.5 300zM98 776q0 114 46 252.5t142.5 253.5t248 188.5 t364.5 73.5q141 0 270 -41l48 103q2 6 12 6l43 -15q4 -2 4 -8l-49 -104q213 -84 342 -270.5t129 -444.5q0 -162 -57.5 -305t-164 -249.5t-259 -169t-337.5 -62.5t-327 59l-47 -104q-4 -6 -12 -7l-43 15q-4 2 -5 8l52 113q-194 99 -297 291t-103 417z" />
<glyph unicode="&#xd9;" horiz-adv-x="1576" d="M1550 1528q0 -14 -36 -14q-80 -1 -107 -38t-27 -151v-643q0 -482 -207.5 -590t-367.5 -108q-302 0 -447 180.5t-145 503.5v675q0 93 -23.5 128t-128.5 42q-25 0 -24.5 14.5t24.5 14.5l59 -2l388 2q25 0 24.5 -14.5t-36.5 -15.5q-72 -2 -93.5 -39.5t-21.5 -95.5v-19 l-1 -81l-1 -597q0 -466 169 -554.5t301 -88.5q249 0 347 173.5t98 461.5l-2 637q0 124 -22.5 154t-56 40t-75.5 10t-42 15q0 14 24 14l217 -6l189 6q24 0 24 -14zM614 1919q-9 9 7 16q76 25 155 -20q10 -6 17 -14l174 -261q2 -6 -17.5 -7t-25.5 7z" />
<glyph unicode="&#xda;" horiz-adv-x="1576" d="M1550 1528q0 -14 -36 -14q-80 -1 -107 -38t-27 -151v-643q0 -482 -207.5 -590t-367.5 -108q-302 0 -447 180.5t-145 503.5v675q0 93 -23.5 128t-128.5 42q-25 0 -24.5 14.5t24.5 14.5l59 -2l388 2q25 0 24.5 -14.5t-36.5 -15.5q-72 -2 -93.5 -39.5t-21.5 -95.5v-19 l-1 -81l-1 -597q0 -466 169 -554.5t301 -88.5q249 0 347 173.5t98 461.5l-2 637q0 124 -22.5 154t-56 40t-75.5 10t-42 15q0 14 24 14l217 -6l189 6q24 0 24 -14zM632.5 1634q-14.5 0 -19.5 1t-3 5l174 261q6 9 31 23t68 18t60 -2t21.5 -10.5t-1.5 -10.5l-310 -279 q-6 -6 -20.5 -6z" />
<glyph unicode="&#xdb;" horiz-adv-x="1576" d="M1550 1528q0 -14 -36 -14q-80 -1 -107 -38t-27 -151v-643q0 -482 -207.5 -590t-367.5 -108q-302 0 -447 180.5t-145 503.5v675q0 93 -23.5 128t-128.5 42q-25 0 -24.5 14.5t24.5 14.5l59 -2l388 2q25 0 24.5 -14.5t-36.5 -15.5q-72 -2 -93.5 -39.5t-21.5 -95.5v-19 l-1 -81l-1 -597q0 -466 169 -554.5t301 -88.5q249 0 347 173.5t98 461.5l-2 637q0 124 -22.5 154t-56 40t-75.5 10t-42 15q0 14 24 14l217 -6l189 6q24 0 24 -14zM786.5 1931q48.5 0 55.5 -10l256 -281q4 -6 -15.5 -5t-25.5 5l-271 177l-266 -177q-6 -4 -25.5 -5t-15.5 5 l252 281q7 10 55.5 10z" />
<glyph unicode="&#xdc;" horiz-adv-x="1576" d="M1550 1528q0 -14 -36 -14q-80 -1 -107 -38t-27 -151v-643q0 -482 -207.5 -590t-367.5 -108q-302 0 -447 180.5t-145 503.5v675q0 93 -23.5 128t-128.5 42q-25 0 -24.5 14.5t24.5 14.5l59 -2l388 2q25 0 24.5 -14.5t-36.5 -15.5q-72 -2 -93.5 -39.5t-21.5 -95.5v-19 l-1 -81l-1 -597q0 -466 169 -554.5t301 -88.5q249 0 347 173.5t98 461.5l-2 637q0 124 -22.5 154t-56 40t-75.5 10t-42 15q0 14 24 14l217 -6l189 6q24 0 24 -14zM502 1765q0 41 27.5 70t68.5 29t69.5 -29t28.5 -70t-28.5 -68.5t-69.5 -27.5t-68.5 27.5t-27.5 68.5z M881 1765q0 41 27.5 70t68.5 29t69.5 -29t28.5 -70t-28.5 -68.5t-69.5 -27.5t-68.5 27.5t-27.5 68.5z" />
<glyph unicode="&#xdd;" horiz-adv-x="1546" d="M1100 1528q0 14 26 14l164 -6l197 6q24 0 24 -14q1 -14 -35 -14q-75 -1 -135.5 -55.5t-214.5 -313t-272 -469.5v-455q0 -119 19.5 -148.5t50 -39.5t69.5 -10q39 -1 39 -15t-24 -14l-60 2l-399 -2q-25 0 -25 14t37 15q76 0 100.5 46t24.5 149v439q-88 153 -174 295 t-131 217.5t-74 119.5q-85 129 -132 176.5t-132 47.5q-27 0 -27 14.5t25 14.5l217 -6l205 6q25 0 24 -12q-1 -16 -37 -16t-52.5 -29t28.5 -105t86 -148.5t85 -149t92 -160.5t106 -181q8 -16 16 0q93 166 164.5 289.5t159.5 284.5q51 104 59 151t-68 47q-26 1 -26 15z M616.5 1634q-14.5 0 -19.5 1t-3 5l174 261q6 9 30 23t67 18t61 -2t22 -10.5t-2 -10.5l-309 -279q-6 -6 -20.5 -6z" />
<glyph unicode="&#xde;" horiz-adv-x="1085" d="M870 784q0 174 -107.5 271.5t-283.5 97.5q-14 0 -34.5 -1t-51 -2.5t-48.5 -7.5q-19 -7 -19 -30v-733q223 -23 383.5 72t160.5 333zM43 -6q-27 0 -27 14t34 15q67 0 89.5 51.5t22.5 161.5v1079q0 95 -22.5 146.5t-98.5 51.5q-25 1 -25 15t27 14t50.5 -1l70.5 -3t82 -2 l276 6q25 0 25 -14t-25 -15q-68 0 -112 -11t-64 -46t-20 -56v-204q159 6 234 6t164 -20.5t196.5 -94t107.5 -280.5q0 -145 -63.5 -243.5t-164 -156t-226 -76t-248.5 -1.5v-107q0 -107 16 -135q25 -43 68.5 -54t90.5 -11q46 -1 46 -15t-25 -14l-276 6h-46l-71 -4 q-59 -2 -86 -2z" />
<glyph unicode="&#xdf;" horiz-adv-x="1198" d="M10 9q0 15 35 15q77 1 94 43.5t17 233.5v584h-136q-18 0 -14 14q6 30 25 31q104 0 115.5 40t15.5 104t36.5 158.5t120 209t248.5 114.5q128 0 190 -88.5t62 -173.5t-23.5 -147t-51 -121t-51 -119.5t-23.5 -128.5t35.5 -114t88 -77.5t115 -57t150.5 -83t88 -184.5 t-100 -202.5t-271 -75.5q-101 0 -171.5 31.5t-82.5 39.5t-12 25q0 88 -10 205q0 24 11 24t14 -7t5 -15q56 -250 266 -250q104 0 152.5 45t48.5 116t-35.5 113.5t-88 76.5t-115 61.5t-150.5 83.5t-88 165q0 74 40 141.5t87 133t87 134.5t40 133q0 117 -74 182t-160 65 t-126.5 -28.5t-69.5 -99.5t-29 -265v-793q0 -170 11.5 -210t31 -53t50.5 -13t30 -15q0 -16 -24 -16l-174 6l-205 -6q-25 0 -25 15z" />
<glyph unicode="&#xe0;" horiz-adv-x="935" d="M326 57q51 0 116.5 24.5t116.5 70.5q23 17 23 53v268q-43 -16 -105.5 -39.5t-161 -85t-98.5 -176.5t109 -115zM104 708q0 101 106.5 173.5t249.5 72.5q142 0 211.5 -61.5t69.5 -153.5v-389q0 -164 10.5 -206t29 -62.5t50.5 -20.5t58 15t26 -8q0 -12 -18 -25 q-92 -59 -186 -59q-113 0 -119 137q0 8 -8 4q-29 -20 -115.5 -80.5t-220.5 -60.5q-94 0 -146.5 44t-52.5 125t50.5 134t122 91t151.5 63.5t131 42.5t65.5 26.5t14.5 30.5q0 227 -17.5 279t-46 70.5t-72.5 18.5q-79 0 -137.5 -44t-58.5 -122q0 -27 5 -37t-7 -18 q-57 -33 -101 -33q-45 1 -45 53zM297 1423q-9 9 6 17q78 25 156 -21q10 -6 16 -14l146 -328q2 -6 -17.5 -7t-25.5 7z" />
<glyph unicode="&#xe1;" horiz-adv-x="935" d="M326 57q51 0 116.5 24.5t116.5 70.5q23 17 23 53v268q-43 -16 -105.5 -39.5t-161 -85t-98.5 -176.5t109 -115zM104 708q0 101 106.5 173.5t249.5 72.5q142 0 211.5 -61.5t69.5 -153.5v-389q0 -164 10.5 -206t29 -62.5t50.5 -20.5t58 15t26 -8q0 -12 -18 -25 q-92 -59 -186 -59q-113 0 -119 137q0 8 -8 4q-29 -20 -115.5 -80.5t-220.5 -60.5q-94 0 -146.5 44t-52.5 125t50.5 134t122 91t151.5 63.5t131 42.5t65.5 26.5t14.5 30.5q0 227 -17.5 279t-46 70.5t-72.5 18.5q-79 0 -137.5 -44t-58.5 -122q0 -27 5 -37t-7 -18 q-57 -33 -101 -33q-45 1 -45 53zM315.5 1071q-14.5 0 -19.5 1t-3 5l145 328q6 9 31 23t68 18t60 -2t21.5 -10t-2.5 -11l-280 -346q-6 -6 -20.5 -6z" />
<glyph unicode="&#xe2;" horiz-adv-x="935" d="M326 57q51 0 116.5 24.5t116.5 70.5q23 17 23 53v268q-43 -16 -105.5 -39.5t-161 -85t-98.5 -176.5t109 -115zM104 708q0 101 106.5 173.5t249.5 72.5q142 0 211.5 -61.5t69.5 -153.5v-389q0 -164 10.5 -206t29 -62.5t50.5 -20.5t58 15t26 -8q0 -12 -18 -25 q-92 -59 -186 -59q-113 0 -119 137q0 8 -8 4q-29 -20 -115.5 -80.5t-220.5 -60.5q-94 0 -146.5 44t-52.5 125t50.5 134t122 91t151.5 63.5t131 42.5t65.5 26.5t14.5 30.5q0 227 -17.5 279t-46 70.5t-72.5 18.5q-79 0 -137.5 -44t-58.5 -122q0 -27 5 -37t-7 -18 q-57 -33 -101 -33q-45 1 -45 53zM456.5 1430q48.5 0 55.5 -11l256 -342q4 -6 -15.5 -5t-25.5 5l-270 223l-267 -223q-6 -4 -25.5 -5t-14.5 5l251 342q7 11 55.5 11z" />
<glyph unicode="&#xe3;" horiz-adv-x="935" d="M326 57q51 0 116.5 24.5t116.5 70.5q23 17 23 53v268q-43 -16 -105.5 -39.5t-161 -85t-98.5 -176.5t109 -115zM104 708q0 101 106.5 173.5t249.5 72.5q142 0 211.5 -61.5t69.5 -153.5v-389q0 -164 10.5 -206t29 -62.5t50.5 -20.5t58 15t26 -8q0 -12 -18 -25 q-92 -59 -186 -59q-113 0 -119 137q0 8 -8 4q-29 -20 -115.5 -80.5t-220.5 -60.5q-94 0 -146.5 44t-52.5 125t50.5 134t122 91t151.5 63.5t131 42.5t65.5 26.5t14.5 30.5q0 227 -17.5 279t-46 70.5t-72.5 18.5q-79 0 -137.5 -44t-58.5 -122q0 -27 5 -37t-7 -18 q-57 -33 -101 -33q-45 1 -45 53zM494 1248q105 -36 140 -36t65 10.5t65 57.5q4 4 14 -2t5 -15q-27 -49 -80 -98t-106 -49q-64 0 -174.5 36t-142.5 36t-62 -10.5t-64 -57.5q-4 -4 -15.5 1.5t-5.5 15.5t23.5 35.5t64 68.5t107.5 43t166 -36z" />
<glyph unicode="&#xe4;" horiz-adv-x="935" d="M326 57q51 0 116.5 24.5t116.5 70.5q23 17 23 53v268q-43 -16 -105.5 -39.5t-161 -85t-98.5 -176.5t109 -115zM104 708q0 101 106.5 173.5t249.5 72.5q142 0 211.5 -61.5t69.5 -153.5v-389q0 -164 10.5 -206t29 -62.5t50.5 -20.5t58 15t26 -8q0 -12 -18 -25 q-92 -59 -186 -59q-113 0 -119 137q0 8 -8 4q-29 -20 -115.5 -80.5t-220.5 -60.5q-94 0 -146.5 44t-52.5 125t50.5 134t122 91t151.5 63.5t131 42.5t65.5 26.5t14.5 30.5q0 227 -17.5 279t-46 70.5t-72.5 18.5q-79 0 -137.5 -44t-58.5 -122q0 -27 5 -37t-7 -18 q-57 -33 -101 -33q-45 1 -45 53zM549 1216.5q0 40.5 27.5 69.5t68.5 29t69.5 -29t28.5 -69.5t-28.5 -68.5t-69.5 -28t-68.5 28t-27.5 68.5zM170 1216.5q0 40.5 27.5 69.5t68.5 29t70 -29t29 -69.5t-29 -68.5t-70 -28t-68.5 28t-27.5 68.5z" />
<glyph unicode="&#xe5;" horiz-adv-x="935" d="M326 57q51 0 116.5 24.5t116.5 70.5q23 17 23 53v268q-43 -16 -105.5 -39.5t-161 -85t-98.5 -176.5t109 -115zM104 708q0 101 106.5 173.5t249.5 72.5q142 0 211.5 -61.5t69.5 -153.5v-389q0 -164 10.5 -206t29 -62.5t50.5 -20.5t58 15t26 -8q0 -12 -18 -25 q-92 -59 -186 -59q-113 0 -119 137q0 8 -8 4q-29 -20 -115.5 -80.5t-220.5 -60.5q-94 0 -146.5 44t-52.5 125t50.5 134t122 91t151.5 63.5t131 42.5t65.5 26.5t14.5 30.5q0 227 -17.5 279t-46 70.5t-72.5 18.5q-79 0 -137.5 -44t-58.5 -122q0 -27 5 -37t-7 -18 q-57 -33 -101 -33q-45 1 -45 53zM340 1233q0 -49 33 -82t82 -33t83.5 33t34.5 82t-34.5 84t-83.5 35t-82 -35t-33 -84zM289 1235q0 72 48 120t119.5 48t120 -48t48.5 -120t-48.5 -120t-120 -48t-119.5 48t-48 120z" />
<glyph unicode="&#xe6;" horiz-adv-x="1452" d="M578 442v25q-151 -54 -255 -117.5t-104 -175.5q0 -113 109 -113q100 0 184 55.5t117 88.5q-51 100 -51 237zM818.5 817.5q-66.5 -87.5 -83.5 -217.5l426 16q29 2 34 10t9 36t-7 74t-52.5 107.5t-150.5 61.5t-175.5 -87.5zM647 174q-201 -190 -417 -190q-74 0 -126.5 44 t-52.5 125t50.5 134t122 91t151.5 63.5t136 42.5t71 32q2 14 3 27.5t5 25.5q0 199 -20.5 251t-49 68.5t-70.5 16.5q-81 0 -138.5 -43t-57.5 -119q0 -27 5 -37t-7 -18q-57 -33 -101 -33q-45 1 -45 53q0 101 106.5 173.5t262.5 72.5q98 0 156.5 -37.5t81.5 -97.5 q126 135 299 135t262 -97.5t98 -240.5q3 -43 -31 -43q-203 0 -610 -22v-31q0 -182 95.5 -321.5t271.5 -139.5q143 0 254 84q16 12 28 0t-6 -24q-146 -135 -358 -135q-111 0 -210 46t-159 144z" />
<glyph unicode="&#xe7;" horiz-adv-x="921" d="M411 -305q154 0 154 78q0 45 -18.5 58t-41 21.5t-39.5 20.5t-15 51l2 60q-173 4 -293.5 124.5t-120.5 336.5t145.5 362.5t347.5 146.5q201 0 253.5 -75.5t52.5 -124.5q0 -82 -45.5 -88.5t-108.5 26.5q-6 4 1 24t7 66t-43 86.5t-123 40.5q-150 0 -236.5 -121t-86.5 -313 q0 -191 98 -300t242 -109t262 94q24 18 35.5 7t-15.5 -36q-138 -138 -329 -147v-39q0 -27 26.5 -36t59 -19.5t60.5 -29t28 -57.5q0 -70 -81.5 -107.5t-178.5 -33.5q-23 0 -23 16.5t24 16.5z" />
<glyph unicode="&#xe8;" horiz-adv-x="937" d="M292.5 817.5q-66.5 -91.5 -83.5 -221.5l426 16q29 2 34 10t9 36t-7.5 76t-53 111.5t-149.5 63.5q-109 0 -175.5 -91.5zM205 520q0 -184 95 -324.5t271 -140.5q137 0 254 88q16 12 29 0t-6 -24q-146 -135 -345 -135t-325.5 120t-126.5 340t127.5 365t321.5 145 q159 0 248 -97.5t98 -240.5q3 -43 -31 -43q-203 0 -610 -22v-31zM299 1423q-9 9 6 17q78 25 156 -21q10 -6 16 -14l146 -328q2 -6 -17.5 -7t-25.5 7z" />
<glyph unicode="&#xe9;" horiz-adv-x="937" d="M292.5 817.5q-66.5 -91.5 -83.5 -221.5l426 16q29 2 34 10t9 36t-7.5 76t-53 111.5t-149.5 63.5q-109 0 -175.5 -91.5zM205 520q0 -184 95 -324.5t271 -140.5q137 0 254 88q16 12 29 0t-6 -24q-146 -135 -345 -135t-325.5 120t-126.5 340t127.5 365t321.5 145 q159 0 248 -97.5t98 -240.5q3 -43 -31 -43q-203 0 -610 -22v-31zM317.5 1071q-14.5 0 -19.5 1t-3 5l145 328q6 9 31 23t68 18t60 -2t21.5 -10t-2.5 -11l-280 -346q-6 -6 -20.5 -6z" />
<glyph unicode="&#xea;" horiz-adv-x="937" d="M292.5 817.5q-66.5 -91.5 -83.5 -221.5l426 16q29 2 34 10t9 36t-7.5 76t-53 111.5t-149.5 63.5q-109 0 -175.5 -91.5zM205 520q0 -184 95 -324.5t271 -140.5q137 0 254 88q16 12 29 0t-6 -24q-146 -135 -345 -135t-325.5 120t-126.5 340t127.5 365t321.5 145 q159 0 248 -97.5t98 -240.5q3 -43 -31 -43q-203 0 -610 -22v-31zM456.5 1430q48.5 0 55.5 -11l256 -342q4 -6 -15.5 -5t-25.5 5l-270 223l-267 -223q-6 -4 -25.5 -5t-14.5 5l251 342q7 11 55.5 11z" />
<glyph unicode="&#xeb;" horiz-adv-x="937" d="M292.5 817.5q-66.5 -91.5 -83.5 -221.5l426 16q29 2 34 10t9 36t-7.5 76t-53 111.5t-149.5 63.5q-109 0 -175.5 -91.5zM205 520q0 -184 95 -324.5t271 -140.5q137 0 254 88q16 12 29 0t-6 -24q-146 -135 -345 -135t-325.5 120t-126.5 340t127.5 365t321.5 145 q159 0 248 -97.5t98 -240.5q3 -43 -31 -43q-203 0 -610 -22v-31zM551 1216.5q0 40.5 27.5 69.5t68.5 29t69.5 -29t28.5 -69.5t-28.5 -68.5t-69.5 -28t-68.5 28t-27.5 68.5zM172 1216.5q0 40.5 27.5 69.5t68.5 29t70 -29t29 -69.5t-29 -68.5t-70 -28t-68.5 28t-27.5 68.5z " />
<glyph unicode="&#xec;" horiz-adv-x="528" d="M12 1423q-9 9 6 17q78 25 156 -21q10 -6 16 -14l146 -328q2 -6 -17.5 -7t-25.5 7zM332 738v-476q0 -157 14 -188t42 -41t66 -10q38 -1 38 -15t-25 -14l-213 6l-205 -6q-25 0 -24 14q1 15 35 15q75 0 94.5 38.5t19.5 183.5v203q0 203 -4 268t-26 94.5t-68 31.5t-46 16 t48 20q124 17 233 78q4 2 7.5 4t10.5 2t7 -14q-4 -172 -4 -210z" />
<glyph unicode="&#xed;" horiz-adv-x="528" d="M123 1071q-14 0 -19.5 1t-3.5 5l146 328q6 9 30 23t67 18t61 -2t22 -10t-2 -11l-281 -346q-6 -6 -20 -6zM332 738v-476q0 -157 14 -188t42 -41t66 -10q38 -1 38 -15t-25 -14l-213 6l-205 -6q-25 0 -24 14q1 15 35 15q75 0 94.5 38.5t19.5 183.5v203q0 203 -4 268 t-26 94.5t-68 31.5t-46 16t48 20q124 17 233 78q4 2 7.5 4t10.5 2t7 -14q-4 -172 -4 -210z" />
<glyph unicode="&#xee;" horiz-adv-x="528" d="M248 1430q48 0 55 -11l256 -342q4 -6 -15.5 -5t-25.5 5l-270 223l-266 -223q-6 -4 -25.5 -5t-15.5 5l252 342q7 11 55 11zM332 738v-476q0 -157 14 -188t42 -41t66 -10q38 -1 38 -15t-25 -14l-213 6l-205 -6q-25 0 -24 14q1 15 35 15q75 0 94.5 38.5t19.5 183.5v203 q0 203 -4 268t-26 94.5t-68 31.5t-46 16t48 20q124 17 233 78q4 2 7.5 4t10.5 2t7 -14q-4 -172 -4 -210z" />
<glyph unicode="&#xef;" horiz-adv-x="528" d="M340 1216.5q0 40.5 27.5 69.5t68.5 29t70 -29t29 -69.5t-29 -68.5t-70 -28t-68.5 28t-27.5 68.5zM-39 1216.5q0 40.5 27.5 69.5t68.5 29t70 -29t29 -69.5t-29 -68.5t-70 -28t-68.5 28t-27.5 68.5zM332 738v-476q0 -157 14 -188t42 -41t66 -10q38 -1 38 -15t-25 -14 l-213 6l-205 -6q-25 0 -24 14q1 15 35 15q75 0 94.5 38.5t19.5 183.5v203q0 203 -4 268t-26 94.5t-68 31.5t-46 16t48 20q124 17 233 78q4 2 7.5 4t10.5 2t7 -14q-4 -172 -4 -210z" />
<glyph unicode="&#xf0;" horiz-adv-x="1118" d="M309.5 142.5q86.5 -103.5 214.5 -103.5q98 0 168 63.5t111 157.5t57.5 202.5t7.5 199.5q-59 86 -144.5 144t-159.5 58t-131.5 -30.5t-133.5 -125.5t-76 -278q0 -184 86.5 -287.5zM274 1562.5q0 14.5 56 2.5q121 -26 258 -127l205 118q4 0 8 -2l16 -43q4 -6 -4 -14 l-172 -100q183 -155 291 -382.5t108 -443.5q0 -279 -130.5 -433t-352.5 -154q-221 0 -360.5 150.5t-139.5 344.5q0 195 111 333t299 138q187 0 277 -88t120 -133q-23 199 -102.5 358.5t-190.5 270.5l-206 -119q-4 0 -9 2l-16 43q-4 6 4 14l180 103q-111 94 -225 137 q-25 10 -25 24.5z" />
<glyph unicode="&#xf1;" horiz-adv-x="1157" d="M614.5 1248q106.5 -36 141.5 -36q34 0 64 10.5t65 57.5q4 4 14 -2t5 -15q-27 -49 -80 -98t-106 -49q-64 0 -174.5 36t-142.5 36t-62 -10.5t-65 -57.5q-4 -4 -15 1.5t-5 15.5t23.5 35.5t64 68.5t106.5 43t166.5 -36zM698 954q277 0 277 -366v-326q0 -158 14.5 -188.5 t42 -40.5t65.5 -10q38 -1 38 -15t-25 -14l-215 6l-182 -6q-25 0 -25 14t31 15q65 0 80.5 37.5t15.5 212.5t-2 275t-18.5 210t-169.5 110q-97 0 -180.5 -57.5t-127.5 -118.5q-8 -12 -8 -28v-402q0 -158 14.5 -188.5t42 -40.5t65.5 -10q38 -1 38 -15t-25 -14l-215 6l-198 -6 q-25 0 -25 14t34 15q74 0 92 40.5t18 183.5v261q0 262 -26 295t-71 35t-45 16t48 20q121 17 233 78q4 2 7 4t10 2t7 -12t-1 -37.5t-2 -56.5l-2 -62t-1 -49q174 213 391 213z" />
<glyph unicode="&#xf2;" horiz-adv-x="1110" d="M789.5 765.5q-80.5 145.5 -243.5 145.5t-243 -129t-80 -300t83.5 -312t244.5 -141t240 121.5t79 295.5t-80.5 319.5zM896 120.5q-144 -136.5 -353 -136.5t-348.5 129t-139.5 346q0 216 137.5 355.5t351.5 139.5t355 -136.5t141 -348.5t-144 -348.5zM395 1423q-9 9 6 17 q78 25 156 -21q10 -6 16 -14l146 -328q2 -6 -17.5 -7t-25.5 7z" />
<glyph unicode="&#xf3;" horiz-adv-x="1110" d="M789.5 765.5q-80.5 145.5 -243.5 145.5t-243 -129t-80 -300t83.5 -312t244.5 -141t240 121.5t79 295.5t-80.5 319.5zM896 120.5q-144 -136.5 -353 -136.5t-348.5 129t-139.5 346q0 216 137.5 355.5t351.5 139.5t355 -136.5t141 -348.5t-144 -348.5zM413.5 1071 q-14.5 0 -19.5 1t-3 5l146 328q7 9 31 23t67 18t61 -2t21.5 -10t-2.5 -11l-281 -346q-6 -6 -20.5 -6z" />
<glyph unicode="&#xf4;" horiz-adv-x="1110" d="M789.5 765.5q-80.5 145.5 -243.5 145.5t-243 -129t-80 -300t83.5 -312t244.5 -141t240 121.5t79 295.5t-80.5 319.5zM896 120.5q-144 -136.5 -353 -136.5t-348.5 129t-139.5 346q0 216 137.5 355.5t351.5 139.5t355 -136.5t141 -348.5t-144 -348.5zM553 1430q48 0 55 -11 l256 -342q4 -6 -15.5 -5t-25.5 5l-270 223l-266 -223q-6 -4 -25.5 -5t-15.5 5l252 342q7 11 55 11z" />
<glyph unicode="&#xf5;" horiz-adv-x="1110" d="M789.5 765.5q-80.5 145.5 -243.5 145.5t-243 -129t-80 -300t83.5 -312t244.5 -141t240 121.5t79 295.5t-80.5 319.5zM896 120.5q-144 -136.5 -353 -136.5t-348.5 129t-139.5 346q0 216 137.5 355.5t351.5 139.5t355 -136.5t141 -348.5t-144 -348.5zM590.5 1248 q106.5 -36 141.5 -36q34 0 63.5 10.5t64.5 57.5q4 4 14.5 -2t5.5 -15q-28 -50 -81.5 -98.5t-105.5 -48.5q-63 0 -174 36t-143 36t-61.5 -10.5t-64.5 -57.5q-4 -4 -15.5 1.5t-5.5 15.5t23.5 35.5t65 68.5t106.5 43q60 0 166.5 -36z" />
<glyph unicode="&#xf6;" horiz-adv-x="1110" d="M789.5 765.5q-80.5 145.5 -243.5 145.5t-243 -129t-80 -300t83.5 -312t244.5 -141t240 121.5t79 295.5t-80.5 319.5zM896 120.5q-144 -136.5 -353 -136.5t-348.5 129t-139.5 346q0 216 137.5 355.5t351.5 139.5t355 -136.5t141 -348.5t-144 -348.5zM647 1216.5 q0 40.5 27.5 69.5t68.5 29t70 -29t29 -69.5t-29 -68.5t-70 -28t-68.5 28t-27.5 68.5zM268 1216.5q0 40.5 28 69.5t69 29t69.5 -29t28.5 -69.5t-28.5 -68.5t-69.5 -28t-69 28t-28 68.5z" />
<glyph unicode="&#xf7;" horiz-adv-x="1222" d="M518 446.5q0 40.5 27.5 69.5t68.5 29t70 -29t29 -69.5t-29 -68.5t-70 -28t-68.5 28t-27.5 68.5zM518 1112q0 41 27.5 69.5t68.5 28.5t70 -28.5t29 -69.5t-29 -68.5t-70 -27.5t-68.5 27.5t-27.5 68.5zM186 750q-6 0 -6 6l6 45q0 8 11 8h845q6 0 7 -6l-7 -45q0 -8 -10 -8 h-846z" />
<glyph unicode="&#xf8;" horiz-adv-x="1110" d="M328.5 832.5q-115.5 -72.5 -115.5 -371.5q0 -192 106 -322l343 735q-64 31 -141 31t-192.5 -72.5zM860 450q0 174 -53 264.5t-94 125.5l-348 -746q71 -59 167 -59q171 0 249.5 120.5t78.5 294.5zM45 440q0 235 137.5 374.5t354.5 139.5q78 0 151 -22l43 92q2 6 12 6 l43 -14q4 -2 5 -8l-46 -97q129 -55 207 -171.5t78 -270.5q0 -210 -143.5 -347.5t-356.5 -137.5q-109 0 -200 36l-37 -81q-4 -6 -12 -7l-43 15q-4 2 -5 8l43 92q-104 57 -167.5 161.5t-63.5 231.5z" />
<glyph unicode="&#xf9;" horiz-adv-x="1130" d="M948 225q0 -39 2 -64.5t20.5 -47t114.5 -21.5q10 0 17.5 -1t7.5 -11t-7 -12t-81 -14t-201 -66q-31 -14 -30 18l8 115q0 14 -13 2q-152 -139 -353 -139t-249.5 120.5t-48.5 245.5v150q0 149 -3 214t-25.5 93.5t-68.5 30.5t-44 16q0 14 47 20q127 18 185.5 51t65.5 33 t7 -14l-6 -203v-424q0 -118 31.5 -167.5t73.5 -73t119 -23.5q134 0 249 105q22 19 22 53v494q-4 74 -26.5 102.5t-67.5 30.5t-45 16q-1 14 47 20q121 17 234 78q4 2 7 4t10 2t7 -14l-6 -203v-516zM395 1423q-9 9 6 17q78 25 156 -21q10 -6 16 -14l146 -328q2 -6 -17.5 -7 t-25.5 7z" />
<glyph unicode="&#xfa;" horiz-adv-x="1130" d="M948 225q0 -39 2 -64.5t20.5 -47t114.5 -21.5q10 0 17.5 -1t7.5 -11t-7 -12t-81 -14t-201 -66q-31 -14 -30 18l8 115q0 14 -13 2q-152 -139 -353 -139t-249.5 120.5t-48.5 245.5v150q0 149 -3 214t-25.5 93.5t-68.5 30.5t-44 16q0 14 47 20q127 18 185.5 51t65.5 33 t7 -14l-6 -203v-424q0 -118 31.5 -167.5t73.5 -73t119 -23.5q134 0 249 105q22 19 22 53v494q-4 74 -26.5 102.5t-67.5 30.5t-45 16q-1 14 47 20q121 17 234 78q4 2 7 4t10 2t7 -14l-6 -203v-516zM383 1071q-14 0 -19.5 1t-3.5 5l146 328q6 9 30 23t67 18t61 -2t22 -10 t-2 -11l-281 -346q-6 -6 -20 -6z" />
<glyph unicode="&#xfb;" horiz-adv-x="1130" d="M948 225q0 -39 2 -64.5t20.5 -47t114.5 -21.5q10 0 17.5 -1t7.5 -11t-7 -12t-81 -14t-201 -66q-31 -14 -30 18l8 115q0 14 -13 2q-152 -139 -353 -139t-249.5 120.5t-48.5 245.5v150q0 149 -3 214t-25.5 93.5t-68.5 30.5t-44 16q0 14 47 20q127 18 185.5 51t65.5 33 t7 -14l-6 -203v-424q0 -118 31.5 -167.5t73.5 -73t119 -23.5q134 0 249 105q22 19 22 53v494q-4 74 -26.5 102.5t-67.5 30.5t-45 16q-1 14 47 20q121 17 234 78q4 2 7 4t10 2t7 -14l-6 -203v-516zM528.5 1430q48.5 0 55.5 -11l256 -342q4 -6 -15.5 -5t-25.5 5l-271 223 l-266 -223q-6 -4 -25.5 -5t-15.5 5l252 342q7 11 55.5 11z" />
<glyph unicode="&#xfc;" horiz-adv-x="1130" d="M948 225q0 -39 2 -64.5t20.5 -47t114.5 -21.5q10 0 17.5 -1t7.5 -11t-7 -12t-81 -14t-201 -66q-31 -14 -30 18l8 115q0 14 -13 2q-152 -139 -353 -139t-249.5 120.5t-48.5 245.5v150q0 149 -3 214t-25.5 93.5t-68.5 30.5t-44 16q0 14 47 20q127 18 185.5 51t65.5 33 t7 -14l-6 -203v-424q0 -118 31.5 -167.5t73.5 -73t119 -23.5q134 0 249 105q22 19 22 53v494q-4 74 -26.5 102.5t-67.5 30.5t-45 16q-1 14 47 20q121 17 234 78q4 2 7 4t10 2t7 -14l-6 -203v-516zM233 1216.5q0 40.5 28 69.5t69 29t69.5 -29t28.5 -69.5t-28.5 -68.5 t-69.5 -28t-69 28t-28 68.5zM612 1216.5q0 40.5 28 69.5t69 29t69.5 -29t28.5 -69.5t-28.5 -68.5t-69.5 -28t-69 28t-28 68.5z" />
<glyph unicode="&#xfd;" horiz-adv-x="1230" d="M176 -604q-59 0 -90 29.5t-31 68.5t19.5 79.5t34.5 23.5q33 -46 101 -46q190 0 355 408q-23 45 -199 444t-238 456t-110 59q-49 2 -49 16t9 14l227 -6l215 6q35 0 35 -14t-36 -16q-82 -5 -85 -45t59 -193q10 -29 37 -88.5t76.5 -172t132.5 -288.5q27 63 60.5 145 t79.5 192t80 201t44 137t1 69.5t-36.5 32t-61.5 10.5t-34 16t33 14l196 -6l173 6q31 0 30.5 -14t-32.5 -15q-75 -2 -121.5 -45.5t-167.5 -312.5t-200 -456q-167 -396 -273.5 -552.5t-233.5 -156.5zM463 1071q-14 0 -19.5 1t-3.5 5l146 328q6 9 30 23t67 18t61 -2t22 -10 t-2 -11l-281 -346q-6 -6 -20 -6z" />
<glyph unicode="&#xfe;" horiz-adv-x="1091" d="M260 664v-525q80 -104 239 -104t240.5 117t81.5 316q0 198 -71.5 301t-196.5 103q-78 0 -159 -50t-126 -130q-8 -12 -8 -28zM-43 -601q0 15 35 15q77 0 93.5 43t16.5 234v765q0 766 -4 831t-26.5 94.5t-67.5 31.5t-45 16q-1 14 47 21q48 6 119 30t97 46t35 22t9 -14 l-3 -333q-3 -333 -4 -393t-1 -67q55 102 153.5 157.5t200.5 55.5q186 0 284.5 -122t98.5 -312q0 -235 -147 -385.5t-356 -150.5q-134 0 -232 57v-27v-94l2 -229q0 -172 17.5 -211t46 -52.5t65.5 -13.5t37 -15t-25 -15l-217 6l-204 -6q-25 0 -25 15z" />
<glyph unicode="&#xff;" horiz-adv-x="1230" d="M176 -604q-59 0 -90 29.5t-31 68.5t19.5 79.5t34.5 23.5q33 -46 101 -46q190 0 355 408q-23 45 -199 444t-238 456t-110 59q-49 2 -49 16t9 14l227 -6l215 6q35 0 35 -14t-36 -16q-82 -5 -85 -45t59 -193q10 -29 37 -88.5t76.5 -172t132.5 -288.5q27 63 60.5 145 t79.5 192t80 201t44 137t1 69.5t-36.5 32t-61.5 10.5t-34 16t33 14l196 -6l173 6q31 0 30.5 -14t-32.5 -15q-75 -2 -121.5 -45.5t-167.5 -312.5t-200 -456q-167 -396 -273.5 -552.5t-233.5 -156.5zM317 1216.5q0 40.5 28 69.5t69 29t69.5 -29t28.5 -69.5t-28.5 -68.5 t-69.5 -28t-69 28t-28 68.5zM696 1216.5q0 40.5 28 69.5t69 29t69.5 -29t28.5 -69.5t-28.5 -68.5t-69.5 -28t-69 28t-28 68.5z" />
<glyph unicode="&#x152;" horiz-adv-x="1986" d="M864 1491q-248 0 -412.5 -170.5t-164.5 -506.5t139 -494t256 -212.5t223 -54.5t170 17l1 176l-1 1212q-96 33 -211 33zM877 -16q-205 0 -352.5 71.5t-242 184t-139.5 250t-45 268.5t46 270t142.5 254t248 188.5t364.5 73.5q61 0 123 -8h356q356 0 443 12q10 2 17 14.5 t19 9.5t-4 -64q-15 -62 -22 -201q0 -25 -15 -25t-16 29t-12 84q-10 39 -75.5 55t-172.5 23l-289 6q-12 0 -12 -21v-598q0 -16 8 -16h219q218 0 264.5 16.5t61.5 37.5q14 21 23 22q12 0 10 -17q-25 -148 -25 -264q0 -25 -14 -25t-14 25q0 70 -25 102.5t-87 38.5t-104 6h-180 q-137 0 -137 -10v-332q0 -333 21 -356q15 -22 61 -27.5t115 -5.5l139 -1q139 0 189 20q93 36 116 180q6 25 18 25q11 1 11 -15t-2 -42.5t-6.5 -58.5t-8.5 -63.5t-11 -60.5t-27.5 -38t-79.5 -9l-611 8q-71 0 -133 -4q-74 -12 -153 -12z" />
<glyph unicode="&#x153;" horiz-adv-x="1759" d="M1101.5 816.5q-66.5 -86.5 -83.5 -216.5l426 16q29 2 34 10t9 36t-7.5 74t-53 106.5t-150.5 60.5q-108 0 -174.5 -86.5zM780 760.5q-80 144.5 -243 144.5q-164 0 -244 -126t-80 -297q0 -170 83.5 -308.5t244.5 -138.5q162 0 240.5 120.5t78.5 290.5t-80 314.5zM1014 520 q0 -182 95 -320.5t271 -138.5q145 0 254 82q16 12 29 0t-6 -24q-146 -135 -359 -135q-113 0 -212 48t-158 148q-63 -92 -166.5 -144t-217.5 -52q-220 0 -359.5 129t-139.5 346q0 216 137.5 355.5t354.5 139.5q135 0 238.5 -57t164.5 -156q59 98 154.5 155.5t197.5 57.5 q176 0 265 -97.5t98 -240.5q3 -43 -31 -43q-208 0 -610 -22v-31z" />
<glyph unicode="&#x178;" horiz-adv-x="1546" d="M1100 1528q0 14 26 14l164 -6l197 6q24 0 24 -14q1 -14 -35 -14q-75 -1 -135.5 -55.5t-214.5 -313t-272 -469.5v-455q0 -119 19.5 -148.5t50 -39.5t69.5 -10q39 -1 39 -15t-24 -14l-60 2l-399 -2q-25 0 -25 14t37 15q76 0 100.5 46t24.5 149v439q-88 153 -174 295 t-131 217.5t-74 119.5q-85 129 -132 176.5t-132 47.5q-27 0 -27 14.5t25 14.5l217 -6l205 6q25 0 24 -12q-1 -16 -37 -16t-52.5 -29t28.5 -105t86 -148.5t85 -149t92 -160.5t106 -181q8 -16 16 0q93 166 164.5 289.5t159.5 284.5q51 104 59 151t-68 47q-26 1 -26 15z M485 1765q0 41 28 70t69 29t69.5 -29t28.5 -70t-28.5 -68.5t-69.5 -27.5t-69 27.5t-28 68.5zM864 1765q0 41 28 70t68.5 29t69.5 -29t29 -70t-29 -68.5t-69.5 -27.5t-68.5 27.5t-28 68.5z" />
<glyph unicode="&#x2c6;" horiz-adv-x="956" d="M477 1430q48 0 55 -11l256 -342q4 -6 -15 -5t-25 5l-271 223l-266 -223q-6 -4 -25.5 -5t-15.5 5l252 342q7 11 55 11z" />
<glyph unicode="&#x2dc;" horiz-adv-x="878" d="M459.5 1248q106.5 -36 140.5 -36t64 10.5t65 57.5q4 4 14.5 -2t5.5 -15q-28 -50 -81.5 -98.5t-105.5 -48.5q-63 0 -174 36t-143 36t-61.5 -10.5t-64.5 -57.5q-4 -4 -15.5 1.5t-5.5 15.5t23.5 35.5t65 68.5t106.5 43q60 0 166.5 -36z" />
<glyph unicode="&#x2000;" horiz-adv-x="971" />
<glyph unicode="&#x2001;" horiz-adv-x="1943" />
<glyph unicode="&#x2002;" horiz-adv-x="971" />
<glyph unicode="&#x2003;" horiz-adv-x="1943" />
<glyph unicode="&#x2004;" horiz-adv-x="647" />
<glyph unicode="&#x2005;" horiz-adv-x="485" />
<glyph unicode="&#x2006;" horiz-adv-x="323" />
<glyph unicode="&#x2007;" horiz-adv-x="323" />
<glyph unicode="&#x2008;" horiz-adv-x="242" />
<glyph unicode="&#x2009;" horiz-adv-x="388" />
<glyph unicode="&#x200a;" horiz-adv-x="107" />
<glyph unicode="&#x2010;" horiz-adv-x="768" d="M717 844q0 -12 -25 -13q-221 -11 -398 -55.5t-204 -63t-36 -18.5t-3 25q21 47 39 110q3 13 23 13q350 20 579 14q25 0 25 -12z" />
<glyph unicode="&#x2011;" horiz-adv-x="768" d="M717 844q0 -12 -25 -13q-221 -11 -398 -55.5t-204 -63t-36 -18.5t-3 25q21 47 39 110q3 13 23 13q350 20 579 14q25 0 25 -12z" />
<glyph unicode="&#x2012;" horiz-adv-x="768" d="M717 844q0 -12 -25 -13q-221 -11 -398 -55.5t-204 -63t-36 -18.5t-3 25q21 47 39 110q3 13 23 13q350 20 579 14q25 0 25 -12z" />
<glyph unicode="&#x2013;" horiz-adv-x="983" d="M10 750q-6 0 -6 6l6 45q0 8 10 8h928q6 0 6 -6l-6 -45q0 -8 -10 -8h-928z" />
<glyph unicode="&#x2014;" horiz-adv-x="1421" d="M23 750q-6 0 -7 6l7 45q0 8 10 8h1358q6 0 6 -6l-6 -45q0 -8 -11 -8h-1357z" />
<glyph unicode="&#x2018;" horiz-adv-x="399" d="M297 1330q0 -40 -32 -73.5t-82 -33.5t-76.5 34.5t-26.5 80.5q0 142 176 329q17 20 30 13q12 -6 -12 -35q-54 -64 -63 -148.5t57 -99.5q29 -27 29 -67z" />
<glyph unicode="&#x2019;" horiz-adv-x="399" d="M80 1578q0 40 31.5 74t81.5 34t77 -35t27 -81q0 -142 -176 -329q-17 -20 -30 -13q-13 6 11 35q56 69 64.5 149t-57.5 99q-29 27 -29 67z" />
<glyph unicode="&#x201a;" horiz-adv-x="462" d="M121 102q0 40 31.5 73.5t81.5 33.5t77 -35t27 -81q0 -142 -176 -329q-17 -20 -30 -13q-14 7 10 36q56 69 65 149t-57 99q-29 27 -29 67z" />
<glyph unicode="&#x201c;" horiz-adv-x="708" d="M493 1223q-50 0 -77 34.5t-27 80.5q0 135 139 288q49 55 55.5 56t10.5 -1q14 -7 -10 -36q-54 -64 -63.5 -148.5t57.5 -99.5q28 -27 28 -67t-31.5 -73.5t-81.5 -33.5zM297 1330q0 -40 -32 -73.5t-82 -33.5t-76.5 34.5t-26.5 80.5q0 142 176 329q17 20 30 13q12 -6 -12 -35 q-54 -64 -63 -148.5t57 -99.5q29 -27 29 -67z" />
<glyph unicode="&#x201d;" horiz-adv-x="708" d="M80 1578q0 40 31.5 74t81.5 34t77 -35t27 -81q0 -142 -176 -329q-17 -20 -30 -13q-13 6 11 35q56 69 64.5 149t-57.5 99q-29 27 -29 67zM389 1578q0 40 32 74t82 34t76.5 -35t26.5 -81q0 -142 -176 -329q-16 -19 -29 -13t11 35q55 68 63.5 148.5t-57.5 99.5 q-29 27 -29 67z" />
<glyph unicode="&#x201e;" horiz-adv-x="772" d="M121 102q0 40 31.5 73.5t81.5 33.5t77 -35t27 -81q0 -142 -176 -329q-17 -20 -30 -13q-14 7 10 36q56 69 65 149t-57 99q-29 27 -29 67zM430 102q0 40 32 73.5t82 33.5t76.5 -35t26.5 -81q0 -142 -176 -329q-17 -20 -30 -13t11 36q55 68 64 148.5t-57 99.5q-29 27 -29 67 z" />
<glyph unicode="&#x2022;" horiz-adv-x="686" d="M164 841.5q0 69.5 50 119t119.5 49.5t119 -49.5t49.5 -119t-49.5 -119.5t-119 -50t-119.5 50t-50 119.5z" />
<glyph unicode="&#x2026;" horiz-adv-x="1695" d="M1317 96q0 47 32.5 80t80 33t80 -33t32.5 -80t-32.5 -79.5t-80 -32.5t-80 32.5t-32.5 79.5zM735 96q0 47 33 80t80 33t80 -33t33 -80t-33 -79.5t-80 -32.5t-80 32.5t-33 79.5zM154 96q0 47 32.5 80t79.5 33t80 -33t33 -80t-33 -79.5t-80 -32.5t-79.5 32.5t-32.5 79.5z " />
<glyph unicode="&#x202f;" horiz-adv-x="388" />
<glyph unicode="&#x2039;" horiz-adv-x="751" d="M90 762q0 10 10 16l531 314q8 4 8 -5v-32q0 -10 -6 -13l-365 -276q-6 -4 -6 -9t6 -7l365 -277q6 -4 6 -12v-33q0 -8 -8 -4l-531 313q-10 6 -10 17v8z" />
<glyph unicode="&#x203a;" horiz-adv-x="751" d="M639 754q0 -10 -10 -17l-531 -313q-8 -4 -8 4v33q0 8 6 12l365 277q6 2 6 7t-6 9l-365 276q-6 2 -6 13v32q0 8 8 5l531 -314q10 -6 10 -16v-8z" />
<glyph unicode="&#x205f;" horiz-adv-x="485" />
<glyph unicode="&#x20ac;" horiz-adv-x="1363" d="M379 768q0 -70 6 -133h702q6 0 7 -6l-7 -45q0 -8 -10 -9h-682q40 -241 186.5 -385.5t364.5 -144.5q129 0 234.5 52t109.5 157q0 25 16 25t15 -25q0 -137 6 -188q0 -18 -18 -23q-213 -51 -349 -51q-270 0 -477 160.5t-268 422.5h-147q-6 0 -7 7l7 45q0 8 10 8h127 q-10 55 -10 134t10 134h-137q-6 0 -7 6l7 45q0 8 10 9h139q62 261 268.5 421t456.5 160q154 0 367 -51q18 -4 18 -23q-6 -52 -6 -188q1 -25 -15 -25t-17 40t-32.5 80t-106.5 77t-195 37q-227 0 -372 -143t-188 -385h692q6 0 7 -7l-7 -45q0 -8 -10 -8h-690q-8 -65 -8 -135z " />
<glyph unicode="&#x2122;" horiz-adv-x="1863" d="M27 1479q0 33 -4 53t2 22q6 0 9 -5t13 -8q17 -5 55 -5h301q263 0 277 4t18 9t9 5q8 -2 2 -33t-2 -116q0 -14 -7 -14q-10 -4 -10 14q-2 4 -4 19.5t-6 25.5q-8 23 -43 31t-91 10t-130 6v-676q0 -59 12 -83.5t70 -24.5q14 0 14 -7t-14 -8l-33 1l-223 -1q-12 0 -13 9 q0 6 13 6q53 2 63 31.5t10 76.5v676q-78 -4 -131 -6q-122 -5 -131 -41q-10 -25 -10 -45q-4 -16 -10 -14q-8 -1 -7 27t1 61zM1718 1456v-299q0 -299 4 -346t17 -72.5t69 -25.5q15 0 15 -7t-15 -8l-141 4l-117 -4q-12 0 -12 8t28 7q28 0 40 23.5t12 77.5v605q0 4 -4 0 l-324 -669q-16 -35 -20 -43.5t-10.5 -8.5t-12.5 11.5t-88 177.5t-170 351t-90 185.5t-2 -69.5v-290q0 -291 15.5 -321t64.5 -30q12 0 12 -7t-12 -8l-111 4l-112 -4q-14 0 -15 9q0 6 15 6q49 0 61 24.5t14 71.5q4 170 8.5 334t4.5 309q0 72 -82 72q-12 0 -12 8t12 8l190 -6 q12 -27 37 -77t54.5 -112.5t63.5 -133t67.5 -138t62.5 -128t49 -101.5q167 339 217.5 444t62.5 128l58 118q51 -2 93.5 2t68.5 4t26 -8t-28 -8q-64 0 -64 -68z" />
<glyph unicode="&#x25fc;" horiz-adv-x="950" d="M0 950h950v-950h-950v950z" />
<glyph unicode="&#xfb01;" horiz-adv-x="1208" d="M20 9q0 15 35 15q77 1 94 43.5t17 233.5v584h-135q-18 0 -15 14q6 30 25 31q76 0 100.5 24.5t29.5 98.5q5 75 36 167.5t123 211t297 118.5q169 0 268.5 -59.5t99.5 -126.5q0 -33 -63.5 -71t-114.5 -42q-14 0 -14 9q-5 95 -57.5 162t-174.5 67q-211 0 -228 -168t-17 -227 v-152h405q135 0 196.5 10.5t78.5 10.5q10 0 10 -15q-4 -172 -4 -210v-476q0 -157 14 -188t42 -41t66 -10q38 -1 37 -15q0 -14 -24 -14l-213 6l-205 -6q-25 0 -24 14q1 15 35 15q75 0 94.5 38.5t19.5 183.5v267q0 268 -25.5 320.5t-99.5 52.5h-403v-584q0 -170 17 -210 t46 -53t66 -13q37 1 37 -15t-25 -16l-217 6l-205 -6q-25 0 -25 15z" />
<glyph unicode="&#xfb02;" horiz-adv-x="1171" d="M563 1489q-237 0 -237 -395v-152h249q23 0 19 -16l-6 -25q-4 -16 -29 -16h-233v-584q0 -170 17 -210t46 -53t66 -13q37 1 37 -15t-25 -16l-217 6l-205 -6q-25 0 -25 15t35 15q77 1 94 43.5t17 233.5v584h-135q-18 0 -15 14q6 30 25 31q76 0 96.5 20.5t25.5 39t9 78.5 t35 152.5t123 211t297 118.5q154 0 252 -55q43 17 64 35t31 18t9 -14l-1 -212l-3 -1060q0 -154 16.5 -186.5t44 -42.5t65.5 -10q38 -1 38 -15t-25 -14l-219 6l-207 -6q-25 0 -24 14q0 15 34 15q74 0 95.5 40t21.5 162v159l-4 876q0 160 -88 194.5t-164 34.5z" />
</font>
</defs>
</svg>
