<?xml version="1.0" standalone="no"?>
<!DOCTYPE svg PUBLIC "-//W3C//DTD SVG 1.1//EN" "http://www.w3.org/Graphics/SVG/1.1/DTD/svg11.dtd" >
<svg xmlns="http://www.w3.org/2000/svg">
<metadata></metadata>
<defs>
<font id="victoria_oneweb_italic" horiz-adv-x="1484" >
<font-face units-per-em="2048" ascent="1536" descent="-512" />
<missing-glyph horiz-adv-x="471" />
<glyph horiz-adv-x="0" />
<glyph unicode="&#xd;" horiz-adv-x="573" />
<glyph horiz-adv-x="0" />
<glyph horiz-adv-x="0" />
<glyph unicode=" "  horiz-adv-x="471" />
<glyph unicode="&#x09;" horiz-adv-x="471" />
<glyph unicode="&#xa0;" horiz-adv-x="471" />
<glyph unicode="!" horiz-adv-x="471" d="M466 1561q27 0 15 -35q-23 -155 -128 -600.5t-124 -571.5q-4 -25 -18 -24q-16 0 -10 24q17 114 48 522t60 603q5 54 73.5 68t83.5 14zM190 209q44 0 68.5 -26.5t24.5 -73.5t-40 -86t-83 -39t-68.5 26.5t-25.5 73.5t40 86t84 39z" />
<glyph unicode="&#x22;" horiz-adv-x="497" d="M564 1688q70 14 84 14t14 -16q-9 -62 -64 -211.5t-74 -243.5q-4 -25 -20 -25t-10 25q6 131 -3 253t-2 163q5 27 75 41zM297 1688.5q70 13.5 83 13.5t13 -16q-9 -62 -64.5 -213t-72.5 -242q-4 -25 -20.5 -25t-12.5 25q8 117 -0.5 247.5t-1.5 168.5q6 28 76 41.5z" />
<glyph unicode="#" horiz-adv-x="1261" d="M481 674h285l102 350h-286zM176 614q-6 0 -6 7l14 45q0 8 13 8h223l102 350h-225q-6 0 -6 6l14 45q0 8 8 8h226l75 260q2 8 11 9h47q4 0 4 -6l-78 -263h287l76 260q2 8 10 9h47q4 0 4 -6l-78 -263h225q6 0 7 -6l-15 -45q0 -8 -8 -8h-225l-101 -350h226q4 0 4 -6l-13 -45 q-4 -8 -12 -9h-223l-76 -260q-2 -8 -10 -8h-49q-2 0 -2 6l76 262h-285l-76 -260q-2 -8 -10 -8h-49q-2 0 -2 6l75 262h-225z" />
<glyph unicode="$" horiz-adv-x="972" d="M356 1159q0 -58 46.5 -113t117.5 -131l78 490q-97 -12 -169.5 -78.5t-72.5 -167.5zM709 420q0 66 -50.5 128t-117.5 130l-86 -545q172 26 213 123.5t41 163.5zM108.5 416q12.5 0 12.5 -23q7 -138 86 -201t188 -63l94 594q-49 47 -163.5 145.5t-114.5 224.5 q0 162 123.5 259t271.5 106l17 103q4 10 10 10l43 6q6 0 6 -6l-18 -113q126 -6 264 -61q16 -11 14 -23q-10 -35 -18.5 -84.5t-14.5 -81.5t-10 -39.5t-13 -7.5q-18 0 -11 39t-10 80t-67 83t-143 46l-84 -539q49 -49 167 -154.5t118 -234.5q0 -162 -128.5 -276t-281.5 -127 l-16 -94q0 -10 -10 -11l-43 -6q-6 0 -6 6l16 103q-131 0 -222 40.5t-95 50t1 40.5t13 111q8 81 10 89.5t14.5 8.5z" />
<glyph unicode="%" horiz-adv-x="1492" d="M268 -26q-20 19 -20 34q0 16 16 43q300 471 579 886t408 607q6 6 13 4l30 -12q6 -4 0 -10q-256 -399 -504.5 -783.5t-496.5 -777.5q-5 -10 -25 9zM1260.5 646q-37.5 73 -114.5 73q-133 0 -195 -150t-62 -278t37 -193t113 -65q75 0 124 48t92 146t43 222t-37.5 197z M764 283q0 184 110.5 333.5t278.5 149.5q124 0 195 -87t71 -222q0 -179 -111.5 -326t-297.5 -147q-104 0 -175 79.5t-71 219.5zM624 1423q-38 74 -115 74q-131 0 -194 -149.5t-63 -304.5t56 -193.5t114 -38.5t105.5 49t91 149t43.5 220t-38 194zM199.5 843 q-72.5 81 -72.5 241t110.5 310t278.5 150q126 0 198 -88.5t72 -244.5t-114 -302.5t-298 -146.5q-102 0 -174.5 81z" />
<glyph unicode="&#x26;" horiz-adv-x="1232" d="M938 659q149 -77 149 -248q0 -93 -54 -175t-180.5 -167t-326.5 -85t-329 103t-129 278q0 234 179.5 388.5t428.5 190.5q-97 9 -187 86t-90 191q0 145 127 234t275 89q68 0 141 -21.5t87 -28.5q15 -7 10 -33q-19 -96 -26 -143q-7 -46 -10.5 -53.5t-12.5 -7.5q-17 0 -11 40 q14 89 -40.5 142.5t-131.5 53.5q-126 0 -200.5 -90t-74.5 -203t85.5 -176t191.5 -72q32 -4 27 -22q0 -16 -33 -19q-256 -4 -414 -158.5t-158 -392.5q0 -154 82 -241.5t224 -87.5q182 0 319 120t137 279q0 160 -108 227q-45 0 -107.5 1t-120 -9t-97.5 -36.5t-40 -76.5 t25.5 -81t52.5 -40t-13.5 -67.5t-62.5 -58.5q-71 0 -71 123q0 312 248.5 334t336.5 32t146.5 33t58.5 73t-30.5 75.5t-63.5 35.5q-23 9 17.5 67t62.5 58q71 0 71 -140q0 -67 -55.5 -181.5t-304.5 -139.5z" />
<glyph unicode="'" horiz-adv-x="274" d="M306.5 1688q70.5 14 83.5 14t13 -16q-9 -62 -61 -204t-78 -251q-4 -25 -20 -25t-11 25q9 131 0 253t-2 163q5 27 75.5 41z" />
<glyph unicode="(" horiz-adv-x="669" d="M178 537q0 314 143 610t390 473q20 14 23 3t-9 -24q-214 -225 -318 -529t-104 -627q0 -322 150 -560q10 -12 3 -23.5t-34 12.5t-71 83t-108.5 201.5t-64.5 380.5z" />
<glyph unicode=")" horiz-adv-x="669" d="M436 1050q0 316 -151 549q-8 12 -0.5 23.5t33.5 -12.5t70 -83t108.5 -199.5t64.5 -383.5q0 -312 -144 -611t-388 -470q-23 -14 -25 -3t8 23q424 447 424 1167z" />
<glyph unicode="*" horiz-adv-x="839" d="M608 1638q74 0 66 -45q-20 -137 -152 -372q4 0 8 -4q245 81 267 131.5t24 60.5t5 16.5t10 4.5q37 -4 62.5 -44t35.5 -79q9 -62 -35 -80q-135 -44 -369 -21q-4 -8 -4 -10q78 -148 124 -177.5t66.5 -28.5t37.5 3q4 4 10 3t6 -13q0 -32 -34 -80t-63 -66q-61 -39 -79 -8 q-36 63 -57 172t-21 187h-8q-182 -207 -172 -258t16 -64q4 -2 4 -8t-4 -8q-37 -23 -83 -10.5t-70 32.5q-53 45 -25 78q108 122 324 244l-2 8q-223 82 -266.5 49.5t-54.5 -44.5t-17 -7q-23 29 -21 80t25 92q22 65 61 52q69 -23 148.5 -86t128.5 -124l10 7q31 181 12 242.5 t-53 78.5q-17 9 -14 17q23 37 70.5 58t82.5 21z" />
<glyph unicode="+" horiz-adv-x="958" d="M117 750q-4 0 -4 6l12 45q4 8 12 8h367l61 389q4 10 10 10l48 6q6 0 6 -6l-64 -399h375q6 0 6 -6l-14 -45q0 -8 -10 -8h-367l-59 -388q-4 -10 -11 -10l-49 -6q-4 0 -4 6l62 398h-377z" />
<glyph unicode="," horiz-adv-x="468" d="M194 209q28 0 55 -25.5t27 -69.5q0 -120 -174 -282q-57 -53 -63 -54t-12 4q-5 5 21 34q63 69 75.5 134.5t-45.5 84.5q-16 23 -16 55t12 53t30.5 36.5t40 22.5t49.5 7z" />
<glyph unicode="-" horiz-adv-x="749" d="M88 694q-8 0 2 24t24.5 50t24.5 50t29 24q332 20 553 14q22 0 22 -12q-4 -12 -54 -14q-115 -6 -312 -46t-239 -65t-50 -25z" />
<glyph unicode="." horiz-adv-x="483" d="M180 209q31 0 56.5 -26.5t25.5 -73.5t-40 -86t-84 -39t-69.5 26.5t-25.5 60.5t11.5 57.5t29.5 41.5t41.5 28.5t54.5 10.5z" />
<glyph unicode="/" horiz-adv-x="880" d="M920 1606q2 6 12 6l39 -15q6 -4 2 -8l-993 -1650q-6 -6 -13 -7l-37 15q-2 2 -2 8z" />
<glyph unicode="0" horiz-adv-x="1206" d="M999 985q0 224 -65 365t-196 141q-132 0 -263.5 -189.5t-162.5 -431.5t-31 -342q0 -218 63 -354.5t196 -136.5q134 0 265.5 185t162.5 424t31 339zM499 -16q-209 0 -298.5 151.5t-89.5 386.5q0 350 137.5 616t278.5 336t255 70q207 0 298 -149.5t91 -384.5 q0 -359 -140 -623t-279 -333.5t-253 -69.5z" />
<glyph unicode="1" horiz-adv-x="784" d="M672 8q0 -14 -25 -14l-287 6l-311 -6q-23 0 -22.5 14.5t26.5 14.5q76 0 123 4t75 24.5t42 59.5t28 127t25.5 157.5t21 126.5t34.5 202.5t49.5 332.5t34.5 245t8 67t-12 9t-44.5 -15t-77.5 -34.5t-83.5 -40t-61.5 -29.5t-23 2t15 21q301 172 379 225t90 54q22 0 10 -35 q0 -17 -14.5 -88.5t-24.5 -130t-23.5 -134.5t-29.5 -175t-26.5 -165.5t-17.5 -116.5t-14.5 -95.5t-17 -118t-31.5 -210.5q-22 -139 -20 -178.5t29 -65t155 -25.5q21 -1 21 -15z" />
<glyph unicode="2" horiz-adv-x="1015" d="M-35 0q-23 0 -18 20q3 15 33 37q258 225 426 390.5t291.5 372.5t123.5 415q0 135 -64.5 195.5t-149.5 60.5q-152 0 -252 -94t-122 -230q-4 -25 -16 -24.5t-10 20.5q18 147 22 204q4 58 19 76.5t138.5 59.5t234.5 41q190 0 281 -84t91 -231q0 -276 -237.5 -530t-385 -374 t-229.5 -192q-16 -10 0 -10h129q411 0 494 35q76 30 129 176q6 24 19 24t8 -24q-4 -24 -16.5 -64.5t-28 -81.5t-30 -76.5t-21.5 -53.5q-15 -38 -34.5 -48t-76.5 -10h-748z" />
<glyph unicode="3" horiz-adv-x="987" d="M58 373q11 0 6 -44q-12 -117 46 -202.5t197 -85.5q183 0 302.5 139t119.5 307.5t-98 248t-221 89.5q-31 2 -27 19q3 14 57 27t122.5 48t151.5 117t83 231t-75 186.5t-144 37.5q-123 0 -209 -70.5t-109 -206.5q-4 -25 -12 -24q-14 0 -11 30t6 58.5t6 53t4 46t2 40.5 t5 25.5t41 28.5t123 47t190 25q186 0 266.5 -76t80.5 -174t-39 -162.5t-119.5 -128t-249.5 -126.5q-4 -2 -2.5 -4.5t29.5 -4.5t89.5 -22.5t145.5 -85.5t84 -225q0 -239 -189 -395t-429 -156q-196 0 -285 67q-12 12 -9 37t11 62.5t15 75.5t15.5 71t13.5 55t16 21z" />
<glyph unicode="4" horiz-adv-x="1159" d="M817 1313h-2q-100 -111 -187 -208t-169 -186.5t-159 -175.5t-157 -172h557q29 186 56.5 362.5t60.5 379.5zM434 23q53 0 88 4t68 32.5t55 161.5l37 240h-653q-33 0 -29 20q2 16 20 37t54.5 62t95.5 105.5t135 146t156 170t158.5 174.5t143 158.5t111 124t63.5 69.5 t28.5 25.5t21.5 7.5t14.5 -11.5t0.5 -23.5t-8.5 -44t-11.5 -74t-13.5 -89t-18.5 -117q-51 -312 -98 -631h137q41 0 62.5 17.5t32.5 17.5q10 0 4 -20t-19.5 -45t-28.5 -64q-4 -16 -26 -16h-178l-37 -240q-19 -132 9.5 -165t129.5 -33q27 0 23 -15q0 -14 -27 -14l-62 2 l-442 -2q-20 0 -20 14q8 15 24 15z" />
<glyph unicode="5" horiz-adv-x="946" d="M852 1536q80 0 120 5t45 5t4 -7t-9 -35.5t-18.5 -68.5t-20 -81t-15.5 -67t-22 -25q-12 0 -8 24q12 66 -15.5 98.5t-113.5 34.5l-391 11l-89 -363q364 -15 456.5 -178.5t92.5 -284.5t-51 -233.5t-137 -198.5t-196.5 -137t-253.5 -51t-232 67q-12 12 -9 37t11 62.5 t26.5 130t30.5 92.5q17 0 11 -25q-34 -307 204 -307q193 0 316 160t123 355t-141 294t-312 104q-25 0 -20 19l135 557q0 6 10 6h469z" />
<glyph unicode="6" horiz-adv-x="1083" d="M685 924q147 0 230.5 -99.5t83.5 -231.5q0 -133 -44 -239t-119.5 -188t-176 -132t-213.5 -50q-186 0 -285.5 111t-99.5 309t74 376t196 331t276.5 270.5t316.5 183.5q33 14 34 -0.5t-26 -28.5q-355 -200 -493 -439t-179 -395q183 222 425 222zM759.5 753 q-74.5 85 -167.5 85q-94 0 -185.5 -58.5t-160.5 -144.5q-23 -95 -23 -185q0 -183 62.5 -297t193.5 -114q164 0 259.5 155t95.5 314q0 160 -74.5 245z" />
<glyph unicode="7" horiz-adv-x="923" d="M1067 1536q28 0 8 -31q-143 -195 -375 -606.5t-329 -736.5q-10 -33 -10.5 -50.5t-10.5 -31.5t-36.5 -32.5t-57.5 -36t-60.5 -29t-44 -11.5t-10.5 29t42 115t137 275t294 506.5t340 522.5l-483 -6q-138 0 -180.5 -23.5t-65.5 -61.5t-35 -83t-25 -45t4 60t39.5 152 t27.5 108q6 29 24 28q8 0 47 -6t135 -6h625z" />
<glyph unicode="8" horiz-adv-x="1077" d="M913 1282q0 98 -57.5 153.5t-139.5 55.5q-141 0 -225.5 -94.5t-84.5 -217.5t102 -191t151 -99q254 160 254 393zM701.5 675.5q-123.5 84.5 -179.5 121.5q-141 -78 -229 -205.5t-88 -261.5q0 -288 260 -287q149 0 254.5 116.5t105.5 273.5q0 158 -123.5 242.5zM983 466 q0 -92 -47 -184t-166.5 -195t-329.5 -103q-170 0 -278.5 80t-108.5 244t126 294t315 215q-113 75 -173.5 149.5t-60.5 172.5q0 180 138.5 292.5t299.5 112.5q162 0 258.5 -68t96.5 -190q0 -202 -150 -293.5t-211 -122.5q53 -35 105.5 -71.5t93.5 -82.5t66.5 -102t25.5 -148z " />
<glyph unicode="9" horiz-adv-x="1052" d="M889 1127q0 157 -55 259.5t-179 102.5q-160 0 -255 -143.5t-95 -288.5t61.5 -232.5t178.5 -87.5q86 0 172.5 48.5t154.5 146.5q17 126 17 195zM476 655q-157 0 -244 99.5t-87 228.5t45.5 227.5t121 173t174 117.5t202.5 43q180 0 270.5 -108t90.5 -302t-68 -374 t-182.5 -335t-266 -274.5t-319.5 -187.5q-35 -14 -36 0t24 29q249 133 416.5 360.5t238.5 501.5q-78 -96 -185.5 -147.5t-194.5 -51.5z" />
<glyph unicode=":" horiz-adv-x="516" d="M327 954q44 0 70.5 -32.5t19.5 -79.5t-44 -80t-81 -33t-70.5 33t-18.5 80q6 47 43 79.5t81 32.5zM210 209q44 0 70.5 -33t18.5 -80t-45 -79.5t-81 -32.5t-70.5 32.5t-18.5 79.5t45 80t81 33z" />
<glyph unicode=";" horiz-adv-x="471" d="M194 209q28 0 55 -25.5t27 -69.5q0 -120 -174 -282q-57 -53 -63 -54t-12 4q-5 5 21 34q63 69 75.5 134.5t-45.5 84.5q-16 23 -16 55t12 53t30.5 36.5t40 22.5t49.5 7zM298 954q44 0 70.5 -32.5t19.5 -79.5t-44 -80t-81 -33t-70.5 33t-18.5 80q6 47 43 79.5t81 32.5z" />
<glyph unicode="&#x3c;" horiz-adv-x="983" d="M291 777q0 -5 4 -7l559 -412q8 -4 4 -12l-4 -33q-4 -8 -10 -4l-711 449q-8 6 -6 20t12 21l854 448q8 4 8 -4l-6 -33q0 -8 -8 -12l-690 -412q-6 -4 -6 -9z" />
<glyph unicode="=" horiz-adv-x="944" d="M82 545q-6 0 -6 6l14 45q0 8 10 8h803q6 0 6 -6l-14 -45q0 -8 -8 -8h-805zM145 954q-8 0 -4 7l13 45q4 8 12 8h803q6 0 4 -6l-12 -45q0 -8 -11 -9h-805z" />
<glyph unicode="&#x3e;" horiz-adv-x="968" d="M776 779q0 3 -4 7l-559 412q-4 2 -4 12l6 33q0 8 8 4l709 -448q11 -6 8 -20q-2 -13 -14 -21l-852 -449q-10 -6 -6 4l4 33q6 10 8 12l690 412q6 6 6 9z" />
<glyph unicode="?" horiz-adv-x="862" d="M346 358q-86 112 -86 213t94.5 182t255 199.5t160.5 335.5q0 139 -77 171t-138 32q-133 0 -220 -82t-112 -235q-4 -29 -16 -28.5t-7 34.5t8 65t5 55.5t4 47t3 48.5t28 44q148 96 330 96t262 -80t80 -187t-45.5 -185t-113 -140.5t-147 -115t-147.5 -100.5t-112.5 -97 t-44.5 -109t63 -141q12 -14 -2.5 -26.5t-24.5 3.5zM280 209q44 0 70.5 -33t18 -80t-45 -79.5t-80.5 -32.5t-70 32.5t-17.5 79.5t44.5 80t80 33z" />
<glyph unicode="@" horiz-adv-x="1769" d="M627 272q-1 -54 29 -53q52 0 181 123t175.5 234.5t97.5 246.5q-57 36 -121 27q-63 -8 -110.5 -45t-86.5 -97t-65.5 -111.5t-49 -107t-36.5 -109.5t-14 -108zM125 412q0 190 71.5 353t194.5 280.5t284 184t330 66.5q315 0 485.5 -172.5t170.5 -405.5t-107.5 -360 t-203 -176t-199.5 -49t-164.5 46t-44.5 132q9 50 21 89.5t20 68.5l-2 2q-129 -176 -240.5 -254t-176.5 -78t-64 84q0 121 64 262.5t147 231.5q84 90 182.5 133t164.5 46t89.5 -2t46.5 -9l41 26q33 21 17 -11q-18 -35 -107.5 -264.5t-106.5 -369.5q-4 -49 27 -74.5t87 -25.5 t129 37t177.5 153t104.5 349t-149 390.5t-417 157.5q-170 0 -305 -75.5t-228 -195.5t-142.5 -266t-49.5 -294q0 -288 168 -459.5t418 -171.5q86 0 188.5 25.5t188.5 74.5q18 12 28.5 2t-14.5 -26q-213 -127 -459 -127q-124 0 -247 46t-270.5 181.5t-147.5 444.5z" />
<glyph unicode="A" d="M524 664h400q12 0 10 14l-115 612q-2 16 -12 -2l-287 -610q-8 -14 4 -14zM-55 8q1 14 35 14q71 1 118.5 49t96.5 148l647 1278q31 63 51 64q23 0 31 -64l260 -1235q27 -135 62.5 -187t117.5 -52q25 0 25 -14.5t-27 -14.5l-229 6l-193 -6q-20 0 -20 14t34 14t60 27t12 111 l-80 434q-2 10 -14 10h-436q-10 0 -19 -12l-176 -373q-43 -94 -43 -145t82 -51q22 -1 22 -15t-26 -14l-46 2l-325 -2q-20 0 -20 14z" />
<glyph unicode="B" horiz-adv-x="1134" d="M464 872h136q123 47 182.5 147.5t59.5 221.5q0 171 -81 210.5t-145 39.5t-102 -12q-16 -6 -20 -25l-88 -551q0 -16 7 -20q19 -11 51 -11zM492 819h-49q-49 0 -54 -18l-80 -506q-14 -96 -14 -140q0 -69 41 -89.5t122 -20.5q80 0 156 39t153 134.5t77 266.5t-92.5 252.5 t-259.5 81.5zM991 1240.5q0 -107.5 -84 -209.5t-221 -165q233 -31 286.5 -140.5t53.5 -217.5t-49 -207.5t-173 -204t-372 -104.5l-237 8l-201 -6q-20 0 -20.5 14.5t32.5 14.5q67 0 95 52.5t49 178.5q20 125 42.5 265t44 275.5t42.5 269.5t35 225t17 122t-12.5 63t-111.5 39 q-20 0 -20.5 14.5t24.5 14.5l225 -6l209 8q233 0 289.5 -98t56.5 -205.5z" />
<glyph unicode="C" horiz-adv-x="1417" d="M311 658q0 -265 134.5 -426.5t379.5 -161.5q133 0 244 54t217 179q12 16 26.5 15t0.5 -29q-216 -305 -588 -305q-267 0 -431.5 163t-164.5 447q0 190 68.5 362t188.5 303.5t284 208t354 76.5q93 0 214 -24.5t192 -24.5q27 0 33.5 17.5t17 17.5t7.5 -16q-4 -21 -37 -166.5 t-40 -190.5q-8 -45 -22 -45t-11 25q27 175 -75.5 264.5t-285.5 89.5t-314.5 -77t-218.5 -198.5t-130 -271.5t-43 -286z" />
<glyph unicode="D" horiz-adv-x="1587" d="M1380 889q0 308 -180 455t-510 147q-163 0 -179 -17t-43 -199t-61 -379q-33 -197 -53 -334.5t-36 -243.5t-17 -152q0 -81 76 -101t174 -20q396 0 560.5 182.5t216.5 339t52 322.5zM6 23q67 0 95 52.5t49 178.5q20 125 42.5 265t44 275.5t42.5 269.5t35 225t17 122 t-12.5 63t-111.5 39q-20 0 -20.5 14.5t24.5 14.5l225 -6l318 8q569 0 688 -212t119 -406t-74 -369.5t-276 -370t-623 -194.5l-393 8l-201 -6q-20 0 -20.5 14.5t32.5 14.5z" />
<glyph unicode="E" horiz-adv-x="1069" d="M6 23q67 0 95 52.5t49 178.5q20 125 42.5 265t44 275.5t42.5 269.5t35 225t17 122t-12.5 63t-111.5 39q-20 0 -20.5 14.5t24.5 14.5l225 -6h270q270 0 357 12q10 2 18.5 13.5t17.5 11.5q13 0 -12 -69t-51 -197q-6 -25 -19 -25t-10 18t3 47t-2 48q-4 39 -62.5 55 t-161.5 23l-272 6q-14 0 -16 -21l-95 -598q-2 -16 7 -16h204q204 0 254 16t67 38q17 21 25 22q12 0 7 -17q-48 -156 -64 -264q-4 -25 -16 -25q-19 0 -13 25q10 70 -8.5 105.5t-86.5 37.5t-79 2l-130 1q-119 1 -169 1q-10 0 -10 -10l-78 -489q-14 -54 -16 -121.5t4 -78.5 q12 -21 55 -26.5t108 -5.5l133 -1q133 0 183 20q93 37 137 180q9 25 19 25t10 -7.5t-1 -15.5q-1 -9 -23 -91.5t-35 -118.5q-14 -36 -35 -45t-78 -9l-577 8l-201 -6q-20 0 -20.5 14.5t32.5 14.5z" />
<glyph unicode="F" horiz-adv-x="976" d="M6 23q67 0 95 52.5t49 178.5q20 125 42.5 265t44 275.5t42.5 269.5t35 225t17 122t-12.5 63t-111.5 39q-20 0 -20.5 14.5t24.5 14.5l225 -6h246q247 0 334 12q10 2 18 13.5t19 11.5t-18 -83q-30 -83 -46 -183q-4 -25 -18.5 -25t-10.5 18t3.5 47t-2.5 48q-4 39 -50.5 55 t-146.5 23l-252 6q-14 0 -16 -21l-95 -598q-2 -16 7 -16q67 0 214.5 6t188.5 18.5t55 31.5t23 20q12 0 6 -17q-48 -159 -66 -264q-4 -25 -15 -25q-17 0 -11 25q18 129 -109 141q-54 6 -83 6h-212q-10 0 -10 -10l-78 -489q-14 -54 -16 -123.5t4 -83.5q14 -41 62.5 -49 t82.5 -8q34 -1 33 -15q0 -14 -24 -14l-258 6l-201 -6q-20 0 -20.5 14.5t32.5 14.5z" />
<glyph unicode="G" horiz-adv-x="1599" d="M1581 706q0 -14 -33 -14q-69 0 -96 -40.5t-43 -149.5l-53 -346q-6 -16 -25 -27q-217 -137 -512 -137t-492.5 148t-197.5 466q0 211 70.5 384t195.5 296t297 190.5t375 67.5q118 0 261 -24.5t168 -24.5q41 0 50 17.5t18 17.5t6 -16t-11.5 -51.5t-19.5 -83.5t-24.5 -104.5 t-19.5 -98.5t-20.5 -41.5t-10.5 24.5q23 160 -91.5 246t-313.5 86q-198 0 -339.5 -75t-234 -196.5t-138.5 -278.5t-46 -310q0 -288 150 -432t387 -144q182 0 340 84q20 8 24 31l51 332q8 55 11.5 91t-11 67.5t-123.5 31.5q-20 0 -20 14t25 15l233 -6l193 6q20 -1 20 -15z " />
<glyph unicode="H" horiz-adv-x="1581" d="M1464 8q0 -14 -26 -14l-56 2l-383 -2q-20 0 -20 14.5t35 14.5q73 0 104 43t46 139t26.5 167.5t23 138.5t21.5 131.5t22 133.5q0 12 -10 12h-846q-10 0 -10 -12q-30 -173 -52 -324.5t-32 -215.5q-20 -126 0 -169.5t129 -43.5q21 -1 21 -15t-25 -14l-60 2l-378 -2 q-20 0 -20.5 14.5t32.5 14.5q67 0 95 52.5t49 178.5q20 125 42.5 265t44 275.5t42.5 269.5t35 225t17 122t-12.5 63t-111.5 39q-20 0 -20.5 14.5t24.5 14.5l55 -2l369 2q23 0 23 -14.5t-36 -15.5q-72 -2 -99 -40.5t-45 -144.5q-17 -105 -36.5 -229.5t-38.5 -237.5 q-2 -10 9 -10h845q10 0 13 10q18 113 36.5 238.5t30.5 203.5t13.5 109t-13.5 64.5t-100 37.5q-23 0 -23 14.5t7 14.5l233 -6l211 6q20 0 20.5 -14.5t-38.5 -15.5q-83 -2 -106 -39t-43 -156q-34 -204 -82.5 -525t-72.5 -470q-24 -150 -27 -188t10.5 -74.5t115.5 -36.5 q22 -1 22 -15z" />
<glyph unicode="I" horiz-adv-x="546" d="M428 8q0 -14 -25 -14l-55 2l-368 -2q-23 0 -23 14.5t36 14.5q74 0 103.5 46t49.5 178t42.5 272t78.5 493t59.5 396.5t-9.5 70t-110 34.5q-20 0 -20.5 14.5t24.5 14.5l55 -2l369 2q23 0 23 -14.5t-36 -15.5q-71 -2 -101 -42t-49 -156q-20 -116 -40 -250t-41.5 -269.5 t-43 -276t-39.5 -246.5t-20.5 -144t10.5 -71.5t110 -33.5q20 -1 20 -15z" />
<glyph unicode="J" horiz-adv-x="575" d="M213 1527.5q0 14.5 25 14.5l219 -6l205 6q23 0 22.5 -14.5t-36.5 -15.5q-71 -2 -99.5 -41.5t-47.5 -155.5q-20 -117 -40.5 -251t-42 -269.5t-42 -275.5t-40.5 -265q-101 -645 -561 -748q-17 -2 -21 10t17 17q202 54 275 226.5t92.5 278t37.5 223.5t41 258t79.5 495 t59 396.5t-11 68t-111.5 34.5q-20 0 -20 14.5z" />
<glyph unicode="K" horiz-adv-x="1280" d="M652.5 1527.5q-0.5 -14.5 -34.5 -15.5q-71 -2 -97.5 -40.5t-44.5 -144.5q-17 -105 -37.5 -238t-39.5 -245l-4 -25l508 502q39 39 76 79t37 83q0 30 -66 30q-20 0 -20 14.5t26 14.5l213 -6l166 6q20 0 20.5 -14.5t-36.5 -14.5q-130 0 -332 -192l-538 -512q61 16 123 16 t116.5 -32.5t106.5 -103.5t113 -258.5t107 -267.5q81 -140 212 -140q22 0 22 -15q-1 -22 -117 -22t-167.5 22.5t-86 67.5t-57.5 110.5t-43 131.5q-57 194 -125 319t-190 125q-41 0 -80 -17q-10 -68 -19.5 -128t-18.5 -121.5t-19.5 -128.5t-20.5 -131t-13 -101t14 -74.5 t126 -37.5q23 0 23 -14.5t-25 -14.5l-61 2l-375 -2q-20 0 -21 14q0 15 33 15q65 0 93 52.5t49 178.5q163 1001 173.5 1094.5t-5 125.5t-113.5 39q-20 0 -20.5 14.5t6.5 14.5l241 -6l203 6q20 0 19.5 -14.5z" />
<glyph unicode="L" horiz-adv-x="1056" d="M6 23q67 0 95 52.5t49 178.5q20 125 42.5 265t44 275.5t42.5 269.5t35 225t17 122t-12.5 63t-111.5 39q-20 0 -20.5 14.5t24.5 14.5l221 -6l240 6q23 0 22.5 -14.5t-42.5 -16.5q-92 -4 -124.5 -41.5t-56.5 -184.5q-159 -945 -170 -1063.5t-4 -131.5q13 -24 56.5 -29.5 t108.5 -5.5l148 -1q148 0 196 20q92 37 136 180q6 16 9 20.5t13 4.5q10 1 7 -15q-4 -28 -27 -111t-35 -113t-31.5 -39t-76.5 -9l-606 8l-201 -6q-20 0 -20.5 14.5t32.5 14.5z" />
<glyph unicode="M" horiz-adv-x="1949" d="M1833 8q0 -14 -25 -14l-231 6l-209 -6q-20 0 -20 14t32 14q68 1 93 35.5t46 157.5t48.5 295t52.5 328.5t44 285.5t32 207q2 8 -6 0l-772 -1241q-50 -88 -58 -92t-16 -4t-14.5 20.5t-95.5 297.5t-308 1021q-8 16 -8 0q-148 -898 -165.5 -1090t15.5 -206t68 -14 q35 -1 35 -15t-7 -14l-206 6l-193 -6q-20 0 -20 14q-1 14 33 14q73 1 104.5 42t48.5 135q55 313 110.5 614t98.5 571q10 66 -17.5 97.5t-103.5 31.5q-23 0 -22.5 14.5t26.5 14.5q80 0 160 -6t164 -2q45 -163 132 -444t125 -405t71.5 -234.5t58.5 -188.5q203 326 323 516 q226 359 338 541t136 215q90 -4 161.5 2t139.5 6q23 0 22.5 -14.5t-26.5 -14.5q-76 0 -112 -25.5t-46 -91.5t-29.5 -188.5t-43 -279t-50.5 -330.5t-43 -284t-19.5 -153.5t11 -90.5t116.5 -47q21 -1 21 -15z" />
<glyph unicode="N" horiz-adv-x="1654" d="M1780 1527.5q0 -14.5 -35 -14.5q-78 0 -111 -38.5t-49 -149.5l-199 -1229q-12 -76 -20 -96t-20.5 -20t-29 21.5t-63.5 88.5t-282.5 433t-394 584t-177.5 247l-141 -1067q-8 -66 -13 -115t10 -99t124 -50q22 -1 22 -15t-26 -14l-213 6l-195 -6q-20 0 -20 14q-1 14 37 15 q86 0 111.5 48t54.5 216l178 1097q12 78 -22 103.5t-78 25.5q-44 1 -44 15t27 14q78 0 151.5 -6t157.5 -2q271 -484 522 -830t293 -411l142 1016q17 123 1 153.5t-46.5 40.5t-69.5 10q-39 1 -39 15t27 14l215 -6l192 6q23 0 23 -14.5z" />
<glyph unicode="O" horiz-adv-x="1726" d="M1491 921q0 276 -138.5 423t-361.5 147q-170 0 -297 -77t-211 -197.5t-126 -269t-42 -357t140.5 -373t361.5 -164.5q176 0 303 81t210 207t122 281t39 299zM766 -16q-328 0 -481.5 187.5t-153.5 451.5q0 186 71.5 353t193.5 293t285 200.5t325 74.5q310 0 489.5 -171 t179.5 -455q0 -190 -72.5 -360.5t-198.5 -298.5t-293 -201.5t-345 -73.5z" />
<glyph unicode="P" horiz-adv-x="1081" d="M967 1207q0 132 -85 209t-233 77q-14 0 -33.5 -1t-49 -2.5t-47.5 -7.5q-19 -7 -25 -40l-115 -723q253 -25 420.5 104t167.5 384zM6 23q67 0 95 52.5t49 178.5q20 125 42.5 265t44 275.5t42.5 269.5t35 225t17 122t-12.5 63t-111.5 39q-20 0 -20.5 14.5t24.5 14.5l225 -6 l275 6q286 0 347.5 -112.5t61.5 -200.5q0 -156 -66.5 -269.5t-174 -184t-241.5 -97.5t-267 -8l-60 -383q-14 -54 -16 -123.5t4 -83.5q14 -41 62.5 -49t82.5 -8q34 -1 33 -15q0 -14 -24 -14l-263 6l-196 -6q-20 0 -20.5 14.5t32.5 14.5z" />
<glyph unicode="Q" horiz-adv-x="1716" d="M803 295q-115 0 -238 -174q103 -68 252 -68q84 0 164 23q-42 157 -90.5 188t-87.5 31zM1491 939q0 126 -38 232.5t-138.5 213t-323.5 106.5q-172 0 -299 -77t-211 -198.5t-125 -270t-41 -310.5t61.5 -294t166.5 -204q89 138 177.5 179.5t144.5 41.5q101 0 152.5 -60.5 t90.5 -170.5q197 116 290 333.5t93 478.5zM736 -16q-148 0 -268 55t-228.5 187.5t-108.5 396.5q0 186 71.5 353t193.5 293t285 200.5t325 74.5q310 0 489.5 -171t179.5 -451q0 -281 -151 -513.5t-396 -347.5q47 -137 93.5 -210.5t138.5 -73.5t158 55q18 16 26 11t-14 -36 q-21 -32 -85.5 -68t-138.5 -36q-128 0 -191.5 82t-113.5 231q-117 -32 -265 -32z" />
<glyph unicode="R" horiz-adv-x="1280" d="M1106 1239q0 -175 -130 -317.5t-300 -190.5q123 -63 163 -168.5t58 -157.5q55 -158 129.5 -270t202.5 -112q20 0 20 -15q0 -22 -166 -22q-191 0 -260 154.5t-105 255t-85 200t-137 115.5q-58 10 -109 10q-10 0 -12 -12q-10 -70 -18.5 -124.5t-16.5 -108.5t-17.5 -115 t-19.5 -125q-20 -126 0 -169.5t129 -43.5q23 -1 23 -15t-27 -14l-60 2l-374 -2q-20 0 -20.5 14.5t32.5 14.5q67 0 95 52.5t49 178.5q20 125 42.5 265t44 275.5t42.5 269.5t35 225t17 122t-12.5 63t-111.5 39q-20 0 -20.5 14.5t24.5 14.5l225 -6l240 8q287 0 358.5 -107.5 t71.5 -197.5zM862 1421q-76 70 -191 70t-157 -12q-18 -6 -20 -25l-103 -651q-4 -10 4 -15q43 -18 172 -13.5t183 41.5q94 64 141 174.5t47 235.5t-76 195z" />
<glyph unicode="S" horiz-adv-x="1007" d="M758 375q0 82 -40 143.5t-99.5 113.5t-128 101t-168 143.5t-99.5 261.5t148 286.5t334 119.5q82 0 158.5 -19.5t98.5 -19.5t28.5 12.5t17 12.5t6.5 -22t-17.5 -79t-31.5 -172q-4 -25 -17 -24q-14 0 -10 24q18 126 -54.5 180t-161.5 54q-158 0 -257.5 -80t-99.5 -194 q0 -74 39.5 -131.5t100 -109.5t131.5 -103.5t171 -152.5t100 -286t-152 -317.5t-364 -132.5q-102 0 -175 23.5t-101.5 33.5t-41.5 10q-18 0 -28 -17.5t-21 -17.5q-10 0 -8 16t10.5 49.5t17.5 79.5t20.5 100.5t16.5 96.5t19.5 42t12.5 -25q-25 -154 47.5 -244t223.5 -90 t262.5 98t111.5 236z" />
<glyph unicode="T" horiz-adv-x="1331" d="M825.5 1536q75.5 0 163.5 -1t226 0.5t166 9.5q28 7 34 16.5t16.5 9.5t-8.5 -71t-32 -191q-5 -25 -17 -25t-12 18q0 58 -8 91q-8 39 -65.5 56t-160.5 24l-231 6q-47 -291 -98 -618t-81 -511t-32 -222t14.5 -71.5t110.5 -33.5q23 -1 23 -15t-27 -14l-55 2l-379 -2 q-23 0 -23 14.5t36 14.5q72 0 104 46t53 177t46 292.5t67 421.5t81 519q-290 0 -377.5 -23.5t-107.5 -62.5q-8 -16 -17.5 -45t-13.5 -41q-6 -23 -20.5 -23t-7.5 25q26 162 27 211t11 51q10 0 14.5 -9.5t22.5 -14.5t81 -8t143.5 -4t169 0t164 1z" />
<glyph unicode="U" horiz-adv-x="1519" d="M1642 1527.5q0 -14.5 -34 -14.5q-77 0 -111 -40t-49 -148l-102 -643q-54 -315 -212.5 -506.5t-444.5 -191.5t-395.5 180.5t-57.5 503.5l106 675q15 93 -1.5 128t-113.5 42q-23 0 -22.5 14.5t7.5 14.5l241 -6l202 6q20 0 20.5 -14.5t-34.5 -15.5q-70 -2 -97 -39.5 t-37 -96.5q-9 -58 -12 -77t-15 -90t-42 -261l-43 -268q-78 -467 73.5 -552t275.5 -85q420 0 518 629l100 637q18 126 3 155t-46 39t-70 10q-39 1 -39 15t30 14t91.5 -3t108.5 -3l182 6q20 0 20 -14.5z" />
<glyph unicode="V" horiz-adv-x="1562" d="M1262 1528q0 14 26 14l191 -6l190 6q21 0 21 -14t-35 -14q-70 -1 -120 -49t-101 -148l-664 -1278q-35 -64 -51 -64q-25 0 -33 64l-278 1235q-32 133 -69.5 186t-121.5 53q-25 0 -24.5 14.5t26.5 14.5l240 -6l203 6q23 0 22 -12q0 -16 -37 -16t-68.5 -28t-15.5 -110 l228 -1130q4 -20 14 2l520 1069q43 95 41.5 145.5t-82.5 50.5q-22 1 -22 15z" />
<glyph unicode="W" horiz-adv-x="2285" d="M1982 1528q0 14 29 14l47 -2l330 2q22 0 22 -14t-34 -14q-73 -1 -120.5 -48.5t-101.5 -148.5l-651 -1278q-35 -64 -51 -64q-25 0 -33 64l-166 1182l-594 -1182q-16 -33 -27 -48.5t-24 -15.5q-25 0 -30 64l-175 1235q-18 139 -43.5 175t-58.5 50t-72 14t-39 14.5t25 14.5 l240 -6l204 6q20 0 21 -12q0 -16 -39.5 -17t-64.5 -26.5t-17 -110.5l123 -1085q4 -19 12 2l619 1218q20 47 37 48q18 0 20 -48l160 -1220q4 -20 14 2l504 1024q43 95 41.5 145.5t-82.5 50.5q-25 1 -25 15z" />
<glyph unicode="X" horiz-adv-x="1447" d="M375 8q0 -14 -29 -14l-182 6l-189 -6q-22 0 -22 14t36 14q70 1 146.5 58.5t564.5 687.5q-237 599 -298.5 672t-143.5 73q-25 0 -25 14.5t27 14.5l240 -6l209 6q23 0 22 -12q-1 -16 -25 -16q-56 -1 -79.5 -30t12.5 -135q73 -218 168 -444q285 371 331 444.5t52 101.5 t-8 45t-48 17q-34 1 -34 15t26 14l168 -6l189 6q22 0 22 -14q1 -14 -35 -14q-71 -1 -122.5 -44t-135.5 -153l-374 -494q69 -165 170 -391q100 -227 122.5 -272t59 -91t119.5 -46q23 0 22.5 -14.5t-24.5 -14.5l-230 6l-207 -6q-23 0 -22 12q0 16 26 17q57 0 75 27.5 t-14 111.5t-83 218t-119 306l-356 -467q-154 -196 -27 -196q25 -1 25 -15z" />
<glyph unicode="Y" horiz-adv-x="1488" d="M1214 1528q0 14 29 14l39 -2l303 2q21 0 21 -14t-35 -14q-73 -1 -133 -50t-115 -122q-55 -72 -115.5 -156t-127 -178.5t-130 -183.5t-104.5 -148l-14 -81q-13 -81 -15 -97.5t-4 -23.5t-9.5 -64t-23.5 -150q-16 -94 -18 -132t13.5 -71.5t111.5 -33.5q22 -1 22 -15t-26 -14 l-55 2l-379 -2q-23 0 -23 14.5t36 14.5q72 0 105 47.5t47 149.5q14 101 22.5 151.5t12.5 73t5 29.5t4.5 22.5t7.5 50.5t16 110q-27 68 -63.5 161t-136 333t-146 301t-127.5 61q-23 0 -23 14.5t25 14.5l205 -6l196 6q20 0 21 -12q0 -16 -36 -16t-57.5 -29t10.5 -105 q41 -96 111 -285t140 -354q4 -14 14 0q119 175 219 313.5t151 217.5q52 80 102 160.5t-48 80.5q-25 1 -25 15z" />
<glyph unicode="Z" horiz-adv-x="1339" d="M59 0q-31 0 -22 17t73 95q374 450 1049 1361q-322 4 -497 -8.5t-204 -24.5q-47 -19 -94.5 -78t-60.5 -99q-12 -40 -17.5 -44.5t-13.5 -4.5q-16 0 -10 18t16.5 53.5t22.5 78.5t24.5 86.5t19.5 69.5t17 26l95 -6q218 -4 273 -4h626q38 0 12 -31q-742 -938 -1122 -1446h512 q22 0 97 7.5t112 14.5t68 19.5t75 72t58 97.5q14 39 18 43t10 4q12 0 8 -16t-12 -49t-31 -118.5t-36 -105.5t-29.5 -28t-73.5 -8l-805 8h-158z" />
<glyph unicode="[" horiz-adv-x="704" d="M449 -145q6 0 6 -7l-9 -24q0 -8 -12 -8h-295q41 234 82 493.5t89 554t122 803.5h303q6 0 6 -6l-8 -25q0 -8 -12 -8h-164q-16 -100 -38.5 -241.5t-48.5 -302t-53.5 -333.5t-53 -336t-48 -308.5t-39.5 -251.5h173z" />
<glyph unicode="\" horiz-adv-x="866" d="M229 1593q0 2 4 4l43 15q6 0 11 -6l471 -1651q0 -6 -6 -8l-43 -15q-10 0 -11 7l-471 1650q2 2 2 4z" />
<glyph unicode="]" horiz-adv-x="704" d="M27 -184q-8 0 -4 6l8 24q0 8 10 9h160q18 106 41.5 251.5t104 640.5t134.5 881h-168q-4 0 -4 6l8 25q0 8 11 8h295q-107 -642 -293 -1851h-303z" />
<glyph unicode="^" horiz-adv-x="931" d="M682 1694q8 0 14 -11l224 -710q0 -8 -5 -8h-32q-8 0 -9 6l-239 575q-4 6 -9 6t-5 -6l-420 -575q-6 -6 -15 -6h-30q-10 0 -2 8l450 710q4 10 14 11h64z" />
<glyph unicode="_" horiz-adv-x="817" d="M-129 -264q-6 0 -2 6l10 45q0 8 12 8h803l2 -2v-4l-10 -45q-4 -8 -12 -8h-803z" />
<glyph unicode="`" horiz-adv-x="593" d="M240 1423q-9 9 8 17q74 24 143 -21q12 -6 12 -14l89 -328q2 -6 -17.5 -7t-23.5 7z" />
<glyph unicode="a" horiz-adv-x="1005" d="M143 -16q-116 0 -116 203t99.5 388.5t284 289t275 84.5t121.5 -25q7 8 33 22t30 15q16 0 6 -26q-29 -78 -89 -296.5t-60 -464.5q0 -108 49 -108q43 0 129 47q4 4 15.5 5t11.5 -8q0 -8 -18 -22q-54 -40 -172 -90.5t-139 5.5t-21 144t49 297l-6 5q-117 -210 -253 -337.5 t-229 -127.5zM170 231q0 -149 72 -149q56 0 134.5 82.5t137.5 171.5q60 90 82 135t47.5 111t79.5 290q-99 34 -170 23q-72 -16 -147.5 -83t-122.5 -162q-113 -228 -113 -419z" />
<glyph unicode="b" horiz-adv-x="937" d="M745 713q0 143 -71 143q-109 0 -309 -305q-61 -96 -104.5 -207.5t-43.5 -187.5q0 -138 92 -138q98 0 179 72t138.5 178.5t88 226t30.5 218.5zM304 -16q-124 0 -175 90l-38 -38q-38 -38 -49.5 -38t-2 30.5t32 109.5t46.5 233q25 153 50 296.5t73.5 429t43 304t-31.5 18.5 t-69 -4q-16 0 -16 12t86 33t192 82q8 6 16 6t5 -11q-2 -11 -17.5 -100t-69.5 -390t-97 -553l6 -5q116 208 253 336.5t230 128.5q117 0 117 -206q0 -115 -45 -249t-123 -249t-185.5 -190.5t-231.5 -75.5z" />
<glyph unicode="c" horiz-adv-x="806" d="M758 799q0 -135 -148 -64q-6 4 -4 13q35 86 5.5 124.5t-83.5 38.5t-102.5 -30.5t-107.5 -102.5t-103.5 -224t-44.5 -230t8 -119t26.5 -73t48.5 -51.5t110.5 -19.5t223.5 146q44 45 55 52t18 0t1 -15t-10 -17q-90 -104 -201.5 -173.5t-220.5 -69.5q-155 0 -182 102 t-27 166t19.5 144.5t76 204t187.5 238.5t293 115t162 -155z" />
<glyph unicode="d" horiz-adv-x="1017" d="M168 225q0 -143 72 -143q104 0 309 305q53 83 88.5 191.5t69.5 306.5q-85 29 -134 21q-87 -15 -167 -92t-125 -169q-113 -221 -113 -420zM141 -16q-116 0 -116 203t101.5 389.5t279 288.5t312.5 86q15 95 25 163t16.5 111t9.5 68.5t8 62.5t1 50t-31 13t-67 -4 q-16 0 -16 12t84 33t192 82q8 6 16.5 6t6.5 -11t-16.5 -83t-35 -177.5t-44 -229t-71.5 -368t-61.5 -358.5t-11.5 -161q2 -48 10 -71t46 -23q39 0 95 32t56 11q0 -13 -49.5 -42.5t-144 -71t-135.5 9t-14.5 213t44.5 226.5l-6 5q-127 -218 -259 -341.5t-225 -123.5z" />
<glyph unicode="e" horiz-adv-x="806" d="M170 316q0 -255 137 -255t280 146q44 45 55 52t18 0t1 -15t-10 -17q-90 -104 -201.5 -173.5t-220.5 -69.5q-155 0 -182 102t-27 166t19.5 144.5t76 204t187.5 238.5t293 115t162 -139q0 -116 -108.5 -187.5t-234.5 -98.5t-217 -31q-28 -112 -28 -182zM528 911 q-84 0 -173.5 -88.5t-147.5 -293.5q220 18 318 105t98 182t-95 95z" />
<glyph unicode="f" horiz-adv-x="565" d="M707 1395q-15 110 -104 110q-50 0 -89 -45t-66 -116t-55 -250l-26 -152h215q23 0 16 -16l-6 -15q-6 -16 -29 -16h-203l-157 -926q-36 -210 -152 -365t-299 -155q-53 0 -80.5 24.5t-27.5 79t102 66.5q10 0 10 -8q15 -111 84 -111q131 0 168 180.5t45 231.5l162 983h-154 q-23 0 -10.5 17.5t44.5 17.5q76 0 106 24.5t46 99.5q44 197 160 349.5t295 152.5q53 0 85 -24.5t32 -77.5t-102 -68q-10 0 -10 9z" />
<glyph unicode="g" horiz-adv-x="870" d="M193 460q0 -77 41.5 -131.5t111.5 -54.5q128 0 205.5 146t77.5 313q0 76 -42.5 130.5t-111.5 56.5t-120.5 -41t-87.5 -111t-55 -149.5t-19 -158.5zM387 238q-184 -24 -184 -109q0 -43 38 -69.5t95 -52t122.5 -52.5t123 -63.5t95.5 -86t38 -151t-133.5 -173t-317.5 -71.5 q-185 0 -331 68t-146 196q0 68 66 139.5t235 109.5q40 9 75 17q-87 59 -87 134t85.5 119t146.5 53q-84 18 -161 93.5t-77 219.5t105 269.5t259 125.5q73 0 138 -28q126 -31 172.5 5.5t46.5 94.5q-4 8 6 8q35 8 68.5 -8t33.5 -49q0 -58 -45.5 -82.5t-99.5 -24.5t-117 18 q57 -43 86 -110t29 -177.5t-103 -236.5t-262 -126zM-74 -305q0 -116 118 -183t284 -67q165 0 210.5 62.5t45.5 114.5t-38 95t-94.5 76t-122 61t-99.5 46t-44 24q-260 -74 -260 -229z" />
<glyph unicode="h" horiz-adv-x="1052" d="M766 954q117 0 117 -133q0 -65 -34 -241.5t-53.5 -291t-19.5 -145.5t7 -54t45 -23t94 32t57 11q0 -14 -50 -43t-146 -70.5t-127 -3.5t-31 100q0 84 52 351.5t52 324.5t-10 78.5t-45 21.5q-65 0 -154 -97t-158 -204q-69 -108 -94.5 -179t-38.5 -134l-24 -176 q-7 -33 -58 -65.5t-96 -37.5q14 86 34.5 216.5t44.5 275.5t47.5 293.5t43 272.5t32.5 210t18 118t1 45t-30 13t-68 -4q-16 0 -16 12t87 34q87 21 191 81q8 6 18 6t5 -11q-4 -11 -18.5 -86t-35 -184.5t-43 -237.5t-55 -302t-45.5 -250l6 -2q273 479 498 479z" />
<glyph unicode="i" horiz-adv-x="507" d="M158 831q-26 0 -68 -4q-16 0 -16 12t87 34q87 21 191 81q8 6 18 6t5 -10q-4 -12 -13.5 -57t-22.5 -113.5t-29.5 -150.5t-32 -164t-28.5 -153.5t-23 -133.5t-1.5 -87t46.5 -25q39 0 95 32t56 11q0 -13 -48 -42.5t-159 -80t-124 35.5t6 207t34.5 210t26 150.5t17.5 101.5 t12 77t1 50t-30 13zM308 1126q-30 0 -56.5 28t-26.5 72t41 82t83 38t67.5 -29t25.5 -61t-11 -53t-29.5 -38.5t-41 -28t-52.5 -10.5z" />
<glyph unicode="j" horiz-adv-x="514" d="M306 1126q-30 0 -56.5 28t-26.5 72t41 82t83 38t67.5 -29t25.5 -61t-11 -53t-29.5 -38.5t-41 -28t-52.5 -10.5zM156 831q-26 0 -68 -4q-16 0 -16 12t87 34q87 21 191 81q8 6 15 7q12 -1 8 -12t-15.5 -67.5t-53.5 -256t-114 -656.5q-31 -210 -148.5 -365t-299.5 -155 q-53 0 -81 24.5t-28 79t103 66.5q10 0 10 -8q15 -111 84 -111q131 0 168 180.5t45 231.5l141 850q8 43 3 56t-31 13z" />
<glyph unicode="k" horiz-adv-x="989" d="M242 1419q-26 0 -68 -4q-16 0 -16 12t87 34q87 21 191 81q8 6 18 6t5 -11q-4 -11 -18.5 -86t-35 -184.5t-43 -237.5t-55 -302t-45.5 -250l6 -2q100 217 264.5 348t277.5 131q48 0 73.5 -29t22.5 -57q-5 -46 -42.5 -81t-70.5 -39q-6 -2 -11 6q-17 104 -95 104 q-63 0 -167 -89q-46 -39 -91 -93q11 -106 87 -294t138.5 -252t105.5 -64t129 47q4 4 15 5t11 -8q0 -8 -18 -22q-138 -104 -239 -104q-56 0 -137.5 81.5t-140.5 301.5q-27 100 -31 199q-7 -12 -31 -52t-53 -116t-38 -154l-22 -166q-4 -32 -57.5 -65t-96.5 -38 q14 86 34.5 216.5t44.5 275.5t47.5 293.5t43 272.5t32.5 210t18 118t1 45t-30 13z" />
<glyph unicode="l" horiz-adv-x="514" d="M242 1419q-26 0 -68 -4q-16 0 -16 12t87 34q87 21 191 81q8 6 18 6t5 -11q-4 -11 -20.5 -100t-40 -222.5t-51.5 -292t-53.5 -305t-45 -262t-29.5 -177.5t-1 -87t47 -25q39 0 95 32t56 11q0 -12 -48.5 -42t-158.5 -81t-123.5 35.5t2.5 186.5t34.5 211t37 230t37 234.5 t34 213t25.5 165t15 99.5t1 45t-30 13z" />
<glyph unicode="m" horiz-adv-x="1568" d="M762 954q117 0 117 -133q-2 -106 -30 -192t-44 -152l6 -2q125 225 199.5 310t138 127t133.5 42q117 0 117 -133q0 -65 -34 -241.5t-53.5 -291t-19.5 -145.5t7 -54t45 -23t94 32t57 11q0 -14 -50 -43t-145.5 -70t-127 -3t-31.5 99q0 73 52 348.5t52 329.5q0 55 -10 76.5 t-45 21.5q-110 0 -311 -340q-88 -149 -107 -274l-24 -176q-7 -33 -58 -65.5t-96 -37.5q12 76 33.5 190t59.5 323.5t38 272.5q0 64 -10 85.5t-45 21.5q-63 0 -143 -96t-164 -238t-111 -280l-25 -176q-7 -33 -58 -65.5t-95 -37.5q38 244 77.5 486.5t46.5 292.5q7 51 3 64 t-31 13t-68 -4q-16 0 -16 12t86 33t193 82q8 6 17 6t4 -12q-5 -14 -18.5 -75.5t-29.5 -138.5t-31.5 -149.5t-21.5 -107.5l6 -2q127 228 200.5 311.5t137 125.5t133.5 42z" />
<glyph unicode="n" horiz-adv-x="1075" d="M788 954q117 0 117 -133q0 -63 -53 -341t-53 -323t7 -68t45 -23t94 32t56 11q0 -14 -50 -43t-145 -70t-127 -3.5t-32 99.5q0 78 52.5 348.5t52.5 327.5t-10.5 78.5t-45.5 21.5q-65 0 -156.5 -99.5t-175.5 -233.5q-84 -133 -112 -281l-25 -176q-7 -33 -58 -65.5t-95 -37.5 q38 244 77.5 486.5t46.5 292.5q7 51 3 64t-31 13t-68 -4q-16 0 -16 12t86 33t193 82q8 6 17 6t4 -12q-5 -14 -18.5 -75.5t-29.5 -138.5t-31.5 -149.5t-21.5 -107.5l6 -2q273 479 497 479z" />
<glyph unicode="o" horiz-adv-x="894" d="M635 837q-41 64 -116 64q-76 0 -129.5 -29.5t-88.5 -91.5q-59 -103 -97 -245.5t-38 -277.5t59.5 -175.5t115.5 -40.5q125 0 205 139t105 294t25 227t-41 136zM550 954q74 0 119.5 -21.5t78 -59t50 -88t17.5 -140t-50 -231.5t-132 -238t-178.5 -144t-170.5 -48 q-127 0 -193 85t-66 204q0 118 46 248.5t128 232.5t179.5 151t171.5 49z" />
<glyph unicode="p" horiz-adv-x="899" d="M733 954q117 0 117 -201t-100.5 -388.5t-278.5 -290t-315 -86.5q-17 -98 -28 -174t-22.5 -155.5t-19.5 -168.5q-7 -33 -67.5 -65t-108.5 -37q8 31 40 199.5t130.5 675t89 537.5t-36.5 31t-55 -2q-28 -3 -28 7t4.5 14t85.5 24t138 53q58 33 67 33t4 -12 q-5 -14 -19.5 -72.5t-30.5 -132t-32.5 -144.5t-22.5 -105l6 -5q114 205 252 335t231 130zM707 696q0 160 -72 160q-109 0 -309 -305q-55 -86 -89 -190t-69 -308q85 -29 134 -21q86 15 164.5 89.5t114.5 145.5t56 123t45 141.5t25 164.5z" />
<glyph unicode="q" horiz-adv-x="974" d="M168 225q0 -143 72 -143q110 0 321 326q49 76 92 187t43 187q0 138 -92 138q-98 0 -179 -72t-138.5 -178.5t-88 -226t-30.5 -218.5zM25 190q0 115 45 249t122.5 249t185 190.5t232.5 75.5t174 -90q3 7 31.5 31.5t42.5 34.5t18.5 10t3.5 -8t-10.5 -30.5t-35.5 -110 t-52 -247.5q-134 -807 -161 -1054q-7 -33 -68 -65t-109 -37q7 29 187 1056l-6 5q-127 -218 -259 -341.5t-225 -123.5q-101 0 -108.5 89t-7.5 117z" />
<glyph unicode="r" horiz-adv-x="757" d="M170 831q-27 0 -68 -4q-16 0 -16 12t86 33t193 82q8 6 17 6t4 -12q-5 -14 -18.5 -74.5t-28.5 -136t-30.5 -147.5t-21.5 -107l6 -2q77 213 196.5 343t217.5 130q51 0 76.5 -29t22.5 -57q-5 -44 -42 -80t-72 -40q-6 -2 -10 6q-4 27 -22.5 54.5t-61.5 27.5t-97.5 -58.5 t-140.5 -205.5t-110 -328l-23 -166q-7 -33 -58 -65.5t-95 -37.5q38 244 77.5 486.5t46.5 292.5q7 51 3 64t-31 13z" />
<glyph unicode="s" horiz-adv-x="749" d="M456 918q-78 0 -121.5 -52t-43.5 -114t22.5 -99t55 -69.5t71.5 -64.5t94.5 -91.5t55.5 -165.5q0 -133 -104.5 -205.5t-234.5 -72.5t-205 49t-75 124t43 92t103 -11q6 -4 4 -13q-25 -45 -25 -90t41 -80t130 -35t143.5 49t54.5 119t-21.5 110t-54.5 72.5t-70.5 62.5t-92 87 t-54.5 165t81.5 188.5t197.5 80.5t178.5 -42t62.5 -100.5t-121 -72.5q-10 -1 -10 13v56q0 55 -31.5 82.5t-73.5 27.5z" />
<glyph unicode="t" horiz-adv-x="626" d="M123 895q-25 0 -23 14q0 17 40 17q85 1 140 57.5t101 171.5q4 8 14 8t8 -14l-34 -207h268q23 0 16 -16l-6 -15q-6 -16 -31 -16h-254l-122 -709q-10 -68 -4 -97.5t34 -29.5t60 12.5t82.5 40t90.5 52.5q40 24 40 2q-1 -8 -19 -22q-79 -58 -242.5 -146.5t-177.5 8t5 209.5 l112 680h-98z" />
<glyph unicode="u" horiz-adv-x="1046" d="M778 141q0 -29 8 -52t46 -23t94 32t57 11q0 -14 -49 -43t-143.5 -70t-135.5 8.5t-15.5 218.5t44.5 238l-6 2q-273 -479 -498 -479q-117 0 -117 133q0 69 33 226t52.5 248t28.5 153t1 74.5t-35 12.5t-55 -2q-28 -3 -28 7t5 14t86 24t138 53t66 33t3 -14q-13 -84 -77 -398 t-64 -374q0 -61 10.5 -82.5t44.5 -21.5q65 0 154 97t180 238t125 283l41 172q7 32 51 58t113 45q-158 -483 -158 -822z" />
<glyph unicode="v" horiz-adv-x="884" d="M90 827q-16 0 -16 12t87 34q87 21 191 81q8 6 15 7q10 0 10 -15q0 -392 -60 -819q-1 -18 13 -10q153 115 312 332t159 319q0 38 -33 59t-76 27q-6 0 -4 24t34 61.5t74 37.5t69.5 -25.5t27.5 -73t-29.5 -120t-109 -208t-241.5 -310t-320 -256.5q-45 -16 -35 30 q40 229 54.5 453.5t14.5 286.5q0 78 -71 77q-24 0 -66 -4z" />
<glyph unicode="w" horiz-adv-x="1458" d="M1374 768q0 71 -108 86q-6 0 -4 24t33.5 61.5t73.5 37.5t69.5 -25.5t27.5 -73t-29.5 -120t-106.5 -205t-242.5 -312t-321.5 -257.5q-45 -16 -35 30q27 167 39 275.5t22 188.5t14 147q-117 -200 -285.5 -379t-327.5 -262q-45 -16 -35 30q40 229 54.5 453.5t14.5 286.5 q0 78 -71 77q-24 0 -66 -4q-16 0 -16 12t87 34q87 21 191 81q8 6 15 7q10 0 10 -15q0 -392 -60 -819q-2 -18 13 -10q156 117 310 321t171 306v10q0 37 -22.5 57t-53.5 20t-59 -2q-28 -3 -28 7t4.5 14t85.5 24t188 80q24 18 24 -8q0 -373 -59 -819q-2 -18 12 -10 q156 117 313.5 333.5t157.5 317.5z" />
<glyph unicode="x" horiz-adv-x="960" d="M178 831q-31 0 -72 -4q-16 0 -16 12t84 33q84 20 193 82q8 6 14 7q8 0 10 -12.5t12.5 -63.5t29.5 -147t51 -230q108 213 220 337t195 124q45 0 67.5 -22.5t22.5 -54.5t-27.5 -65.5t-62.5 -38.5q-4 -2 -8 5q-4 23 -14.5 42t-47.5 19t-123 -72t-211 -316q0 -2 1 -3h-1 q116 -397 199 -397q36 0 92 32t56 11q0 -11 -47 -41.5t-133 -72t-142 20.5t-98 214q-17 60 -34 128q-209 -378 -372 -376q-45 0 -65.5 26t-20.5 60t29 65t64 35q4 2 5 0t3 -14t16 -40t83.5 -28t245.5 308q-37 120 -64 217.5t-46 146.5q-29 73 -88 73z" />
<glyph unicode="y" horiz-adv-x="917" d="M162 831q-31 0 -72 -4q-14 0 -18 13q0 12 84 33t138 54t62 33t11 -14q70 -435 63 -908q241 295 306 467t65 238q0 115 -115 111q-4 0 -8 10q2 39 29.5 76t73.5 37t75 -31.5t29 -101.5t-34 -167t-93.5 -209t-138 -230.5t-223 -298.5t-333.5 -334t-319 -154q-57 0 -84 27.5 t-27 63.5t21.5 66t41.5 38t28 2q24 -90 115 -90t228.5 109t237.5 223q3 279 -29 540.5t-43 323.5q-13 77 -71 77z" />
<glyph unicode="z" horiz-adv-x="815" d="M278 823q-52 0 -78 -26.5t-39 -54.5t-17.5 -36t-14.5 -5t0 38t22.5 77t49 90t155.5 48q51 0 146 -24.5t140 -24.5q44 0 72.5 9.5t57.5 37.5q10 10 22.5 -1t4.5 -19q-396 -370 -705 -770q98 -34 214 -48t168 -14q143 0 178.5 76t45.5 72q12 -2 2 -29 q-51 -135 -110.5 -196.5t-136.5 -61.5q-122 0 -313 57q-63 19 -116 49q-26 -38 -44 -71q-10 -16 -24 -10t-1 30q78 139 288.5 381t429.5 464q-91 -66 -168 -63t-127 14t-102 11z" />
<glyph unicode="{" horiz-adv-x="808" d="M524 -174q-197 0 -244 115.5t-26.5 256t34 220.5t15 185.5t-99.5 123.5q-31 6 -29 14q0 8 33 15q61 10 96 54t55.5 109.5t31.5 145.5t36 220.5t109 256t280 115.5q20 0 21 -15q-4 -16 -27 -16q-187 0 -219.5 -161.5t-45 -239.5t-44 -253.5t-221.5 -228.5v-4 q70 -20 100.5 -68t38.5 -113.5t-2 -143.5t-22.5 -156t-33.5 -239.5t168 -161.5q25 0 21 -17q0 -14 -25 -14z" />
<glyph unicode="|" horiz-adv-x="464" d="M414 1821q4 10 10 10l45 6q2 0 2 -6l-334 -2107q0 -10 -8 -11l-43 -6q-6 0 -6 6z" />
<glyph unicode="}" horiz-adv-x="802" d="M326 1626q-23 0 -19 16q0 14 25 15q197 0 248 -126t4 -385.5t-17.5 -319.5t86.5 -70q31 -7 31 -15q-2 -8 -49 -16t-82 -52t-54.5 -109.5t-31.5 -145.5t-37 -221t-109 -256t-280 -115q-20 0 -21 14q4 16 25 17q187 0 219.5 161.5t56 308t72.5 261.5t185 151v4 q-175 50 -151 227t36 255t31 239.5t-168 161.5z" />
<glyph unicode="~" horiz-adv-x="1089" d="M537.5 616.5q-166.5 34.5 -217.5 34.5q-50 0 -91 -11t-94 -69q-8 -10 -17 -3.5t0 20.5q121 182 242 182q91 0 263 -35t219 -35t88 11.5t94 68.5q8 8 17 1t0 -19t-33.5 -43t-79 -84t-139.5 -53t-251.5 34.5z" />
<glyph unicode="&#xa1;" horiz-adv-x="475" d="M-9 -623q-24 0 -18 35q18 121 125 575.5t131 596.5q2 25 17 24q13 0 10 -24q-18 -121 -38.5 -459.5t-49.5 -536.5q-10 -57 -139 -190q-21 -21 -38 -21zM265 729q-44 0 -70.5 33t-18.5 80q6 47 43 79.5t81 32.5t70.5 -32.5t19.5 -79.5t-44 -80t-81 -33z" />
<glyph unicode="&#xa2;" horiz-adv-x="958" d="M694 1237q-139 0 -242 -126t-135 -315q-32 -190 44 -310.5t217 -120.5t260 88q22 22 30 9q8 -12 -18 -38q-146 -132 -328 -148l-39 -245q-4 -10 -10 -11l-43 -6q-6 0 -6 6l41 256q-163 13 -253.5 142.5t-58.5 329.5t166 347t304 183l39 235q0 10 8 11l45 6q4 0 4 -6 l-37 -238l39 2q112 0 186.5 -52.5t59.5 -154.5q-18 -132 -156 -55q-4 4 4 23t17 66q9 46 -26.5 84t-111.5 38z" />
<glyph unicode="&#xa3;" horiz-adv-x="1159" d="M319 782q-18 0 -10 15l4 10q8 20 27 20q72 0 109.5 27.5t60.5 99.5t76 181.5t173.5 265t291.5 155.5q55 0 89 -23.5t24 -61.5t-47.5 -59t-74.5 -26q-8 0 -8 9q0 45 -18.5 71.5t-52.5 26.5q-116 0 -180 -141.5t-88.5 -225.5t-39.5 -135l-39 -151h398q27 0 16 -17l-14 -24 q-8 -17 -29 -17h-385q-8 -31 -20 -76t-34 -130t-38 -124.5t-67.5 -120.5t-155.5 -155q75 27 207.5 4.5t209 -37t141.5 -14.5t109 23t54 84q4 35 -21.5 63.5t-66.5 36.5q-6 0 -7 10q10 37 37 74t54 41q47 4 63 -37t6 -98q-29 -176 -139.5 -259t-263.5 -83q-49 0 -104.5 24.5 t-111 54t-105.5 56t-87 31.5q-97 -97 -207 -152q-25 12 -39 51t0 84q41 25 97.5 33t134.5 12q77 107 143 338q36 112 49 174q14 62 21 92h-142z" />
<glyph unicode="&#xa5;" horiz-adv-x="1214" d="M347 23q69 0 100.5 46t48.5 152l22 141h-328q-6 0 -6 7l13 45q4 8 12 8h317q4 23 6.5 34t5.5 27.5t7 48t14 97.5h-328q-8 0 -4 6l13 45q0 8 12 8h311l-186 588q-43 135 -74 173t-61.5 51t-73.5 13q-27 0 -23 15q0 14 25 14l205 -6l196 6q20 0 21 -12q-4 -16 -38 -16 t-56.5 -27t2.5 -111l182 -635q4 -14 14 0l338 574q56 90 67 144t-49 54q-42 0 -34 15q0 14 29 14l39 -2l303 2q20 0 20 -14q-4 -14 -25 -15q-90 0 -154.5 -51t-121.5 -145l-379 -629h326q6 0 4 -6l-12 -45q-4 -8 -13 -8h-317l-33 -207h328q6 0 6 -6l-14 -45q0 -8 -11 -9 h-317q-2 -14 -4 -24t-3.5 -34.5t-12.5 -80.5q-22 -117 -2 -158.5t114 -41.5q27 0 23 -15q0 -14 -27 -14l-56 2l-378 -2q-23 0 -23 14q8 15 40 15z" />
<glyph unicode="&#xa6;" horiz-adv-x="413" d="M193 596q0 10 6 10l45 6q10 0 4 -6l-139 -882q0 -10 -11 -11l-41 -6q-6 0 -6 6zM385 1821q4 10 8 10l45 6q4 0 4 -6l-139 -883q-4 -10 -10 -10l-41 -6q-6 0 -6 6z" />
<glyph unicode="&#xa7;" horiz-adv-x="956" d="M350 35q132 0 173.5 59.5t48.5 101.5q12 74 -89 140q-7 2 -37 2q-69 0 -133.5 -43t-74.5 -102q-10 -60 14 -95t67 -63h31zM18 -256q12 0 11 -23q6 -129 70.5 -189t162.5 -60t165 45t77 116t-19.5 112.5t-80 73t-111 57.5t-110.5 59.5t-79.5 79.5t-15.5 133t97 154t212 83 q-132 62 -198 123.5t-48 175.5t135.5 192t284.5 78q96 0 169 -31.5t82 -39.5t3 -45t-13 -115t-8.5 -86t-13.5 -8t-12 22q-6 129 -70.5 189.5t-162.5 60.5t-165 -45t-78 -116t19.5 -112.5t81 -73.5t110.5 -57.5t110.5 -59.5t80 -79.5t16.5 -133.5t-97 -154t-211 -82 q47 -25 158 -85.5t85 -211.5q-21 -118 -136 -195.5t-283 -77.5q-100 0 -171 32t-80 40t-2 60t13 115q6 62 8 70.5t14 8.5z" />
<glyph unicode="&#xa8;" horiz-adv-x="718" d="M663 1315q40 0 62.5 -29.5t14.5 -69.5t-38 -68t-70 -28t-61.5 28t-13.5 69q6 41 36 69.5t70 28.5zM302 1315q40 0 62.5 -29.5t15.5 -69.5t-38 -68t-71 -28t-61 28t-13 69q6 41 35.5 69.5t69.5 28.5z" />
<glyph unicode="&#xa9;" horiz-adv-x="1808" d="M1251.5 969q-12.5 0 -12.5 14q0 109 -77 159t-182 50q-192 0 -282 -110t-90 -295t99 -307t278 -122q80 0 147.5 28t129.5 103q6 10 17 7.5t3 -19.5q-104 -184 -338 -184q-197 0 -326 129t-129 338t138 341t346 132q54 0 141 -15.5t112 -15.5t29.5 10.5t13.5 10.5t9 -13 l-14 -227q0 -14 -12.5 -14zM227 768q0 -147 56.5 -277.5t154 -227.5t227.5 -153.5t277.5 -56.5t277.5 56.5t227 153.5t153.5 227.5t56.5 277.5t-56.5 277.5t-153.5 227.5t-227 153.5t-277.5 56.5t-277.5 -56.5t-227.5 -153.5t-154 -227.5t-56.5 -277.5zM166 768 q0 160 61.5 301t167 246.5t246.5 167t301 61.5t301 -61.5t246.5 -167t167 -246.5t61.5 -301t-61.5 -301t-167 -246.5t-246.5 -167t-301 -61.5t-301 61.5t-246.5 167t-167 246.5t-61.5 301z" />
<glyph unicode="&#xaa;" horiz-adv-x="757" d="M557 1149q-119 -41 -208.5 -93t-101.5 -141q-13 -89 64 -90q39 0 95 23.5t84 45.5t31 32t5 26zM560 1544q80 0 123.5 -49t31.5 -125l-49 -313q-8 -53 -22 -142.5t56 -89.5q20 0 42 10.5t21 -1.5t-45 -42t-122 -30q-86 0 -74 110q0 10 -4 2q-111 -77 -174.5 -94.5 t-117.5 -17.5t-88 36t-24 101t55.5 108.5t105 74t124 50t106.5 32.5t53 21.5t19 58.5t14.5 106.5t1.5 90.5t-25.5 47t-66.5 13t-96.5 -30.5t-60.5 -96.5q-4 -20 0 -28q0 -22 -40 -32.5t-56 -10.5q-32 0 -24 42q9 42 37 77.5t70 62t95.5 43t133.5 16.5z" />
<glyph unicode="&#xab;" horiz-adv-x="1093" d="M496 762q2 12 12 16l553 314q8 4 8 -5l-6 -32q0 -8 -8 -13l-389 -276q-15 -7 -4 -16l303 -277q4 -2 4 -12l-4 -33q-4 -8 -11 -4l-452 313q-8 6 -6 17v8zM297 760l2 -10l305 -277q2 -2 2 -12l-4 -33q-4 -6 -8 -4l-453 313q-10 6 -8 17v8q2 10 14 16l553 314q6 2 7 -5 l-7 -32q0 -6 -6 -13l-391 -276z" />
<glyph unicode="&#xac;" horiz-adv-x="968" d="M88 750q-4 0 -4 6l12 45q4 8 13 8h845q6 0 7 -6l-58 -361q-4 -10 -10 -10l-47 -6q-4 0 -4 6l49 318h-803z" />
<glyph unicode="&#xad;" horiz-adv-x="749" d="M88 694q-8 0 2 24t24.5 50t24.5 50t29 24q332 20 553 14q22 0 22 -12q-4 -12 -54 -14q-115 -6 -312 -46t-239 -65t-50 -25z" />
<glyph unicode="&#xae;" horiz-adv-x="972" d="M647 1257q0 109 -104 109l-39 -4q-8 0 -8 -8v-189q0 -4 4 -8l49 -1q49 -1 61 11q37 23 37 90zM805 928q2 0 2 -10t-5 -10l-44 1q-49 0 -77 32.5t-46 62.5t-41.5 73.5t-65.5 55.5l-28 4l-4 -4l4 -144q0 -29 6 -45t26 -16t20.5 -2t4.5 -2q0 -6 -8 -6h-150q-4 0 -4 6v2 q2 2 4 2q27 0 31 19.5t4 41.5v334q0 23 -5 36t-25 13t-19 7q0 7 6 7l72 -4l86 9q101 0 129.5 -43t28.5 -76t-29 -76t-88 -57q52 -19 92.5 -96t70 -96t52.5 -19zM223 1153q0 -74 28 -138.5t76 -112.5t112.5 -75.5t138 -27.5t137 27.5t111.5 75.5t76 112.5t28 138.5t-28 137.5 t-76 111.5t-111.5 75.5t-137 27.5t-138 -27.5t-112.5 -75.5t-76 -111.5t-28 -137.5zM184 1153q0 80 31 150.5t85 125t126 85t151.5 30.5t150.5 -30.5t125 -85t85 -125t31 -150.5t-31 -151.5t-85 -126t-125 -85t-150.5 -30.5t-151.5 30.5t-126 85t-85 126t-31 151.5z" />
<glyph unicode="&#xaf;" horiz-adv-x="940" d="M301 1126q-6 0 -6 7l14 45q0 8 10 8h490q6 0 6 -6l-14 -45q0 -8 -10 -9h-490z" />
<glyph unicode="&#xb0;" horiz-adv-x="585" d="M426 1004q47 0 91 19t81 51t61.5 76t32.5 93t-3 93t-37.5 76t-64.5 51.5t-85 19.5t-91 -19.5t-80 -51.5t-60.5 -76t-33 -93t3 -93t37 -76t63.5 -51t85 -19zM699.5 1457q68.5 -87 52.5 -214q-20 -123 -118 -212t-218 -89t-188 88.5t-50 211.5q18 122 117 212t217.5 90 t187 -87z" />
<glyph unicode="&#xb1;" horiz-adv-x="972" d="M-20 0q-6 0 -7 6l13 45q4 8 10 8h805q6 0 6 -6l-14 -45q0 -8 -11 -8h-802zM96 750q-4 0 -4 6l12 45q4 8 11 8h370l62 389q4 10 10 10l43 6q6 0 6 -6l-63 -399h377q6 0 6 -6l-15 -45q0 -8 -12 -8h-367l-59 -388q-4 -10 -10 -10l-45 -6q-4 0 -4 6l61 398h-379z" />
<glyph unicode="&#xb2;" horiz-adv-x="712" d="M31 463q-12 0 -13 14q2 6 23 27q258 233 351 348t144.5 209t65.5 179q24 148 -18.5 205.5t-128.5 57.5q-85 0 -152 -62t-84 -161q0 -16 -11 -16t-11 14q17 117 20 176q9 28 99 59t161 31q145 0 205.5 -76t41.5 -190t-78.5 -209.5t-150 -192.5t-339.5 -315q-6 -8 0 -8h183 q183 0 228 25q55 25 84 118q8 18 18.5 19t7.5 -17t-12.5 -45.5t-19.5 -57.5t-20.5 -54.5t-17.5 -44.5t-22.5 -26.5t-54.5 -6.5h-499z" />
<glyph unicode="&#xb3;" horiz-adv-x="710" d="M450 1501q-72 0 -129 -47t-73 -141q-4 -16 -12.5 -16.5t-4.5 34.5t7.5 63t3.5 52t18 39q100 59 233 59t184 -66.5t36 -152.5q-25 -159 -249 -241q-35 -12 -22 -13q171 -17 204.5 -114t14.5 -207.5t-134.5 -204.5t-262.5 -94t-201 47q-14 11 -3.5 53.5t18.5 85t13 64.5 t14 22t8 -16q-8 -90 27.5 -150.5t135.5 -60.5t179.5 67.5t100.5 198.5t-45.5 198t-164.5 78q-22 4 -18 16t26 17q246 66 250.5 215t-39 182t-115.5 33z" />
<glyph unicode="&#xb4;" horiz-adv-x="479" d="M252 1077q-8 -8 -26.5 -7t-14.5 7l190 328q6 9 32 23t67 18t57 -2t19.5 -10t-3.5 -11z" />
<glyph unicode="&#xb5;" horiz-adv-x="1179" d="M501.5 958q8.5 0 7.5 -12q-1 -17 -18 -97.5t-20 -107.5l-68 -424q-18 -113 4.5 -164t59.5 -73.5t109 -22.5q128 0 253 105q21 19 29 53l78 490q10 74 -7.5 102.5t-80.5 32.5q-25 0 -21 14q0 14 27 16q139 18 256 82q6 6 14.5 6t7.5 -12t-6.5 -37.5t-11.5 -56.5t-12 -61.5 t-8 -49.5l-82 -516q-6 -39 -8.5 -64.5t12 -47t106.5 -21.5q10 0 16.5 -1t4.5 -11t-9.5 -12t-78.5 -14t-201 -66q-33 -14 -27 18q2 8 11.5 45t15.5 70q0 12 -12 2q-164 -139 -335 -139t-233 112l-77 -495q-4 -10 -9 -11l-45 -6q-4 0 -4 6l115 725q38 245 54 355 q15 109 -2 137.5t-81 32.5q-25 0 -20 14q0 14 26 16q139 18 256 82q6 6 14.5 6z" />
<glyph unicode="&#xb6;" horiz-adv-x="1644" d="M692 899q-49 0 -120.5 -25.5t-160 -99t-112.5 -244.5q-37 -236 98.5 -332t352.5 -73l114 723q6 33 -4 37t-25.5 7t-35 4l-39 2t-68.5 1zM494 -387q36 0 86.5 8t78.5 49q24 43 37 121t15 86l30 199q-269 -36 -396.5 49.5t-171 184t-23.5 226.5q36 225 182 318.5t350 93.5 l270 -6h406l207 6q20 0 20 -14q-5 -14 -37 -15q-67 -2 -97 -42.5t-48 -155.5q-19 -116 -36 -222t-32.5 -206t-33 -211.5t-33.5 -217.5t-19.5 -144.5t10 -72.5t107.5 -34q16 0 19.5 -5t0.5 -9q0 -14 -26 -15l-215 6l-150 -6q-23 0 -22 15q7 14 28 14q49 2 66.5 56.5 t37.5 177.5t38 234.5t33.5 211.5t32 205.5t31.5 201.5t19.5 158t-88.5 62q-99 0 -125 -38t-46 -158q-19 -119 -36.5 -225t-33 -206t-32 -212t-32.5 -208q-24 -146 -18 -203t53 -57q16 0 19.5 -5t1.5 -9q0 -14 -27 -15l-154 6l-264 -6q-23 0 -18 17q-1 12 35 12z" />
<glyph unicode="&#xb7;" horiz-adv-x="491" d="M310 954q44 0 70 -32.5t18 -79.5t-43.5 -80t-79.5 -33t-70.5 33t-18.5 80q6 47 43 79.5t81 32.5z" />
<glyph unicode="&#xb8;" horiz-adv-x="442" d="M36.5 -305q85.5 0 96.5 79q6 44 -9 57t-34.5 21.5t-34 20.5t-6.5 51l17 76h38l-10 -55q-4 -27 19.5 -36t53.5 -19.5t52.5 -29t16.5 -57.5q-11 -69 -93.5 -107t-175.5 -34q-23 0 -19.5 16.5t89 16.5z" />
<glyph unicode="&#xb9;" horiz-adv-x="743" d="M602 1554q11 0 8 -14q-9 -53 -26.5 -145t-33.5 -198q-17 -106 -24.5 -152t-12.5 -81.5t-10 -66.5t-11.5 -68.5t-13.5 -88t-16 -110.5t-8 -87t18 -43.5t106 -16.5q14 0 14 -12q-4 -12 -19 -12l-192 4l-21 -1l-186 -3q-18 0 -14 12q0 12 34 12q91 0 118 19.5t40 103.5 q14 84 22.5 133t15.5 100t18 107.5t27 157.5q15 100 23.5 163.5t14.5 102.5t5 46t-10 7t-80 -34.5t-97 -49.5q-16 -6 -16.5 3.5t10.5 17.5q55 33 132 79t156 101q14 14 29 14z" />
<glyph unicode="&#xba;" horiz-adv-x="778" d="M522 1505q-126 0 -202.5 -102.5t-98.5 -239.5q-32 -230 47.5 -294t147.5 -64q123 0 197.5 94.5t97.5 233.5q34 241 -43.5 306.5t-145.5 65.5zM152.5 866.5q-89.5 104.5 -61.5 279.5q28 174 150.5 286t286.5 112t253 -111.5t63 -278.5q-26 -168 -153 -280t-288 -112 t-250.5 104.5z" />
<glyph unicode="&#xbb;" horiz-adv-x="1095" d="M653 754q-2 -12 -10 -17l-555 -313q-10 -6 -6 4l4 33q0 8 8 12l389 277q8 2 8.5 8t-4.5 8l-303 276q-4 2 -4 13l6 32q0 8 9 5l454 -314q6 -6 4 -16v-8zM852 758q0 6 -4 8l-303 276q-4 2 -3 5.5t1 7.5l6 32q0 6 6 5l455 -314q8 -8 6 -16v-8q-2 -10 -12 -17l-555 -313 q-8 -4 -5 4l5 33q0 8 6 12l389 277q8 2 8 8z" />
<glyph unicode="&#xbc;" horiz-adv-x="1918" d="M1645 918h-5q-68 -78 -126 -145.5t-112 -130t-106.5 -121t-105.5 -120.5h371q23 131 42 253.5t42 263.5zM444.5 21q5.5 15 71.5 119t187.5 290t243.5 369.5t246 368t253 376.5q4 8 12 4l31 -12q8 -2 0 -10q-256 -399 -505 -783.5t-497 -777.5q-6 -10 -12 -4l-22 29 q-14 16 -8.5 31zM602 1554q11 0 8 -14q-9 -53 -26.5 -145t-33.5 -198q-17 -106 -24.5 -152t-12.5 -81.5t-10 -66.5t-11.5 -68.5t-13.5 -88t-16 -110.5t-8 -87t18 -43.5t106 -16.5q14 0 14 -12q-4 -12 -19 -12l-192 4l-21 -1l-186 -3q-18 0 -14 12q0 12 34 12q91 0 118 19.5 t40 103.5q14 84 22.5 133t15.5 100t18 107.5t27 157.5q15 100 23.5 163.5t14.5 102.5t5 46t-10 7t-80 -34.5t-97 -49.5q-16 -6 -16.5 3.5t10.5 17.5q55 33 132 79t156 101q14 14 29 14zM1362 8q0 12 26 12q68 0 91.5 19.5t40.5 114.5l26 168h-438q-18 0 -18 14q2 14 13 28 t54 61.5t105.5 119t137.5 156.5t141.5 161t115.5 133t67 77t29 20q17 0 12 -25l-32 -207q-10 -70 -30 -192.5t-40 -266.5h92q27 0 40 12.5t21.5 12.5t4.5 -14t-12.5 -33t-18.5 -45q0 -12 -23 -12h-118l-27 -168q-11 -90 4.5 -108.5t37.5 -22t46 -3.5t23 -12q0 -12 -21 -12 h-23l-65 2l-77 1l-171 -3q-14 0 -14 12z" />
<glyph unicode="&#xbd;" horiz-adv-x="1826" d="M444.5 21q5.5 15 71.5 119t187.5 290t243.5 369.5t246 368t253 376.5q4 8 12 4l31 -12q8 -2 0 -10q-256 -399 -505 -783.5t-497 -777.5q-6 -10 -12 -4l-22 29q-14 16 -8.5 31zM602 1554q11 0 8 -14q-9 -53 -26.5 -145t-33.5 -198q-17 -106 -24.5 -152t-12.5 -81.5 t-10 -66.5t-11.5 -68.5t-13.5 -88t-16 -110.5t-8 -87t18 -43.5t106 -16.5q14 0 14 -12q-4 -12 -19 -12l-192 4l-21 -1l-186 -3q-18 0 -14 12q0 12 34 12q91 0 118 19.5t40 103.5q14 84 22.5 133t15.5 100t18 107.5t27 157.5q15 100 23.5 163.5t14.5 102.5t5 46t-10 7 t-80 -34.5t-97 -49.5q-16 -6 -16.5 3.5t10.5 17.5q55 33 132 79t156 101q14 14 29 14zM1073 0q-6 0 -11 4t-4 12t25 25q250 225 346.5 344t147.5 213t64 179q23 150 -20 206.5t-124 56.5q-139 0 -185 -88t-52 -135q-4 -16 -14 -16q-10 1 -5 35q4 34 9 75t7 80q0 26 94.5 58 t166.5 32q145 0 204.5 -75.5t39.5 -189.5t-79 -210t-141 -185t-174 -171t-172 -152q-6 -8 0 -8h180q180 0 231 24t87 119q8 18 14 19q8 0 8 -19q-20 -79 -40.5 -130t-27.5 -71t-22.5 -26t-52.5 -6h-500z" />
<glyph unicode="&#xbe;" horiz-adv-x="1888" d="M1612 918h-2q-108 -124 -200.5 -231t-145 -165.5t-105.5 -120.5h371q34 223 82 517zM426 51q382 589 621 945t368 548q4 8 12 4l31 -12q8 -2 0 -10q-256 -399 -504.5 -783.5t-496.5 -777.5q-10 -10 -13 -4l-24 29q-12 16 -7 30.5t13 30.5zM450 1501q-72 0 -129 -47 t-73 -141q-4 -16 -12.5 -16.5t-4.5 34.5t7.5 63t3.5 52t18 39q100 59 233 59t184 -66.5t36 -152.5q-25 -159 -249 -241q-35 -12 -22 -13q171 -17 204.5 -114t14.5 -207.5t-134.5 -204.5t-262.5 -94t-201 47q-14 11 -3.5 53.5t18.5 85t13 64.5t14 22t8 -16 q-8 -90 27.5 -150.5t135.5 -60.5t179.5 67.5t100.5 198.5t-45.5 198t-164.5 78q-22 4 -18 16t26 17q246 66 250.5 215t-39 182t-115.5 33zM1450 41q24 21 39 113l27 168h-439q-20 0 -20 14q3 15 57.5 76t117 132.5t137.5 156.5t141.5 161t115.5 133t68 77q18 20 28 20 q18 0 13 -25l-33 -207q-10 -70 -30 -192.5t-40 -266.5h92q27 0 40.5 12.5t21.5 12.5t4 -14t-13.5 -33t-19.5 -45q0 -12 -20 -12h-119l-27 -168q-12 -90 4.5 -108.5t38.5 -22t44 -3.5t22 -12t-19 -12h-23l-64 2l-77 1l-171 -3q-14 0 -15 12q0 12 48 12q47 0 71 21z" />
<glyph unicode="&#xbf;" horiz-adv-x="862" d="M291 -553q133 0 219 82t111 235q6 29 18 29.5t8 -35.5t-8 -66t-7 -54.5t-4 -47t-3 -44.5t-6.5 -30t-40.5 -32t-123 -53t-195 -29q-196 0 -271 99.5t-57 236.5q33 208 259 353.5t279.5 199t60.5 96.5q14 84 -58 170q-10 14 2 26.5t25 -3.5q103 -140 88 -233 q-15 -94 -102 -165t-146 -115t-168.5 -149.5t-97 -252.5t77.5 -182.5t139 -35.5zM566 729q-44 0 -70.5 33t-18.5 80q6 47 43 79.5t81 32.5t70.5 -32.5t19.5 -79.5t-44 -80t-81 -33z" />
<glyph unicode="&#xc0;" d="M524 664h400q12 0 10 14l-115 612q-2 16 -12 -2l-287 -610q-8 -14 4 -14zM-55 8q1 14 35 14q71 1 118.5 49t96.5 148l647 1278q31 63 51 64q23 0 31 -64l260 -1235q27 -135 62.5 -187t117.5 -52q25 0 25 -14.5t-27 -14.5l-229 6l-193 -6q-20 0 -20 14t34 14t60 27t12 111 l-80 434q-2 10 -14 10h-436q-10 0 -19 -12l-176 -373q-43 -94 -43 -145t82 -51q22 -1 22 -15t-26 -14l-46 2l-325 -2q-20 0 -20 14zM694 1919q-6 9 8 16q75 24 146 -20q10 -10 12 -14l125 -261q2 -6 -17.5 -7t-23.5 7z" />
<glyph unicode="&#xc1;" d="M524 664h400q12 0 10 14l-115 612q-2 16 -12 -2l-287 -610q-8 -14 4 -14zM-55 8q1 14 35 14q71 1 118.5 49t96.5 148l647 1278q31 63 51 64q23 0 31 -64l260 -1235q27 -135 62.5 -187t117.5 -52q25 0 25 -14.5t-27 -14.5l-229 6l-193 -6q-20 0 -20 14t34 14t60 27t12 111 l-80 434q-2 10 -14 10h-436q-10 0 -19 -12l-176 -373q-43 -94 -43 -145t82 -51q22 -1 22 -15t-26 -14l-46 2l-325 -2q-20 0 -20 14zM842.5 1634q-13.5 0 -18.5 1t-3 5l205 261q34 34 88 39.5t70 -0.5t20 -10.5t-4 -10.5l-338 -279q-6 -6 -19.5 -6z" />
<glyph unicode="&#xc2;" d="M524 664h400q12 0 10 14l-115 612q-2 16 -12 -2l-287 -610q-8 -14 4 -14zM-55 8q1 14 35 14q71 1 118.5 49t96.5 148l647 1278q31 63 51 64q23 0 31 -64l260 -1235q27 -135 62.5 -187t117.5 -52q25 0 25 -14.5t-27 -14.5l-229 6l-193 -6q-20 0 -20 14t34 14t60 27t12 111 l-80 434q-2 10 -14 10h-436q-10 0 -19 -12l-176 -373q-43 -94 -43 -145t82 -51q22 -1 22 -15t-26 -14l-46 2l-325 -2q-20 0 -20 14zM949 1931q47 0 50 -10l199 -281q4 -6 -14.5 -5t-24.5 5l-227 177l-283 -177q-6 -4 -24.5 -5t-14.5 5l285 281q7 10 54 10z" />
<glyph unicode="&#xc3;" d="M524 664h400q12 0 10 14l-115 612q-2 16 -12 -2l-287 -610q-8 -14 4 -14zM-55 8q1 14 35 14q71 1 118.5 49t96.5 148l647 1278q31 63 51 64q23 0 31 -64l260 -1235q27 -135 62.5 -187t117.5 -52q25 0 25 -14.5t-27 -14.5l-229 6l-193 -6q-20 0 -20 14t34 14t60 27t12 111 l-80 434q-2 10 -14 10h-436q-10 0 -19 -12l-176 -373q-43 -94 -43 -145t82 -51q22 -1 22 -15t-26 -14l-46 2l-325 -2q-20 0 -20 14zM965.5 1791q98.5 -36 129.5 -36t62 10.5t70 57.5q4 4 13 -1.5t3 -15.5q-28 -44 -87.5 -95.5t-111.5 -51.5q-66 0 -161.5 36t-127.5 36 t-61.5 -10.5t-70.5 -57.5q-4 -4 -14.5 1t-3.5 15t28.5 36t72.5 69t106 43t153.5 -36z" />
<glyph unicode="&#xc4;" d="M524 664h400q12 0 10 14l-115 612q-2 16 -12 -2l-287 -610q-8 -14 4 -14zM-55 8q1 14 35 14q71 1 118.5 49t96.5 148l647 1278q31 63 51 64q23 0 31 -64l260 -1235q27 -135 62.5 -187t117.5 -52q25 0 25 -14.5t-27 -14.5l-229 6l-193 -6q-20 0 -20 14t34 14t60 27t12 111 l-80 434q-2 10 -14 10h-436q-10 0 -19 -12l-176 -373q-43 -94 -43 -145t82 -51q22 -1 22 -15t-26 -14l-46 2l-325 -2q-20 0 -20 14zM1120 1864q41 0 62.5 -29t15.5 -70t-37 -68.5t-71.5 -27.5t-62 27.5t-15.5 68.5t36.5 70t71.5 29zM761 1864q40 0 61.5 -29t15 -70 t-37 -68.5t-70.5 -27.5t-61.5 27.5t-15.5 68.5t37 70t71 29z" />
<glyph unicode="&#xc5;" d="M893 1565q47 0 84 32.5t45 81.5t-18.5 84t-73.5 35t-85 -35t-46 -84t19.5 -81.5t74.5 -32.5zM524 664h400q12 0 10 14l-115 612q-2 16 -12 -2l-287 -610q-8 -14 4 -14zM-17 23q67 0 115 48t97 148l647 1278l8 21q-53 12 -79.5 57t-16.5 111t64 114.5t121 48.5 t104.5 -48.5t27.5 -114.5t-52 -111t-97 -57l2 -21l260 -1235q27 -135 62.5 -187t117.5 -52q29 0 25 -15q0 -14 -27 -14l-229 6l-193 -6q-20 0 -20 12q4 16 36 16t58 27t12 111l-80 434q-2 10 -14 10h-436q-10 0 -19 -12l-176 -373q-43 -94 -43 -145t82 -51q16 0 20.5 -5.5 t1.5 -9.5q0 -14 -26 -14l-46 2l-325 -2q-20 0 -20 14q7 15 38 15z" />
<glyph unicode="&#xc6;" horiz-adv-x="1949" d="M890 23q64 0 92 52.5t44 151.5q16 98 31.5 191.5t29.5 185.5h-421q-14 0 -23 -12l-289 -373q-69 -89 -79.5 -125.5t2 -53.5t57.5 -17q25 0 20 -15q1 -14 -24 -14l-183 6l-182 -6q-20 0 -20 14q8 15 24 15q88 0 150.5 56t128.5 140l1026 1278q34 39 67 39h258 q258 0 345 12q8 2 17 14.5t19 10.5q13 -4 -13 -64t-52 -202q-6 -25 -17 -25q-18 0 -14 18t4 47t-2 48q-4 39 -62.5 55t-160.5 23l-272 6q-12 0 -15 -21l-94 -598q-2 -16 6 -16h204q203 0 251.5 15.5t66.5 37.5q19 22 29 22.5t-1 -37.5q-44 -154 -58 -243q-4 -25 -19 -25 t-6 48q18 108 -88 118q-60 6 -99 6h-290q-8 0 -8 -10l-78 -489q-14 -58 -17.5 -123.5t3.5 -75.5q14 -23 58 -28t108 -5l133 -1q133 0 181 20q92 37 136 180q9 25 20 25q11 1 9 -15q-4 -28 -27 -111t-35 -113t-31.5 -39t-76.5 -9l-578 8l-201 -6q-23 0 -22 14q8 15 38 15z M713 664h385q25 154 47 306t49 320q2 10 -3 8t-11 -10l-471 -610q-12 -14 4 -14z" />
<glyph unicode="&#xc7;" horiz-adv-x="1417" d="M671.5 -305q85.5 0 96.5 78q6 45 -8.5 58t-32.5 21.5t-33.5 20.5t-9.5 51l10 62q-260 8 -413.5 173t-153.5 433q0 190 68.5 363t189.5 303.5t285 208t354 77.5q93 0 214 -24.5t192 -24.5q27 0 33.5 17.5t17 17.5t7.5 -16q-4 -21 -37 -166.5t-40 -190.5q-8 -45 -22 -45 t-11 25q27 175 -75.5 264.5t-285.5 89.5t-314.5 -77t-218.5 -198.5t-130 -271.5t-43 -286q0 -266 134.5 -427t379.5 -161q133 0 244 54t217 179q12 16 26.5 15t0.5 -29q-210 -297 -578 -305l-6 -39q-4 -27 20.5 -36t54.5 -19.5t52 -29t16 -57.5q-12 -71 -95 -108t-175 -33 q-23 0 -19.5 16.5t89 16.5z" />
<glyph unicode="&#xc8;" horiz-adv-x="1069" d="M580 1919q-6 9 8 16q75 24 145 -20q10 -10 12 -14l123 -261q4 -6 -15 -7t-24 7zM10 23q63 0 91 52.5t49 178.5q20 125 42.5 265t44 275.5t42.5 269.5t35 225t17 122t-12.5 63t-111.5 39q-25 0 -21 15q0 14 25 14l225 -6h270q270 0 357 12q10 2 18.5 14.5t21.5 9.5t-3 -28 q-40 -119 -64 -237q-6 -25 -20 -25t-10 18t4 47t-2 48q-4 39 -62.5 55t-161.5 23l-272 6q-14 0 -16 -21l-95 -598q-2 -16 7 -16h204q204 0 254 16t67 38q17 21 25 22q12 0 7 -17q-48 -156 -64 -264q-4 -25 -16 -25q-19 0 -13 25q10 70 -8.5 105.5t-86.5 37.5t-79 2l-130 1 q-119 1 -169 1q-10 0 -10 -10l-78 -489q-14 -54 -16 -121.5t4 -78.5q12 -21 55 -26.5t108 -5.5l133 -1q133 0 183 20q93 37 137 180q9 25 19 25t10 -7.5t-1 -15.5q-1 -9 -23 -91.5t-35 -118.5q-14 -36 -35 -45t-78 -9l-577 8l-201 -6q-20 0 -21 14q8 15 37 15z" />
<glyph unicode="&#xc9;" horiz-adv-x="1069" d="M552 1634q-13 0 -18.5 1t-3.5 5l207 261q35 35 88.5 40t69.5 -1t19.5 -10.5t-3.5 -10.5l-340 -279q-6 -6 -19 -6zM10 23q63 0 91 52.5t49 178.5q20 125 42.5 265t44 275.5t42.5 269.5t35 225t17 122t-12.5 63t-111.5 39q-25 0 -21 15q0 14 25 14l225 -6h270t357 12 q10 2 18.5 14.5t21.5 9.5t-3 -28q-40 -119 -64 -237q-6 -25 -20 -25t-10 18t4 47t-2 48q-4 39 -62.5 55t-161.5 23l-272 6q-14 0 -16 -21l-95 -598q-2 -16 7 -16h204q204 0 254 16t67 38q17 21 25 22q12 0 7 -17q-48 -156 -64 -264q-4 -25 -16 -25q-19 0 -13 25 q10 70 -8.5 105.5t-86.5 37.5t-79 2l-130 1q-119 1 -169 1q-10 0 -10 -10l-78 -489q-14 -54 -16 -121.5t4 -78.5q12 -21 55 -26.5t108 -5.5l133 -1q133 0 183 20q93 37 137 180q9 25 19 25t10 -7.5t-1 -15.5q-1 -9 -23 -91.5t-35 -118.5q-14 -36 -35 -45t-78 -9l-577 8 l-201 -6q-20 0 -21 14q8 15 37 15z" />
<glyph unicode="&#xca;" horiz-adv-x="1069" d="M743.5 1931q46.5 0 53.5 -10l196 -281q4 -6 -14 -5t-25 5l-227 177l-283 -177q-4 -4 -23.5 -5t-14.5 5l284 281q7 10 53.5 10zM10 23q63 0 91 52.5t49 178.5q20 125 42.5 265t44 275.5t42.5 269.5t35 225t17 122t-12.5 63t-111.5 39q-25 0 -21 15q0 14 25 14l225 -6h270 q270 0 357 12q10 2 18.5 14.5t21.5 9.5t-3 -28q-40 -119 -64 -237q-6 -25 -20 -25t-10 18t4 47t-2 48q-4 39 -62.5 55t-161.5 23l-272 6q-14 0 -16 -21l-95 -598q-2 -16 7 -16h204q204 0 254 16t67 38q17 21 25 22q12 0 7 -17q-48 -156 -64 -264q-4 -25 -16 -25 q-19 0 -13 25q10 70 -8.5 105.5t-86.5 37.5t-79 2l-130 1q-119 1 -169 1q-10 0 -10 -10l-78 -489q-14 -54 -16 -121.5t4 -78.5q12 -21 55 -26.5t108 -5.5l133 -1q133 0 183 20q93 37 137 180q9 25 19 25t10 -7.5t-1 -15.5q-1 -9 -23 -91.5t-35 -118.5q-14 -36 -35 -45 t-78 -9l-577 8l-201 -6q-20 0 -21 14q8 15 37 15z" />
<glyph unicode="&#xcb;" horiz-adv-x="1069" d="M556 1864q40 0 61.5 -29t15.5 -70t-37 -68.5t-71 -27.5t-61.5 27.5t-15 68.5t37 70t70.5 29zM916 1864q40 0 61.5 -29t15.5 -70t-36.5 -68.5t-70.5 -27.5t-61.5 27.5t-15.5 68.5t36.5 70t70.5 29zM10 23q63 0 91 52.5t49 178.5q20 125 42.5 265t44 275.5t42.5 269.5 t35 225t17 122t-12.5 63t-111.5 39q-25 0 -21 15q0 14 25 14l225 -6h270t357 12q10 2 18.5 14.5t21.5 9.5t-3 -28q-40 -119 -64 -237q-6 -25 -20 -25t-10 18t4 47t-2 48q-4 39 -62.5 55t-161.5 23l-272 6q-14 0 -16 -21l-95 -598q-2 -16 7 -16h204q204 0 254 16t67 38 q17 21 25 22q12 0 7 -17q-48 -156 -64 -264q-4 -25 -16 -25q-19 0 -13 25q10 70 -8.5 105.5t-86.5 37.5t-79 2l-130 1q-119 1 -169 1q-10 0 -10 -10l-78 -489q-14 -54 -16 -121.5t4 -78.5q12 -21 55 -26.5t108 -5.5l133 -1q133 0 183 20q93 37 137 180q9 25 19 25t10 -7.5 t-1 -15.5q-1 -9 -23 -91.5t-35 -118.5q-14 -36 -35 -45t-78 -9l-577 8l-201 -6q-20 0 -21 14q8 15 37 15z" />
<glyph unicode="&#xcc;" horiz-adv-x="546" d="M336 1919q-6 9 8 16q31 10 72 6t62 -19t24 -21l125 -261q2 -6 -16.5 -7t-24.5 7zM-3 23q70 0 99.5 46t49.5 178t42.5 272t78.5 493t59.5 396.5t-9.5 70t-110 34.5q-25 0 -21 15q0 14 25 14l55 -2l369 2q23 0 22 -14q-3 -14 -37 -16q-69 -3 -99 -42.5t-49 -155.5 q-20 -116 -40 -250t-41.5 -269.5t-43 -276t-39.5 -246.5t-20.5 -144t10.5 -71.5t110 -33.5q25 0 20 -15q0 -14 -25 -14l-55 2l-368 -2q-23 0 -23 14q8 15 40 15z" />
<glyph unicode="&#xcd;" horiz-adv-x="546" d="M328 1640q-4 -8 -23.5 -7t-17.5 7l207 261q34 34 88 39.5t70 -0.5t20 -10.5t-4 -10.5zM-3 23q70 0 99.5 46t49.5 178t42.5 272t78.5 493t59.5 396.5t-9.5 70t-110 34.5q-25 0 -21 15q0 14 25 14l55 -2l369 2q23 0 22 -14q-3 -14 -37 -16q-69 -3 -99 -42.5t-49 -155.5 q-20 -116 -40 -250t-41.5 -269.5t-43 -276t-39.5 -246.5t-20.5 -144t10.5 -71.5t110 -33.5q25 0 20 -15q0 -14 -25 -14l-55 2l-368 -2q-23 0 -23 14q8 15 40 15z" />
<glyph unicode="&#xce;" horiz-adv-x="546" d="M499.5 1931q46.5 0 53.5 -10l199 -281q4 -6 -15.5 -5t-23.5 5l-230 177l-280 -177q-6 -4 -24.5 -5t-14.5 5l282 281q7 10 53.5 10zM-3 23q70 0 99.5 46t49.5 178t42.5 272t78.5 493t59.5 396.5t-9.5 70t-110 34.5q-25 0 -21 15q0 14 25 14l55 -2l369 2q23 0 22 -14 q-3 -14 -37 -16q-69 -3 -99 -42.5t-49 -155.5q-20 -116 -40 -250t-41.5 -269.5t-43 -276t-39.5 -246.5t-20.5 -144t10.5 -71.5t110 -33.5q25 0 20 -15q0 -14 -25 -14l-55 2l-368 -2q-23 0 -23 14q8 15 40 15z" />
<glyph unicode="&#xcf;" horiz-adv-x="546" d="M673 1864q40 0 61.5 -29t15 -70t-37 -68.5t-70.5 -27.5t-61.5 27.5t-15.5 68.5t37 70t71 29zM312 1864q40 0 61.5 -29t15.5 -70t-36.5 -68.5t-70.5 -27.5t-61.5 27.5t-15.5 68.5t36.5 70t70.5 29zM-3 23q70 0 99.5 46t49.5 178t42.5 272t78.5 493t59.5 396.5t-9.5 70 t-110 34.5q-25 0 -21 15q0 14 25 14l55 -2l369 2q23 0 22 -14q-3 -14 -37 -16q-69 -3 -99 -42.5t-49 -155.5q-20 -116 -40 -250t-41.5 -269.5t-43 -276t-39.5 -246.5t-20.5 -144t10.5 -71.5t110 -33.5q25 0 20 -15q0 -14 -25 -14l-55 2l-368 -2q-23 0 -23 14q8 15 40 15z " />
<glyph unicode="&#xd0;" horiz-adv-x="1587" d="M1380 889q0 308 -180 455t-510 147q-163 0 -179 -17t-57.5 -285.5t-60.5 -379.5h225q4 0 5 -6l-13 -45q0 -8 -12 -8h-215l-72 -474q-10 -62 -10 -110q0 -81 76 -101t174 -20q396 0 560.5 182.5t216.5 339t52 322.5zM6 23q67 0 95 52.5t44 145.5l84 529h-182q-4 0 -4 6 l12 45q4 8 13 8h170q23 131 42.5 262t33.5 220t17 120t-12.5 63t-111.5 39q-20 0 -20.5 14.5t24.5 14.5l225 -6l318 8q569 0 688 -212t119 -406t-74 -369.5t-276 -370t-623 -194.5l-393 8l-201 -6q-20 0 -20.5 14.5t32.5 14.5z" />
<glyph unicode="&#xd1;" horiz-adv-x="1683" d="M1076 1791q100 -36 130 -36q31 0 61.5 10.5t69.5 57.5q4 4 14.5 -2t8.5 -11q-62 -87 -120 -119t-97 -32q-54 0 -150 36t-128 36q-31 0 -61 -10.5t-71 -57.5q-4 -4 -13 1t-3 15t27.5 36t71.5 69t105 43t155 -36zM1345.5 -20q-12.5 0 -29 21.5t-63.5 88.5t-282.5 433 t-394 584t-177.5 247l-141 -1067q-23 -153 -11.5 -191.5t41 -55.5t64.5 -17t43 -2.5t6 -12.5q0 -14 -26 -14l-213 6l-195 -6q-23 0 -20 14.5t39 14.5q85 0 110 48t54 216l178 1097q12 78 -22 103.5t-78 25.5t-44 13q2 16 27 16q78 0 151.5 -6t157.5 -2q271 -484 522 -830 t293 -411l142 1016q17 123 1 153.5t-46.5 40.5t-85.5 10q-27 0 -23 15q3 14 27 14l215 -6l192 6q10 0 17.5 -2t4.5 -14t-36 -12q-77 -1 -109.5 -39.5t-48.5 -149.5l-199 -1229q-12 -76 -20 -96t-20.5 -20z" />
<glyph unicode="&#xd2;" horiz-adv-x="1726" d="M1491 921q0 276 -138.5 423t-361.5 147q-170 0 -297 -77t-211 -197.5t-126 -269t-42 -357t140.5 -373t361.5 -164.5q176 0 303 81t210 207t122 281t39 299zM766 -16q-328 0 -481.5 187.5t-153.5 451.5q0 186 71.5 353t193.5 293t285 200.5t325 74.5q310 0 489.5 -171 t179.5 -455q0 -190 -72.5 -360.5t-198.5 -298.5t-293 -201.5t-345 -73.5zM918 1919q-6 9 8 16q78 25 145 -20q10 -10 12 -14l125 -261q2 -6 -16 -7t-25 7z" />
<glyph unicode="&#xd3;" horiz-adv-x="1726" d="M1491 921q0 276 -138.5 423t-361.5 147q-170 0 -297 -77t-211 -197.5t-126 -269t-42 -357t140.5 -373t361.5 -164.5q176 0 303 81t210 207t122 281t39 299zM766 -16q-328 0 -481.5 187.5t-153.5 451.5q0 186 71.5 353t193.5 293t285 200.5t325 74.5q310 0 489.5 -171 t179.5 -455q0 -190 -72.5 -360.5t-198.5 -298.5t-293 -201.5t-345 -73.5zM909 1640q-4 -8 -23.5 -7t-17.5 7l207 261q34 34 88 39.5t70 -0.5t20 -10.5t-4 -10.5z" />
<glyph unicode="&#xd4;" horiz-adv-x="1726" d="M1491 921q0 276 -138.5 423t-361.5 147q-170 0 -297 -77t-211 -197.5t-126 -269t-42 -357t140.5 -373t361.5 -164.5q176 0 303 81t210 207t122 281t39 299zM766 -16q-328 0 -481.5 187.5t-153.5 451.5q0 186 71.5 353t193.5 293t285 200.5t325 74.5q310 0 489.5 -171 t179.5 -455q0 -190 -72.5 -360.5t-198.5 -298.5t-293 -201.5t-345 -73.5zM1082 1931q45 0 53 -10l198 -281q4 -6 -15.5 -5t-23.5 5l-229 177l-281 -177q-6 -4 -24.5 -5t-14.5 5l285 281q7 10 52 10z" />
<glyph unicode="&#xd5;" horiz-adv-x="1726" d="M1491 921q0 276 -138.5 423t-361.5 147q-170 0 -297 -77t-211 -197.5t-126 -269t-42 -357t140.5 -373t361.5 -164.5q176 0 303 81t210 207t122 281t39 299zM766 -16q-328 0 -481.5 187.5t-153.5 451.5q0 186 71.5 353t193.5 293t285 200.5t325 74.5q310 0 489.5 -171 t179.5 -455q0 -190 -72.5 -360.5t-198.5 -298.5t-293 -201.5t-345 -73.5zM1098 1791q97 -36 129 -36t63 10.5t70 57.5q4 4 13 -1.5t3 -15.5q-28 -44 -87.5 -95.5t-111.5 -51.5q-66 0 -161.5 36t-128.5 36t-62.5 -10.5t-68.5 -57.5q-4 -4 -14.5 1t-3.5 15t28.5 36t72.5 69 t106 43q56 0 153 -36z" />
<glyph unicode="&#xd6;" horiz-adv-x="1726" d="M1491 921q0 276 -138.5 423t-361.5 147q-170 0 -297 -77t-211 -197.5t-126 -269t-42 -357t140.5 -373t361.5 -164.5q176 0 303 81t210 207t122 281t39 299zM766 -16q-328 0 -481.5 187.5t-153.5 451.5q0 186 71.5 353t193.5 293t285 200.5t325 74.5q310 0 489.5 -171 t179.5 -455q0 -190 -72.5 -360.5t-198.5 -298.5t-293 -201.5t-345 -73.5zM1254 1864q40 0 61.5 -29t15.5 -70t-36.5 -68.5t-70.5 -27.5t-61.5 27.5t-15.5 68.5t36.5 70t70.5 29zM894 1864q40 0 61.5 -29t15.5 -70t-37 -68.5t-71 -27.5t-61.5 27.5t-15 68.5t37 70t70.5 29z " />
<glyph unicode="&#xd7;" horiz-adv-x="1181" d="M676 780l217 -274q4 -8 0 -12l-33 -37h-8l-223 280l-312 -280q-6 -6 -8 0l-20 35q-4 8 4 14l303 274l-217 275q-4 4 0 14l33 35q2 6 8 0l221 -283l313 283h9l20 -37q4 -4 -4 -12z" />
<glyph unicode="&#xd8;" horiz-adv-x="1726" d="M974 1491q-152 0 -279.5 -77t-211.5 -197.5t-126 -269t-42 -296.5t45.5 -267.5t122.5 -197.5l752 1250q-109 55 -261 55zM1491 938q0 162 -56.5 281.5t-154.5 187.5l-754 -1257q121 -96 294 -96t300 80.5t210 206.5t122 280.5t39 316.5zM1001 1544q157 0 275 -39l61 101 q2 6 13 6l39 -15q6 -4 2 -8l-64 -104q160 -72 254 -217.5t94 -342.5t-72.5 -367.5t-198.5 -298.5t-293 -201.5t-345 -73.5t-305 57l-62 -102q-6 -6 -14 -7l-39 15q-2 2 -2 8l68 113q-208 121 -244.5 297t-36.5 258q0 186 71.5 353t193.5 293t285 200.5t320 74.5z" />
<glyph unicode="&#xd9;" horiz-adv-x="1579" d="M844 1919q-6 9 8 16q31 10 72 6t62 -19t24 -21l125 -261q2 -6 -16.5 -7t-24.5 7zM1163.5 176q-159.5 -192 -445.5 -192q-285 0 -394.5 179t-59.5 505l107 675q15 93 -2 128t-113 42q-27 0 -23 15q0 14 7 14l241 -6l203 6q20 0 21 -14q-4 -14 -37 -16q-68 -3 -96 -41.5 t-40 -114.5t-18 -115t-17.5 -106.5t-29.5 -186.5l-43 -268q-73 -464 74 -550.5t272 -86.5q237 0 358 171t164 458l101 637q18 126 2.5 155t-47 39t-86.5 10q-25 0 -21 15q2 14 25 14l204 -6l181 6q23 0 20 -14t-35 -14q-76 -1 -108.5 -39t-48.5 -150l-103 -643 q-53 -314 -212.5 -506z" />
<glyph unicode="&#xda;" horiz-adv-x="1579" d="M818 1634q-15 0 -20 1t-3 5l206 261q35 35 88.5 40t69.5 -1t20.5 -10.5t-3.5 -10.5l-340 -279q-3 -6 -18 -6zM1163.5 176q-159.5 -192 -445.5 -192q-285 0 -394.5 179t-59.5 505l107 675q15 93 -2 128t-113 42q-27 0 -23 15q0 14 7 14l241 -6l203 6q20 0 21 -14 q-4 -14 -37 -16q-68 -3 -96 -41.5t-40 -114.5t-18 -115t-17.5 -106.5t-29.5 -186.5l-43 -268q-73 -464 74 -550.5t272 -86.5q237 0 358 171t164 458l101 637q18 126 2.5 155t-47 39t-86.5 10q-25 0 -21 15q2 14 25 14l204 -6l181 6q23 0 20 -14t-35 -14q-76 -1 -108.5 -39 t-48.5 -150l-103 -643q-53 -314 -212.5 -506z" />
<glyph unicode="&#xdb;" horiz-adv-x="1579" d="M1007.5 1931q46.5 0 53.5 -10l196 -281q4 -6 -14 -5t-24 5l-228 177l-280 -177q-6 -4 -24.5 -5t-14.5 5l282 281q7 10 53.5 10zM1163.5 176q-159.5 -192 -445.5 -192q-285 0 -394.5 179t-59.5 505l107 675q15 93 -2 128t-113 42q-27 0 -23 15q0 14 7 14l241 -6l203 6 q20 0 21 -14q-4 -14 -37 -16q-68 -3 -96 -41.5t-40 -114.5t-18 -115t-17.5 -106.5t-29.5 -186.5l-43 -268q-73 -464 74 -550.5t272 -86.5q237 0 358 171t164 458l101 637q18 126 2.5 155t-47 39t-86.5 10q-25 0 -21 15q2 14 25 14l204 -6l181 6q23 0 20 -14t-35 -14 q-76 -1 -108.5 -39t-48.5 -150l-103 -643q-53 -314 -212.5 -506z" />
<glyph unicode="&#xdc;" horiz-adv-x="1579" d="M820 1864q40 0 61.5 -29t15.5 -70t-36.5 -68.5t-70.5 -27.5t-61.5 27.5t-15.5 68.5t36.5 70t70.5 29zM1181 1864q40 0 61.5 -29t15 -70t-37 -68.5t-70.5 -27.5t-61.5 27.5t-15.5 68.5t37 70t71 29zM1163.5 176q-159.5 -192 -445.5 -192q-285 0 -394.5 179t-59.5 505 l107 675q15 93 -2 128t-113 42q-27 0 -23 15q0 14 7 14l241 -6l203 6q20 0 21 -14q-4 -14 -37 -16q-68 -3 -96 -41.5t-40 -114.5t-18 -115t-17.5 -106.5t-29.5 -186.5l-43 -268q-73 -464 74 -550.5t272 -86.5q237 0 358 171t164 458l101 637q18 126 2.5 155t-47 39t-86.5 10 q-25 0 -21 15q2 14 25 14l204 -6l181 6q23 0 20 -14t-35 -14q-76 -1 -108.5 -39t-48.5 -150l-103 -643q-53 -314 -212.5 -506z" />
<glyph unicode="&#xdd;" horiz-adv-x="1488" d="M791 1640q-4 -8 -23.5 -7t-15.5 7l204 261q34 34 88 39.5t70 -0.5t20.5 -10.5t-4.5 -10.5zM466 23q69 0 101.5 47.5t46.5 149.5q14 101 22.5 151.5t12.5 73t5 29.5t4.5 22.5t7.5 50.5t16 110q-27 68 -63.5 161t-136 333t-146 301t-127.5 61q-27 0 -23 15q0 14 25 14 l205 -6l196 6q20 0 21 -12q-4 -16 -38 -16t-55.5 -29t10.5 -105q41 -96 111 -285t140 -354q2 -16 14 0q119 175 219 313.5t151 217.5q52 80 102 160.5t-48 80.5q-18 0 -22.5 5.5t-2.5 9.5q0 14 29 14l39 -2l303 2q21 0 21 -14q-4 -14 -37 -14q-71 -1 -131 -50t-115 -122 q-55 -72 -115.5 -156t-127 -178.5t-130 -183.5t-104.5 -148l-14 -81q-13 -81 -15 -97.5t-4 -23.5t-9.5 -64t-23.5 -150q-16 -94 -18 -132t13.5 -71.5t111.5 -33.5q27 0 22 -15q0 -14 -26 -14l-55 2l-379 -2q-23 0 -23 14q8 15 40 15z" />
<glyph unicode="&#xde;" horiz-adv-x="1052" d="M565 1153q-14 0 -33.5 -1t-48 -2.5t-46.5 -7.5q-19 -7 -23 -30l-117 -733q337 -37 449 119.5t133 285.5q27 172 -59.5 270.5t-254.5 98.5zM-19 23q63 0 92 54t46 162q18 107 37.5 233t78 486.5t66.5 457.5t-94 97q-25 0 -21 15q0 14 25 14l192 -6l265 6q25 0 20 -16 q0 -13 -34 -13t-86 -8t-81 -48t-40 -120t-13 -88l-8 -53q147 6 220 6t155 -20.5t174 -95t57 -279.5q-23 -145 -98.5 -243.5t-234 -185t-410.5 -48.5l-6 -43q-15 -59 -17 -126t4 -81q14 -41 62.5 -49t93.5 -8q27 0 23 -13q0 -16 -27 -16l-260 6l-197 -6q-20 0 -20 14 q7 15 36 15z" />
<glyph unicode="&#xdf;" horiz-adv-x="1136" d="M86 885q-20 0 -12 14q12 30 26 31q78 0 103.5 26t43.5 104t63.5 172.5t145.5 209t255 114.5q102 0 150 -66.5t48 -156.5t-35.5 -161.5t-77.5 -139t-78 -138t-36 -136.5t22.5 -104t55.5 -70.5t127 -108t94 -197.5q0 -150 -104.5 -222t-234.5 -72t-205 49t-75 124t43.5 92 t102.5 -11q6 -4 4 -13q-25 -45 -25 -90t41 -80t130 -35t143.5 49t54.5 119t-21.5 110t-54 72.5t-70.5 62.5t-92.5 87t-54.5 160q0 133 149.5 309.5t149.5 304.5q0 86 -58.5 139.5t-136.5 53.5t-119.5 -28.5t-78.5 -97t-72 -267.5l-194 -1125q-36 -210 -152 -365t-299 -155 q-53 0 -80.5 24.5t-27.5 79t102 66.5q10 0 10 -8q15 -111 84 -111q131 0 168 180.5t45 231.5l160 973h-127z" />
<glyph unicode="&#xe0;" horiz-adv-x="1005" d="M143 -16q-116 0 -116 203t99.5 388.5t284 289t275 84.5t121.5 -25q7 8 33 22t30 15q16 0 6 -26q-29 -78 -89 -296.5t-60 -464.5q0 -108 49 -108q43 0 129 47q4 4 15.5 5t11.5 -8q0 -8 -18 -22q-54 -40 -172 -90.5t-139 5.5t-21 144t49 297l-6 5q-117 -210 -253 -337.5 t-229 -127.5zM170 231q0 -149 72 -149q56 0 134.5 82.5t137.5 171.5q60 90 82 135t47.5 111t79.5 290q-99 34 -170 23q-72 -16 -147.5 -83t-122.5 -162q-113 -228 -113 -419zM436 1423q-9 9 8 17q75 24 144 -21q12 -6 12 -14l88 -328q2 -6 -17.5 -7t-23.5 7z" />
<glyph unicode="&#xe1;" horiz-adv-x="1005" d="M143 -16q-116 0 -116 203t99.5 388.5t284 289t275 84.5t121.5 -25q7 8 33 22t30 15q16 0 6 -26q-29 -78 -89 -296.5t-60 -464.5q0 -108 49 -108q43 0 129 47q4 4 15.5 5t11.5 -8q0 -8 -18 -22q-54 -40 -172 -90.5t-139 5.5t-21 144t49 297l-6 5q-117 -210 -253 -337.5 t-229 -127.5zM170 231q0 -149 72 -149q56 0 134.5 82.5t137.5 171.5q60 90 82 135t47.5 111t79.5 290q-99 34 -170 23q-72 -16 -147.5 -83t-122.5 -162q-113 -228 -113 -419zM418 1077q-8 -8 -26.5 -7t-14.5 7l188 328q35 35 88.5 40t69.5 -1t19 -10t-3 -11z" />
<glyph unicode="&#xe2;" horiz-adv-x="1005" d="M143 -16q-116 0 -116 203t99.5 388.5t284 289t275 84.5t121.5 -25q7 8 33 22t30 15q16 0 6 -26q-29 -78 -89 -296.5t-60 -464.5q0 -108 49 -108q43 0 129 47q4 4 15.5 5t11.5 -8q0 -8 -18 -22q-54 -40 -172 -90.5t-139 5.5t-21 144t49 297l-6 5q-117 -210 -253 -337.5 t-229 -127.5zM170 231q0 -149 72 -149q56 0 134.5 82.5t137.5 171.5q60 90 82 135t47.5 111t79.5 290q-99 34 -170 23q-72 -16 -147.5 -83t-122.5 -162q-113 -228 -113 -419zM585.5 1430q46.5 0 53.5 -11l188 -342q4 -6 -15 -5t-24 5l-221 223l-288 -223q-6 -4 -24.5 -5 t-14.5 5l292 342q7 11 53.5 11z" />
<glyph unicode="&#xe3;" horiz-adv-x="1005" d="M143 -16q-116 0 -116 203t99.5 388.5t284 289t275 84.5t121.5 -25q7 8 33 22t30 15q16 0 6 -26q-29 -78 -89 -296.5t-60 -464.5q0 -108 49 -108q43 0 129 47q4 4 15.5 5t11.5 -8q0 -8 -18 -22q-54 -40 -172 -90.5t-139 5.5t-21 144t49 297l-6 5q-117 -210 -253 -337.5 t-229 -127.5zM170 231q0 -149 72 -149q56 0 134.5 82.5t137.5 171.5q60 90 82 135t47.5 111t79.5 290q-99 34 -170 23q-72 -16 -147.5 -83t-122.5 -162q-113 -228 -113 -419zM595.5 1248q93.5 -36 126.5 -36t63 10.5t69 57.5q4 4 14.5 -2t8.5 -10q-64 -89 -121.5 -120.5 t-95.5 -31.5q-48 0 -147.5 36t-130.5 36t-61 -10.5t-71 -57.5q-4 -4 -13.5 1.5t-3.5 15.5t28 35.5t72 68.5t110 43q59 0 152.5 -36z" />
<glyph unicode="&#xe4;" horiz-adv-x="1005" d="M143 -16q-116 0 -116 203t99.5 388.5t284 289t275 84.5t121.5 -25q7 8 33 22t30 15q16 0 6 -26q-29 -78 -89 -296.5t-60 -464.5q0 -108 49 -108q43 0 129 47q4 4 15.5 5t11.5 -8q0 -8 -18 -22q-54 -40 -172 -90.5t-139 5.5t-21 144t49 297l-6 5q-117 -210 -253 -337.5 t-229 -127.5zM170 231q0 -149 72 -149q56 0 134.5 82.5t137.5 171.5q60 90 82 135t47.5 111t79.5 290q-99 34 -170 23q-72 -16 -147.5 -83t-122.5 -162q-113 -228 -113 -419zM749 1315q40 0 62.5 -29.5t14.5 -69.5t-38 -68t-70 -28t-61.5 28t-13.5 69q6 41 36 69.5t70 28.5z M388 1315q40 0 62.5 -29.5t15.5 -69.5t-38 -68t-71 -28t-61 28t-13 69q6 41 35.5 69.5t69.5 28.5z" />
<glyph unicode="&#xe5;" horiz-adv-x="1005" d="M143 -16q-116 0 -116 203t99.5 388.5t284 289t275 84.5t121.5 -25q7 8 33 22t30 15q16 0 6 -26q-29 -78 -89 -296.5t-60 -464.5q0 -108 49 -108q43 0 129 47q4 4 15.5 5t11.5 -8q0 -8 -18 -22q-54 -40 -172 -90.5t-139 5.5t-21 144t49 297l-6 5q-117 -210 -253 -337.5 t-229 -127.5zM170 231q0 -149 72 -149q56 0 134.5 82.5t137.5 171.5q60 90 82 135t47.5 111t79.5 290q-99 34 -170 23q-72 -16 -147.5 -83t-122.5 -162q-113 -228 -113 -419zM538 1118q46 0 84 33t46 82t-20 84t-74 35t-83 -35t-45 -84t19 -82t73 -33zM583.5 1403 q67.5 0 105.5 -48t28 -120t-64.5 -120t-122 -48t-105.5 48t-27.5 120t64.5 120t121.5 48z" />
<glyph unicode="&#xe6;" horiz-adv-x="1400" d="M248 61q96 0 184 55.5t125 88.5q-35 100 -10 237l4 25q-155 -55 -262.5 -118.5t-124.5 -175.5q-18 -112 84 -112zM835.5 817.5q-76.5 -85.5 -114.5 -217.5l407 16q27 2 33 10t14 36t5.5 74t-32.5 106.5t-133 60.5t-179.5 -85.5zM735 819q141 135 304 135t233 -97t57 -241 q-4 -29 -14 -36t-47 -7q-168 0 -559 -22l-4 -31q-30 -183 38.5 -321t235.5 -138q140 0 256 82q16 12 25 0t-9 -24q-161 -135 -362 -135q-104 0 -191.5 46t-128.5 144q-137 -121 -247 -155.5t-180 -34.5t-112 44t-29 125t68.5 134t129 91t153.5 63.5t138 42.5t71 32 q11 40 19 53q30 200 18 250.5t-37 67t-65 16.5q-76 0 -136.5 -41.5t-72.5 -118.5q-4 -23 0 -35t-20 -24q-51 -28 -86 -29q-53 0 -40 58q12 95 125.5 168t261.5 73q94 0 144.5 -37.5t62.5 -97.5z" />
<glyph unicode="&#xe7;" horiz-adv-x="897" d="M557 903q-88 0 -158.5 -53t-140.5 -168t-70 -282t76 -247.5t206 -80.5t247 88q25 19 33 9.5t0.5 -19t-17.5 -19.5q-157 -138 -338 -147l-6 -39q-4 -27 20.5 -36t54.5 -19.5t52 -29t16 -57.5q-12 -71 -95 -108t-175 -33q-23 0 -19.5 16.5t89 16.5t96.5 79q6 44 -9.5 57 t-34.5 21.5t-33.5 20.5t-6.5 51l10 60q-142 4 -235.5 99.5t-93.5 258.5q0 119 45 229.5t122.5 195.5t182 136t221.5 51q178 0 216 -75.5t31 -124.5q-20 -139 -157 -62q-6 2 1 16t11 29t9 31q10 59 -26 97t-124 38z" />
<glyph unicode="&#xe8;" horiz-adv-x="806" d="M170 316q0 -255 137 -255t280 146q44 45 55 52t18 0t1 -15t-10 -17q-90 -104 -201.5 -173.5t-220.5 -69.5q-155 0 -182 102t-27 166t19.5 144.5t76 204t187.5 238.5t293 115t162 -139q0 -116 -108.5 -187.5t-234.5 -98.5t-217 -31q-28 -112 -28 -182zM438 1423q-9 9 8 17 q75 24 144 -21q8 -4 12 -14l88 -328q2 -6 -17.5 -7t-23.5 7zM528 911q-84 0 -173.5 -88.5t-147.5 -293.5q220 18 318 105t98 182t-95 95z" />
<glyph unicode="&#xe9;" horiz-adv-x="806" d="M170 316q0 -255 137 -255t280 146q44 45 55 52t18 0t1 -15t-10 -17q-90 -104 -201.5 -173.5t-220.5 -69.5q-155 0 -182 102t-27 166t19.5 144.5t76 204t187.5 238.5t293 115t162 -139q0 -116 -108.5 -187.5t-234.5 -98.5t-217 -31q-28 -112 -28 -182zM420 1077 q-8 -8 -26.5 -7t-14.5 7l188 328q35 35 88.5 40t69.5 -1t19.5 -10t-3.5 -11zM528 911q-84 0 -173.5 -88.5t-147.5 -293.5q220 18 318 105t98 182t-95 95z" />
<glyph unicode="&#xea;" horiz-adv-x="806" d="M170 316q0 -255 137 -255t280 146q44 45 55 52t18 0t1 -15t-10 -17q-90 -104 -201.5 -173.5t-220.5 -69.5q-155 0 -182 102t-27 166t19.5 144.5t76 204t187.5 238.5t293 115t162 -139q0 -116 -108.5 -187.5t-234.5 -98.5t-217 -31q-28 -112 -28 -182zM585.5 1430 q46.5 0 53.5 -11l188 -342q4 -6 -15 -5t-24 5l-221 223l-288 -223q-6 -4 -24.5 -5t-14.5 5l292 342q7 11 53.5 11zM528 911q-84 0 -173.5 -88.5t-147.5 -293.5q220 18 318 105t98 182t-95 95z" />
<glyph unicode="&#xeb;" horiz-adv-x="806" d="M170 316q0 -255 137 -255t280 146q44 45 55 52t18 0t1 -15t-10 -17q-90 -104 -201.5 -173.5t-220.5 -69.5q-155 0 -182 102t-27 166t19.5 144.5t76 204t187.5 238.5t293 115t162 -139q0 -116 -108.5 -187.5t-234.5 -98.5t-217 -31q-28 -112 -28 -182zM751 1315 q40 0 62.5 -29.5t14.5 -69.5t-38 -68t-70 -28t-61.5 28t-13.5 69q6 41 36 69.5t70 28.5zM390 1315q40 0 62.5 -29.5t15.5 -69.5t-38 -68t-71 -28t-61 28t-13 69q6 41 35.5 69.5t69.5 28.5zM528 911q-84 0 -173.5 -88.5t-147.5 -293.5q220 18 318 105t98 182t-95 95z" />
<glyph unicode="&#xec;" horiz-adv-x="507" d="M158 831q-26 0 -68 -4q-16 0 -16 12t87 34q87 21 191 81q8 6 18 6t5 -10q-4 -12 -13.5 -57t-22.5 -113.5t-29.5 -150.5t-32 -164t-28.5 -153.5t-23 -133.5t-1.5 -87t46.5 -25q39 0 95 32t56 11q0 -13 -48 -42.5t-159 -80t-124 35.5t6 207t34.5 210t26 150.5t17.5 101.5 t12 77t1 50t-30 13zM166 1423q-9 9 8 17q76 24 143 -21q8 -4 13 -14l88 -328q2 -6 -17.5 -7t-23.5 7z" />
<glyph unicode="&#xed;" horiz-adv-x="507" d="M158 831q-26 0 -68 -4q-16 0 -16 12t87 34q87 21 191 81q8 6 18 6t5 -10q-4 -12 -13.5 -57t-22.5 -113.5t-29.5 -150.5t-32 -164t-28.5 -153.5t-23 -133.5t-1.5 -87t46.5 -25q39 0 95 32t56 11q0 -13 -48 -42.5t-159 -80t-124 35.5t6 207t34.5 210t26 150.5t17.5 101.5 t12 77t1 50t-30 13zM236 1077q-8 -8 -27 -7t-14 7l188 328q35 35 88 40t69 -1t18.5 -10t-1.5 -11z" />
<glyph unicode="&#xee;" horiz-adv-x="507" d="M158 831q-26 0 -68 -4q-16 0 -16 12t87 34q87 21 191 81q8 6 18 6t5 -10q-4 -12 -13.5 -57t-22.5 -113.5t-29.5 -150.5t-32 -164t-28.5 -153.5t-23 -133.5t-1.5 -87t46.5 -25q39 0 95 32t56 11q0 -13 -48 -42.5t-159 -80t-124 35.5t6 207t34.5 210t26 150.5t17.5 101.5 t12 77t1 50t-30 13zM387 1430q46 0 53 -11l189 -342q4 -6 -15.5 -5t-23.5 5l-221 223l-289 -223q-6 -4 -24.5 -5t-14.5 5l293 342q7 11 53 11z" />
<glyph unicode="&#xef;" horiz-adv-x="507" d="M158 831q-26 0 -68 -4q-16 0 -16 12t87 34q87 21 191 81q8 6 18 6t5 -10q-4 -12 -13.5 -57t-22.5 -113.5t-29.5 -150.5t-32 -164t-28.5 -153.5t-23 -133.5t-1.5 -87t46.5 -25q39 0 95 32t56 11q0 -13 -48 -42.5t-159 -80t-124 35.5t6 207t34.5 210t26 150.5t17.5 101.5 t12 77t1 50t-30 13zM550 1315q40 0 62.5 -29.5t15.5 -69.5t-38 -68t-71 -28t-61.5 28t-13.5 69q6 41 36 69.5t70 28.5zM190 1315q40 0 62 -29.5t15 -69.5t-37.5 -68t-70.5 -28t-61.5 28t-13.5 69q6 41 36 69.5t70 28.5z" />
<glyph unicode="&#xf0;" horiz-adv-x="1083" d="M598 864q-132 0 -246 -123t-143 -308q-29 -186 36 -290t205 -104q76 0 152 63.5t156.5 203.5t99.5 356q-41 86 -115.5 144t-144.5 58zM136.5 133.5q-109.5 149.5 -78.5 343.5t158 333.5t304 139.5t249.5 -88t94.5 -133q10 199 -41 358.5t-137 270.5l-217 -119q-4 0 -8 2 l-6 43q-2 6 6 14l186 103q-88 94 -192 137q-23 10 -19 24.5t54 2.5q113 -27 225 -127l213 118q4 0 6 -2l8 -43q4 -8 -6 -14l-178 -100q150 -158 216 -384.5t34 -441.5q-46 -278 -194.5 -432.5t-357.5 -154.5q-210 0 -319.5 149.5z" />
<glyph unicode="&#xf1;" horiz-adv-x="1075" d="M788 954q117 0 117 -133q0 -63 -53 -341t-53 -323t7 -68t45 -23t94 32t56 11q0 -14 -50 -43t-145 -70t-127 -3.5t-32 99.5q0 78 52.5 348.5t52.5 327.5t-10.5 78.5t-45.5 21.5q-65 0 -156.5 -99.5t-175.5 -233.5q-84 -133 -112 -281l-25 -176q-7 -33 -58 -65.5t-95 -37.5 q38 244 77.5 486.5t46.5 292.5q7 51 3 64t-31 13t-68 -4q-16 0 -16 12t86 33t193 82q8 6 17 6t4 -12q-5 -14 -18.5 -75.5t-29.5 -138.5t-31.5 -149.5t-21.5 -107.5l6 -2q273 479 497 479zM667 1248q92 -36 126 -36t65 10.5t68 57.5q4 4 14 -2t4 -15q-29 -44 -89 -95.5 t-111 -51.5q-50 0 -86.5 11.5t-104.5 36t-99 24.5q-32 0 -62 -10.5t-70 -57.5q-4 -4 -13.5 1.5t-3.5 15.5t27.5 35.5t72.5 68.5t110 43q60 0 152 -36z" />
<glyph unicode="&#xf2;" horiz-adv-x="894" d="M635 837q-41 64 -116 64q-76 0 -129.5 -29.5t-88.5 -91.5q-59 -103 -97 -245.5t-38 -277.5t59.5 -175.5t115.5 -40.5q125 0 205 139t105 294t25 227t-41 136zM550 954q74 0 119.5 -21.5t78 -59t50 -88t17.5 -140t-50 -231.5t-132 -238t-178.5 -144t-170.5 -48 q-127 0 -193 85t-66 204q0 118 46 248.5t128 232.5t179.5 151t171.5 49zM471 1423q-6 10 8 17q78 25 144 -21q9 -5 14 -14l86 -328q2 -6 -16.5 -7t-22.5 7z" />
<glyph unicode="&#xf3;" horiz-adv-x="894" d="M635 837q-41 64 -116 64q-76 0 -129.5 -29.5t-88.5 -91.5q-59 -103 -97 -245.5t-38 -277.5t59.5 -175.5t115.5 -40.5q125 0 205 139t105 294t25 227t-41 136zM550 954q74 0 119.5 -21.5t78 -59t50 -88t17.5 -140t-50 -231.5t-132 -238t-178.5 -144t-170.5 -48 q-127 0 -193 85t-66 204q0 118 46 248.5t128 232.5t179.5 151t171.5 49zM490.5 1071q-13.5 0 -18.5 1t-3 5l190 328q35 35 88.5 40t69.5 -1t18.5 -10t-1.5 -11l-324 -346q-6 -6 -19.5 -6z" />
<glyph unicode="&#xf4;" horiz-adv-x="894" d="M635 837q-41 64 -116 64q-76 0 -129.5 -29.5t-88.5 -91.5q-59 -103 -97 -245.5t-38 -277.5t59.5 -175.5t115.5 -40.5q125 0 205 139t105 294t25 227t-41 136zM550 954q74 0 119.5 -21.5t78 -59t50 -88t17.5 -140t-50 -231.5t-132 -238t-178.5 -144t-170.5 -48 q-127 0 -193 85t-66 204q0 118 46 248.5t128 232.5t179.5 151t171.5 49zM644 1430q45 0 52 -11l191 -342q4 -6 -15.5 -5t-23.5 5l-221 223l-289 -223q-8 -4 -26.5 -5t-12.5 5l293 342q7 11 52 11z" />
<glyph unicode="&#xf5;" horiz-adv-x="894" d="M635 837q-41 64 -116 64q-76 0 -129.5 -29.5t-88.5 -91.5q-59 -103 -97 -245.5t-38 -277.5t59.5 -175.5t115.5 -40.5q125 0 205 139t105 294t25 227t-41 136zM550 954q74 0 119.5 -21.5t78 -59t50 -88t17.5 -140t-50 -231.5t-132 -238t-178.5 -144t-170.5 -48 q-127 0 -193 85t-66 204q0 118 46 248.5t128 232.5t179.5 151t171.5 49zM665.5 1248q94.5 -36 127.5 -36q32 0 63 10.5t70 57.5q4 4 13 -2t3 -15q-32 -48 -89.5 -97.5t-109.5 -49.5q-63 0 -161 36t-129 36t-61 -10.5t-70 -57.5q-4 -4 -14.5 1.5t-3.5 15.5t28.5 35.5 t72.5 68.5t108 43q58 0 152.5 -36z" />
<glyph unicode="&#xf6;" horiz-adv-x="894" d="M635 837q-41 64 -116 64q-76 0 -129.5 -29.5t-88.5 -91.5q-59 -103 -97 -245.5t-38 -277.5t59.5 -175.5t115.5 -40.5q125 0 205 139t105 294t25 227t-41 136zM550 954q74 0 119.5 -21.5t78 -59t50 -88t17.5 -140t-50 -231.5t-132 -238t-178.5 -144t-170.5 -48 q-127 0 -193 85t-66 204q0 118 46 248.5t128 232.5t179.5 151t171.5 49zM795 1315q41 0 63 -29.5t14 -69.5t-37.5 -68t-70.5 -28t-62.5 28t-13.5 69q6 41 36 69.5t71 28.5zM434 1315q41 0 63.5 -29.5t15.5 -69.5t-38 -68t-72 -28t-62 28t-13 69q6 41 35.5 69.5t70.5 28.5z " />
<glyph unicode="&#xf7;" horiz-adv-x="1181" d="M598 545q41 0 62.5 -29t15.5 -69.5t-37 -68.5t-72 -28t-62.5 28t-15 68.5t37 69.5t71.5 29zM702.5 1210q40.5 0 63 -28.5t15.5 -69.5t-37.5 -68.5t-71.5 -27.5t-62.5 27.5t-13.5 68.5q6 41 36 69.5t70.5 28.5zM221 750q-2 0 -2 2v4l10 45q4 8 13 8h805q4 0 4 -6l-13 -45 q0 -8 -12 -8h-805z" />
<glyph unicode="&#xf8;" horiz-adv-x="894" d="M332 41q134 0 214 139t105 294t25 218t-23 111l-430 -717q45 -45 109 -45zM510 901q-68 0 -121 -29.5t-88 -91.5q-59 -103 -97 -245.5t-38 -242.5t24 -153l431 715q-43 47 -111 47zM25 272q0 119 46 249.5t128 232.5t179.5 151t167.5 49t122 -20l55 90q2 6 12 6l39 -14 q6 -4 2 -8l-61 -103q100 -83 100 -225q0 -191 -101 -380t-228.5 -252.5t-195.5 -63.5t-116 18l-39 -63q-6 -6 -14 -7l-39 15q-2 2 -2 8l45 78q-100 84 -100 239z" />
<glyph unicode="&#xf9;" horiz-adv-x="1046" d="M778 141q0 -29 8 -52t46 -23t94 32t57 11q0 -14 -49 -43t-143.5 -70t-135.5 8.5t-15.5 218.5t44.5 238l-6 2q-273 -479 -498 -479q-117 0 -117 133q0 69 33 226t52.5 248t28.5 153t1 74.5t-35 12.5t-55 -2q-28 -3 -28 7t5 14t86 24t138 53t66 33t3 -14q-13 -84 -77 -398 t-64 -374q0 -61 10.5 -82.5t44.5 -21.5q65 0 154 97t180 238t125 283l41 172q7 32 51 58t113 45q-158 -483 -158 -822zM528 1423q-7 11 9 17q77 25 143 -21q9 -5 14 -14l86 -328q2 -6 -16.5 -7t-22.5 7z" />
<glyph unicode="&#xfa;" horiz-adv-x="1046" d="M778 141q0 -29 8 -52t46 -23t94 32t57 11q0 -14 -49 -43t-143.5 -70t-135.5 8.5t-15.5 218.5t44.5 238l-6 2q-273 -479 -498 -479q-117 0 -117 133q0 69 33 226t52.5 248t28.5 153t1 74.5t-35 12.5t-55 -2q-28 -3 -28 7t5 14t86 24t138 53t66 33t3 -14q-13 -84 -77 -398 t-64 -374q0 -61 10.5 -82.5t44.5 -21.5q65 0 154 97t180 238t125 283l41 172q7 32 51 58t113 45q-158 -483 -158 -822zM481 1077q-8 -8 -26.5 -7t-14.5 7l191 328q35 35 87 40t68 -1t19.5 -10t-2.5 -11z" />
<glyph unicode="&#xfb;" horiz-adv-x="1046" d="M778 141q0 -29 8 -52t46 -23t94 32t57 11q0 -14 -49 -43t-143.5 -70t-135.5 8.5t-15.5 218.5t44.5 238l-6 2q-273 -479 -498 -479q-117 0 -117 133q0 69 33 226t52.5 248t28.5 153t1 74.5t-35 12.5t-55 -2q-28 -3 -28 7t5 14t86 24t138 53t66 33t3 -14q-13 -84 -77 -398 t-64 -374q0 -61 10.5 -82.5t44.5 -21.5q65 0 154 97t180 238t125 283l41 172q7 32 51 58t113 45q-158 -483 -158 -822zM652.5 1430q45.5 0 54.5 -11l190 -342q2 -6 -16.5 -5t-22.5 5l-223 223l-287 -223q-8 -4 -26.5 -5t-12.5 5l291 342q7 11 52.5 11z" />
<glyph unicode="&#xfc;" horiz-adv-x="1046" d="M778 141q0 -29 8 -52t46 -23t94 32t57 11q0 -14 -49 -43t-143.5 -70t-135.5 8.5t-15.5 218.5t44.5 238l-6 2q-273 -479 -498 -479q-117 0 -117 133q0 69 33 226t52.5 248t28.5 153t1 74.5t-35 12.5t-55 -2q-28 -3 -28 7t5 14t86 24t138 53t66 33t3 -14q-13 -84 -77 -398 t-64 -374q0 -61 10.5 -82.5t44.5 -21.5q65 0 154 97t180 238t125 283l41 172q7 32 51 58t113 45q-158 -483 -158 -822zM448.5 1315q40.5 0 64 -29.5t15.5 -69.5t-38.5 -68t-71.5 -28t-62.5 28t-13.5 69q6 41 36 69.5t70.5 28.5zM808 1315q40 0 62.5 -29.5t15.5 -69.5 t-38 -68t-71 -28t-61.5 28t-13.5 69q6 41 36 69.5t70 28.5z" />
<glyph unicode="&#xfd;" horiz-adv-x="917" d="M162 831q-31 0 -72 -4q-14 0 -18 13q0 12 84 33t138 54t62 33t11 -14q70 -435 63 -908q241 295 306 467t65 238q0 115 -115 111q-4 0 -8 10q2 39 29.5 76t73.5 37t75 -31.5t29 -101.5t-34 -167t-93.5 -209t-138 -230.5t-223 -298.5t-333.5 -334t-319 -154q-57 0 -84 27.5 t-27 63.5t21.5 66t41.5 38t28 2q24 -90 115 -90t228.5 109t237.5 223q3 279 -29 540.5t-43 323.5q-13 77 -71 77zM557 1077q-8 -8 -26.5 -7t-14.5 7l191 328q35 35 98.5 41t71.5 -5t2 -18z" />
<glyph unicode="&#xfe;" horiz-adv-x="1056" d="M768 954q117 0 117 -201t-100.5 -388.5t-278.5 -290t-316 -86.5q-18 -98 -28 -174t-21.5 -155.5t-19.5 -168.5q-7 -34 -68.5 -65.5t-107.5 -36.5q3 14 37 191t59 303t50.5 258t41.5 228q16 95 28.5 176t28 180t31 204.5t28.5 195.5t21.5 151.5t12.5 89.5t0 41t-30 13 t-69 -4q-16 0 -16 12t86 33t192 82q8 6 18 6t5 -11q-4 -11 -17.5 -85t-33 -181.5t-43 -233.5t-47.5 -266.5t-49 -276.5l6 -5q116 208 253 336.5t230 128.5zM741 713q0 143 -71 143q-105 0 -310 -305q-53 -83 -87.5 -188.5t-69.5 -309.5q85 -29 134 -21q86 15 164.5 89.5 t114.5 145.5q125 245 125 446z" />
<glyph unicode="&#xff;" horiz-adv-x="917" d="M162 831q-31 0 -72 -4q-14 0 -18 13q0 12 84 33t138 54t62 33t11 -14q70 -435 63 -908q241 295 306 467t65 238q0 115 -115 111q-4 0 -8 10q2 39 29.5 76t73.5 37t75 -31.5t29 -101.5t-34 -167t-93.5 -209t-138 -230.5t-223 -298.5t-333.5 -334t-319 -154q-57 0 -84 27.5 t-27 63.5t21.5 66t41.5 38t28 2q24 -90 115 -90t228.5 109t237.5 223q3 279 -29 540.5t-43 323.5q-13 77 -71 77zM457 1315q41 0 63.5 -29.5t15.5 -69.5t-38 -68t-72 -28t-62.5 28t-13.5 69q6 41 36 69.5t71 28.5zM816 1315q40 0 62.5 -29.5t15.5 -69.5t-38 -68t-71 -28 t-61 28t-13 69q6 41 35.5 69.5t69.5 28.5z" />
<glyph unicode="&#x152;" horiz-adv-x="1908" d="M985 1491q-233 0 -419 -170t-239 -505t54.5 -494.5t210 -214t204.5 -54.5t165 17q25 156 54 338t59 368.5t56.5 362.5t49.5 319q-86 33 -195 33zM758 -16q-195 0 -324 71.5t-200.5 184t-92 250t0 268.5t86 270t176 254t266 188.5t356.5 73.5q57 0 115 -8h337 q338 0 425 12q8 2 17 14.5t19 10.5q13 -4 -13 -64t-52 -202q-6 -25 -16 -25q-18 0 -14 18t3.5 47t-2.5 48q-4 39 -62.5 55t-160.5 23l-272 6q-12 0 -15 -21l-94 -598q-2 -16 6 -16h203q204 0 252.5 15.5t66.5 37.5q19 22 29 22.5t-1 -37.5q-44 -154 -58 -243q-4 -25 -19 -25 t-6 48q18 108 -88 118q-28 4 -51 4l-155 1q-132 1 -181 1q-10 0 -10 -10l-78 -489q-14 -58 -17.5 -123.5t3.5 -75.5q14 -23 57.5 -28t107.5 -5l134 -1q133 0 181 20q92 37 136 180q9 25 21 25q14 0 3.5 -42t-28 -104.5t-29.5 -92.5t-31.5 -39t-76.5 -9l-578 8q-71 0 -129 -4 q-72 -12 -147 -12z" />
<glyph unicode="&#x153;" horiz-adv-x="1400" d="M1217 819q0 92 -102 92t-186 -112t-128 -271q232 18 324 108.5t92 182.5zM635 837q-41 64 -116 64q-76 0 -129.5 -29.5t-88.5 -91.5q-59 -103 -97 -245.5t-38 -277.5t59.5 -175.5t115.5 -40.5q125 0 205 139t105 294t25 227t-41 136zM764 314q0 -254 137 -253.5 t280 146.5q44 45 55 52t18 0t1 -15t-10 -17q-90 -104 -201.5 -173.5t-211.5 -69.5q-180 0 -211 180q-72 -86 -168.5 -133t-170.5 -47q-126 0 -191.5 85t-65.5 204q0 118 46 248.5t128 232.5t180 151t190.5 49t155.5 -58t82 -148q166 206 377 206q168 0 168 -139 q0 -88 -61.5 -147.5t-187.5 -112t-310 -57.5q-29 -116 -29 -184z" />
<glyph unicode="&#x178;" horiz-adv-x="1488" d="M775 1864q40 0 61.5 -29t15.5 -70t-37 -68.5t-71 -27.5t-61 27.5t-15 68.5t36.5 70t70.5 29zM1136 1864q40 0 61.5 -29t15 -70t-37 -68.5t-70.5 -27.5t-61.5 27.5t-15.5 68.5t37 70t71 29zM466 23q69 0 101.5 47.5t46.5 149.5q14 101 22.5 151.5t12.5 73t5 29.5t4.5 22.5 t7.5 50.5t16 110q-27 68 -63.5 161t-136 333t-146 301t-127.5 61q-27 0 -23 15q0 14 25 14l205 -6l196 6q20 0 21 -12q-4 -16 -38 -16t-55.5 -29t10.5 -105q41 -96 111 -285t140 -354q2 -16 14 0q119 175 219 313.5t151 217.5q52 80 102 160.5t-48 80.5q-18 0 -22.5 5.5 t-2.5 9.5q0 14 29 14l39 -2l303 2q21 0 21 -14q-4 -14 -37 -14q-71 -1 -131 -50t-115 -122q-55 -72 -115.5 -156t-127 -178.5t-130 -183.5t-104.5 -148l-14 -81q-13 -81 -15 -97.5t-4 -23.5t-9.5 -64t-23.5 -150q-16 -94 -18 -132t13.5 -71.5t111.5 -33.5q27 0 22 -15 q0 -14 -26 -14l-55 2l-379 -2q-23 0 -23 14q8 15 40 15z" />
<glyph unicode="&#x2c6;" horiz-adv-x="929" d="M605 1430q45 0 52 -11l191 -342q4 -6 -15.5 -5t-23.5 5l-223 223l-287 -223q-8 -4 -26.5 -5t-12.5 5l293 342q7 11 52 11z" />
<glyph unicode="&#x2dc;" horiz-adv-x="856" d="M562.5 1248q93.5 -36 125.5 -36q33 0 63.5 10.5t69.5 57.5q4 4 14.5 -2t8.5 -10q-63 -89 -120.5 -120.5t-95.5 -31.5q-47 0 -149 36t-132 36q-29 0 -59 -10.5t-71 -57.5q-4 -4 -13 1.5t-3 15.5t27.5 35.5t71.5 68.5t110 43q59 0 152.5 -36z" />
<glyph unicode="&#x2000;" horiz-adv-x="971" />
<glyph unicode="&#x2001;" horiz-adv-x="1943" />
<glyph unicode="&#x2002;" horiz-adv-x="971" />
<glyph unicode="&#x2003;" horiz-adv-x="1943" />
<glyph unicode="&#x2004;" horiz-adv-x="647" />
<glyph unicode="&#x2005;" horiz-adv-x="485" />
<glyph unicode="&#x2006;" horiz-adv-x="323" />
<glyph unicode="&#x2007;" horiz-adv-x="323" />
<glyph unicode="&#x2008;" horiz-adv-x="242" />
<glyph unicode="&#x2009;" horiz-adv-x="388" />
<glyph unicode="&#x200a;" horiz-adv-x="107" />
<glyph unicode="&#x2010;" horiz-adv-x="749" d="M88 694q-8 0 2 24t24.5 50t24.5 50t29 24q332 20 553 14q22 0 22 -12q-4 -12 -54 -14q-115 -6 -312 -46t-239 -65t-50 -25z" />
<glyph unicode="&#x2011;" horiz-adv-x="749" d="M88 694q-8 0 2 24t24.5 50t24.5 50t29 24q332 20 553 14q22 0 22 -12q-4 -12 -54 -14q-115 -6 -312 -46t-239 -65t-50 -25z" />
<glyph unicode="&#x2012;" horiz-adv-x="749" d="M88 694q-8 0 2 24t24.5 50t24.5 50t29 24q332 20 553 14q22 0 22 -12q-4 -12 -54 -14q-115 -6 -312 -46t-239 -65t-50 -25z" />
<glyph unicode="&#x2013;" horiz-adv-x="954" d="M55 750q-4 0 -4 6l12 45q4 8 13 8h880q6 0 7 -6l-15 -45q0 -8 -12 -8h-881z" />
<glyph unicode="&#x2014;" horiz-adv-x="1370" d="M66 750q-2 0 -3 2v4l11 45q4 8 12 8h1290q6 0 6 -6l-14 -45q0 -8 -12 -8h-1290z" />
<glyph unicode="&#x2018;" horiz-adv-x="399" d="M295 1223q-49 0 -68.5 34.5t-11.5 80.5q15 85 77 169.5t109 128.5q47 45 53 45.5t14 -3.5t-19 -33q-63 -67 -84 -149.5t38 -98.5q23 -27 17 -67t-41 -73.5t-84 -33.5z" />
<glyph unicode="&#x2019;" horiz-adv-x="399" d="M379 1686q49 0 68.5 -35t11.5 -81q-15 -84 -73 -163t-110 -129q-52 -51 -57.5 -52t-9.5 1q-13 7 12 30q68 77 87.5 156t-40.5 98q-20 27 -14 67t41 74t84 34z" />
<glyph unicode="&#x201a;" horiz-adv-x="460" d="M184 209q49 0 67.5 -35t11.5 -81q-12 -81 -72 -163.5t-111 -130.5q-51 -49 -56.5 -50t-9.5 1q-14 6 13 31q66 74 86.5 154t-39.5 100q-20 27 -16 67t40.5 73.5t85.5 33.5z" />
<glyph unicode="&#x201c;" horiz-adv-x="694" d="M589 1223q-48 0 -67.5 34.5t-11.5 80.5q15 89 76 171.5t109 126.5q48 45 54.5 45.5t12.5 -3.5t-20 -33q-63 -68 -84 -150.5t40 -97.5q20 -27 14 -67t-40.5 -73.5t-82.5 -33.5zM295 1223q-49 0 -68.5 34.5t-11.5 80.5q15 85 77 169.5t109 128.5q47 45 53 45.5t14 -3.5 t-19 -33q-63 -67 -84 -149.5t38 -98.5q23 -27 17 -67t-41 -73.5t-84 -33.5z" />
<glyph unicode="&#x201d;" horiz-adv-x="694" d="M379 1686q49 0 68.5 -35t11.5 -81q-15 -84 -73 -163t-110 -129q-52 -51 -57.5 -52t-9.5 1q-13 7 12 30q68 77 87.5 156t-40.5 98q-20 27 -14 67t41 74t84 34zM672 1686q49 0 68.5 -35t11.5 -81q-15 -85 -73.5 -165.5t-109.5 -128.5q-51 -49 -57 -50t-10 1q-13 7 12 30 q68 77 87.5 156t-38.5 98q-21 25 -15 66q7 41 41 75t83 34z" />
<glyph unicode="&#x201e;" horiz-adv-x="753" d="M184 209q49 0 67.5 -35t11.5 -81q-12 -81 -72 -163.5t-111 -130.5q-51 -49 -56.5 -50t-9.5 1q-14 6 13 31q66 74 86.5 154t-39.5 100q-20 27 -16 67t40.5 73.5t85.5 33.5zM477 209q49 0 67.5 -35t11.5 -81q-13 -86 -73.5 -168t-109.5 -128q-49 -47 -55.5 -48t-10.5 1 q-15 6 12 31q67 76 88 155t-38 99q-22 26 -16 66q5 40 40 74t84 34z" />
<glyph unicode="&#x2022;" horiz-adv-x="671" d="M350 672q-33 0 -60.5 13t-46 36.5t-25.5 54.5t2 83.5t64.5 101.5t121.5 49t104.5 -49.5t30.5 -101.5t-25.5 -83t-43.5 -54.5t-57.5 -36.5t-64.5 -13z" />
<glyph unicode="&#x2026;" horiz-adv-x="1632" d="M1320 209q44 0 69.5 -33t17.5 -80t-44 -79.5t-80 -32.5t-70.5 32.5t-18.5 79.5t45 80t81 33zM767 209q44 0 70.5 -33t18.5 -80t-45 -79.5t-81 -32.5t-70.5 32.5t-18.5 79.5t45 80t81 33zM214 209q44 0 70.5 -33t18.5 -80t-45 -79.5t-81 -32.5t-70.5 32.5t-18.5 79.5 t45 80t81 33z" />
<glyph unicode="&#x202f;" horiz-adv-x="388" />
<glyph unicode="&#x2039;" horiz-adv-x="735" d="M297 760l2 -10l305 -277q2 -2 2 -12l-4 -33q-4 -6 -8 -4l-453 313q-10 6 -8 17v8q2 10 14 16l553 314q6 2 7 -5l-7 -32q0 -6 -6 -13l-391 -276z" />
<glyph unicode="&#x203a;" horiz-adv-x="735" d="M653 754q-2 -12 -10 -17l-555 -313q-10 -6 -6 4l4 33q0 8 8 12l389 277q8 2 8.5 8t-4.5 8l-303 276q-4 2 -4 13l6 32q0 8 9 5l454 -314q6 -6 4 -16v-8z" />
<glyph unicode="&#x205f;" horiz-adv-x="485" />
<glyph unicode="&#x20ac;" horiz-adv-x="1316" d="M133 903q-2 0 -2 6l10 45q4 8 13 9h133q101 260 321 420.5t459 160.5q145 0 340 -51q16 -4 11 -31q-17 -93 -26 -142q-8 -48 -12 -55.5t-13 -7.5q-15 0 -9 40t-17.5 80t-88.5 77t-179 37q-218 0 -378 -142.5t-240 -385.5h657q6 0 4 -7l-12 -45q0 -8 -10 -8h-656 q-10 -33 -16 -66.5t-14 -76.5t-13 -125h666q4 0 4 -6l-12 -45q-4 -8 -11 -9h-649q0 -239 115 -384.5t326 -145.5q124 0 232.5 52t127.5 157q6 25 16 25q18 0 12 -39q-17 -104 -22 -174q-6 -18 -22 -23q-209 -51 -339 -51q-258 0 -429 161.5t-187 421.5h-141q-4 0 -4 7l12 45 q0 8 12 8h121q-7 111 41 268h-131z" />
<glyph unicode="&#x2122;" horiz-adv-x="1792" d="M261 1537q34 -1 145.5 -1h254t156.5 4t19.5 9t10.5 4t-7 -44t-17 -80q-4 -38 -10 -38q-12 -4 -8 14v17q0 18 -2 28q-4 23 -36 31t-85 10t-123 6l-106 -676q-10 -59 -1 -83.5t62 -24.5q12 0 12 -7t-14 -8l-125 4l-119 -4q-12 0 -12 8t14 7q51 2 70.5 45t122.5 739 q-70 -4 -122 -6q-116 -4 -132 -41q-4 -10 -10.5 -25.5t-10.5 -25.5t-11 -9t2 50t11 81q3 31 7 33q6 0 8 -5t12 -8t44 -4zM1499 706q1 8 29 7q28 0 41.5 21.5t23.5 85.5t25.5 156.5t35 215.5t29.5 177q9 54 7 53t-4 -3l-414 -669q-23 -35 -27 -43.5t-10 -8.5t-34.5 81.5 t-192.5 639.5q2 4 0 4t-4 -4q-104 -609 -95 -657.5t60 -48.5q10 0 10 -7t-12 -8l-105 4l-106 -4q-14 0 -15 9q0 6 32 6t46.5 24.5t24.5 71.5q29 170 59.5 334t52.5 309q12 72 -67 72q-10 0 -8 6q0 10 12 10q45 0 89 -4t91 -2q45 -152 118 -389.5t91 -300.5q419 672 428 690 q49 -2 90 2t80 4q10 0 10 -10q-4 -6 -30 -6q-60 0 -70 -68q-40 -220 -69 -433q-29 -212 -30 -235.5t6.5 -49t61.5 -25.5q15 0 13 -6q0 -8 -15 -9l-135 4l-111 -4q-12 0 -12 8z" />
<glyph unicode="&#x25fc;" horiz-adv-x="970" d="M0 970h970v-970h-970v970z" />
<glyph unicode="&#xfb01;" horiz-adv-x="1048" d="M849 1126q-30 0 -56.5 28t-26.5 72t41 82t83 38t67.5 -29t25.5 -61t-11 -53t-29.5 -38.5t-41 -28t-52.5 -10.5zM707 1395q-15 110 -104 110q-50 0 -89 -45t-66 -116t-55 -250l-26 -152h364q119 0 145.5 9.5t34.5 9.5q8 1 4 -11t-13 -57t-61.5 -310.5t-68.5 -366.5 t-7 -125.5t47 -24.5t94 32t57 11q0 -12 -48.5 -42t-160 -81.5t-123 35.5t8.5 216q77 507 89 658h-369l-157 -926q-36 -210 -152 -365t-299 -155q-53 0 -80.5 24.5t-27.5 79t102 66.5q10 0 10 -8q15 -111 84 -111q131 0 168 180.5t45 231.5l162 983h-154q-23 0 -10.5 17.5 t44.5 17.5q76 0 106 24.5t46 99.5q44 197 160 349.5t295 152.5q53 0 85 -24.5t32 -77.5t-102 -68q-10 0 -10 9z" />
<glyph unicode="&#xfb02;" horiz-adv-x="1054" d="M707 1395q-15 110 -104 110q-50 0 -89 -45t-66 -116t-55 -250l-26 -152h215q23 0 16 -16l-6 -15q-6 -16 -29 -16h-203l-157 -926q-36 -210 -152 -365t-299 -155q-53 0 -80.5 24.5t-27.5 79t102 66.5q10 0 10 -8q15 -111 84 -111q131 0 168 180.5t45 231.5l162 983h-154 q-23 0 -10.5 17.5t44.5 17.5q76 0 106 24.5t46 99.5q44 197 160 349.5t295 152.5q84 0 102.5 -36.5t12.5 -67.5q37 18 101.5 57t74.5 39t6 -11t-8 -33l-40 -222q-36 -201 -63.5 -359.5t-53 -305t-45 -262t-29.5 -177.5t-1 -87t47 -25t94 32t56 11q0 -13 -48 -42.5t-159 -81 t-123.5 35.5t3.5 187t34.5 211t37 230t37 234.5t43.5 277.5t29 187q5 25 0 37.5t-54 5t-49 4.5z" />
</font>
</defs>
</svg>
